<svg xmlns="http://www.w3.org/2000/svg" width="500.5" height="312.881" viewBox="0 0 500.5 312.881"><path d="M500.5 255.89c0 8.52-7.006 18.026-15.035 20.544a777.222 777.222 0 0 1-470.43 0C6.514 273.916 0 264.41 0 255.89V56.992c0-8.521 7.006-18.027 15.035-20.545a777.222 777.222 0 0 1 470.43 0c8.521 2.518 15.035 12.024 15.035 20.545Z" class="SimmonsLogoBkg" style="fill:#00426b;stroke-width:5.01"/><path d="M461.929 116.108c-30.562-24.048-243.51-16.038-286.587-16.038-57.11 0-92.67-7.006-85.664-26.036 4.507-12.536 105.716-29.066 160.326-29.066 93.18 0 167.332 15.527 160.307 42.093l26.566 2.5c5-4.015 24.048-23.045 29.54-26.548-65.612-20.545-132.738-32.569-216.432-32.569-112.703 0-178.334 21.53-215.409 37.568-10.036 4.507-12.535 116.226 3.503 128.76 30.562 24.049 243.49 16.04 286.568 16.04 57.11 0 92.689 7.005 85.664 26.035-4.507 12.536-105.698 28.574-160.307 28.574-93.181 0-167.332-15.527-160.326-42.094l-26.547-2.499c-5.018 3.995-24.048 23.044-29.559 26.547 65.63 21.038 132.756 33.062 216.432 33.062 112.722 0 178.845-21.53 215.428-37.568 10.017-4.507 12.516-116.226-3.503-128.76" class="SimmonLogoS" style="fill:#fff;stroke-width:5.01"/><path d="M97.182 149.122c0 .529-.556.9-1.191.9a2.45 2.45 0 0 1-.979-.212l-.026-.715c.105.291.396.688.926.688.502 0 .661-.29.661-.502 0-.397-.45-.45-.9-.662-.476-.212-.661-.45-.661-.767 0-.582.635-.794 1.111-.794.185 0 .503.027.768.159l.026.635a.922.922 0 0 0-.847-.556c-.397 0-.529.212-.529.397 0 .265.212.344.688.53.476.158.953.317.953.899m18.071 0c0 .529-.556.9-1.191.9a2.45 2.45 0 0 1-.979-.212l-.026-.715c.105.291.396.688.926.688.502 0 .661-.29.661-.502 0-.397-.45-.45-.9-.662-.476-.212-.661-.45-.661-.767 0-.582.635-.794 1.111-.794.185 0 .503.027.768.159l.026.635a.922.922 0 0 0-.847-.556c-.397 0-.529.212-.529.397 0 .265.212.344.688.53.45.158.953.317.953.899m-16.828-2.038c-.08.027-.106.106-.106.186v2.487c0 .106.027.159.106.185h-.794c.08-.027.106-.106.106-.185v-2.487c0-.106-.053-.16-.106-.186zm3.069 0h.741c-.08.027-.106.106-.106.186v2.487c0 .106.053.159.106.185h-.794c.08-.027.106-.106.106-.185v-2.223.106l-1.058 2.381-1.058-2.302-.027-.105v2.169c0 .106.053.159.132.185h-.502c.079-.026.105-.105.105-.185v-2.487c0-.08-.079-.159-.132-.185h.767l.874 1.931zm3.704 0h.741c-.08.027-.106.106-.106.186v2.487c0 .106.053.159.106.185h-.793c.079-.027.105-.106.105-.185v-2.223l-.026.106-1.058 2.381-1.059-2.302-.026-.105v2.169c0 .106.053.159.132.185h-.503c.08-.026.106-.105.106-.185v-2.487c0-.08-.08-.159-.132-.185h.767l.873 1.931zm2.726 2.911c-.9 0-1.64-.635-1.614-1.508.026-.741.635-1.482 1.693-1.455.767 0 1.614.529 1.588 1.481-.027 1.006-.874 1.508-1.667 1.482m-1.006-1.535c0 .9.53 1.323 1.032 1.323.582 0 1.006-.45 1.006-1.217 0-.82-.424-1.296-1.006-1.296-.582 0-1.032.423-1.032 1.19m5.292-1.19c0-.106-.053-.16-.106-.186h.503c-.08.027-.106.106-.106.186v2.804s-2.117-2.381-2.117-2.434v2.117c0 .106.053.159.133.185h-.503a.223.223 0 0 0 .106-.185v-2.25c0-.158 0-.158-.08-.264-.053-.053-.106-.106-.211-.159h.767l1.64 1.853z" style="fill:#171717;stroke-width:.264583" transform="matrix(18.93538 0 0 18.9354 -1737.965 -2655.465)"/><path d="M486.98 290.465c0-1.003 0-2.007.492-2.518a6.911 6.911 0 0 1 1.515-2.007c.493-.493 1.496-.985 1.989-1.496 1.003-.493 1.514-.493 2.518-.493.985 0 1.988 0 2.5.493 1.003.511 1.514 1.003 2.007 1.515.492.492 1.003 1.495 1.514 1.988.493 1.003.493 1.515.493 2.518 0 .985 0 1.988-.512 2.5a6.911 6.911 0 0 1-1.514 2.007c-.493.492-1.496 1.003-1.989 1.515-1.003.492-1.514.492-2.5.492-1.003 0-2.006 0-2.517-.511a6.911 6.911 0 0 1-2.008-1.515c-.492-.492-.984-1.496-1.496-1.988 0-.512-.492-1.515-.492-2.5m1.496 0c0 .985 0 1.496.492 1.988.512.512.512 1.515 1.004 1.515.511.493 1.004 1.004 1.515 1.004.492.492 1.515.492 2.007.492.985 0 1.496 0 1.988-.492.511-.511 1.004-.511 1.515-1.004.492-.511 1.004-1.003 1.004-1.515.492-.492.492-1.495.492-1.988 0-1.003 0-1.515-.492-2.007-.512-.511-.512-1.004-1.004-1.515-.511-.492-1.004-1.003-1.515-1.003-.492 0-.984-.493-1.496-.493-1.003 0-1.515 0-2.007.493-.492.51-1.003.51-1.515 1.003-.492.511-.984 1.004-.984 1.515-1.004 1.004-1.004 1.515-1.004 2.007m3.01-3.522h2.993c1.003 0 1.514 0 2.007.511.511.493.511 1.004.511 1.515 0 .493 0 .985-.511 1.496-.493.493-1.004.493-1.515.493l2.026 3.01h-1.515l-1.988-3.01h-1.004v3.01h-1.514v-7.006zm1.004 3.03h2.008s.492 0 .492-.511v-1.004s0-.511-.492-.511h-2.008z" class="SimmonsLogoReg" style="fill:#999;stroke-width:5.01"/></svg>