<svg width="100" height="35" viewBox="0 0 100 35" fill="none" xmlns="http://www.w3.org/2000/svg">
<path fill-rule="evenodd" clip-rule="evenodd" d="M99.3448 16.0196C99.2403 16.5131 99.1806 17.3069 99.1806 19.2739L99.1769 19.2697V32.1448C99.1769 33.6841 98.1851 34.2315 96.3172 34.2315C94.3903 34.2315 93.2813 33.7982 93.2813 32.1448V27.2721L92.8724 28.4992C92.6687 29.139 92.2015 29.4855 91.4425 29.4855C90.6836 29.4855 90.2164 29.139 90.0127 28.4992L89.6037 27.2721V32.1448C89.6037 33.7982 88.4948 34.2315 86.5687 34.2315C84.7 34.2315 83.7082 33.6841 83.7082 32.1448V17.8053C83.6836 16.861 83.6321 16.3661 83.5597 16.0196C83.4993 15.734 83.5127 15.5191 83.9328 15.3721C85.0105 14.9955 86.2888 15.0354 86.6716 15.0354C86.7336 15.0347 86.7963 15.034 86.8605 15.034C88.8739 15.034 89.5455 15.5233 90.1291 17.5477L91.4425 22.1796L92.756 17.5477C93.3396 15.5233 94.0112 15.034 96.0246 15.034C96.0955 15.034 96.1642 15.0347 96.2328 15.0361L96.2321 15.0354C96.6149 15.0354 97.8933 14.9955 98.9716 15.3721C99.391 15.5191 99.4045 15.734 99.3448 16.0196ZM77.5925 10.6737C74.3791 10.6737 72.0843 8.57792 72.0843 5.67082C72.0843 2.77842 74.3948 0.682617 77.5925 0.682617C80.7896 0.682617 83.0843 2.77842 83.0843 5.67082C83.0843 8.57792 80.7896 10.6737 77.5925 10.6737ZM77.5925 3.88512C76.5157 3.88512 75.8828 4.53472 75.8828 5.67082C75.8828 6.76282 76.5313 7.44182 77.5925 7.44182C78.6366 7.44182 79.2858 6.76282 79.2858 5.67082C79.2858 4.57882 78.6366 3.88512 77.5925 3.88512ZM67.5381 10.526H66.9843C65.9239 10.526 65.3537 9.95062 65.3537 8.85862V2.49772C65.3537 1.37632 65.9239 0.830317 66.9843 0.830317H67.5381C68.6463 0.830317 69.2313 1.37632 69.2313 2.49772V8.85862C69.2313 9.95062 68.6463 10.526 67.5381 10.526ZM66.7993 27.7257C66.7993 31.8851 64.2896 33.9648 59.9694 33.9648H56.6425C54.6866 33.9648 53.694 32.7916 53.694 31.2719V18.5137C53.6754 17.2922 53.6202 16.7063 53.5373 16.3122C53.4769 16.0273 53.491 15.8117 53.9104 15.6647C54.6866 15.3938 56.4672 15.3007 56.6425 15.3007H59.9694C64.2896 15.3007 66.7993 17.3804 66.7993 21.5398V27.7257ZM60.9037 20.3932C60.9037 19.8339 60.6119 19.5672 59.9985 19.5672H59.5903V29.699H59.9985C60.6119 29.699 60.9037 29.4323 60.9037 28.8723V20.3932ZM57.3209 10.4525H54.7254C53.5224 10.4525 52.5731 9.56702 52.5731 8.47502V2.91142C52.5731 1.58282 53.4119 0.903817 54.5672 0.903817H57.3687C60.6925 0.903817 62.7657 2.73362 62.7657 5.62672C62.7657 8.54852 60.6291 10.4525 57.3209 10.4525ZM57.2418 3.95862H56.403V7.39772H57.1948C58.2075 7.39772 58.9672 6.74812 58.9672 5.62672C58.9672 4.53472 58.2709 3.95862 57.2418 3.95862ZM49.0201 33.5616C48.0761 34.0558 46.8806 34.3379 45.4261 34.3379C40.7858 34.3379 38.8597 31.9649 38.8597 28.4992V20.8202C38.8597 16.9009 41.0485 14.9276 45.3679 14.9276C49.7754 14.9276 51.7306 17.0605 51.7306 19.9403V21.0918C51.7306 22.9041 50.5925 23.0329 48.7828 23.0329C46.944 23.0329 45.9813 23.0378 45.9813 21.0918V19.9403C45.9813 19.4867 45.8351 19.1934 45.3978 19.1934C44.9597 19.1934 44.7552 19.3803 44.7552 19.9137V29.2986C44.7552 29.7522 44.9306 30.0721 45.4851 30.0721C46.0104 30.0721 46.2149 29.7522 46.2149 29.272V27.179C46.2112 26.1829 45.2955 26.0569 45.2955 25.4472C45.2955 24.4602 46.244 23.833 47.9948 23.833H49.1336C50.8261 23.8596 51.7306 24.5687 51.7306 26.3607V28.8457C51.7306 28.8807 51.7306 28.9157 51.7299 28.95C51.7418 30.7119 51.7993 32.4423 51.8918 32.8819C51.9522 33.1668 51.9381 33.3817 51.5187 33.5287C50.8433 33.7646 49.8 33.6673 49.0201 33.5616ZM44.553 10.6002C41.2769 10.6002 39.6306 9.10922 39.6306 6.12862V2.49772C39.6306 1.37632 40.2791 0.830317 41.3403 0.830317H41.8149C42.9231 0.830317 43.5082 1.37632 43.5082 2.49772V6.15802C43.5082 7.05822 43.8567 7.48592 44.5687 7.48592C45.2813 7.48592 45.5978 7.08762 45.5978 6.15802V2.49772C45.5978 1.37632 46.2463 0.830317 47.3067 0.830317H47.7813C48.8896 0.830317 49.4754 1.37632 49.4754 2.49772V6.12862C49.4754 9.10922 47.8291 10.6002 44.553 10.6002ZM35.5515 4.01812H34.3963V8.85862C34.3963 9.95062 33.7784 10.526 32.6709 10.526H32.1164C31.056 10.526 30.5179 9.95062 30.5179 8.85862V4.01812H29.2993C28.1284 4.01812 27.5112 3.47212 27.5112 2.43892V2.39482C27.5112 1.40572 28.1284 0.903817 29.2993 0.903817H35.5515C36.7545 0.903817 37.3396 1.40572 37.3396 2.39482V2.43892C37.3396 3.47212 36.7545 4.01812 35.5515 4.01812ZM29.3552 16.5005L31.2813 21.9668V17.1515C31.2813 15.3896 32.2157 15.034 34.0836 15.034C34.1105 15.034 34.1373 15.0347 34.1634 15.0347C34.644 15.0319 35.8007 15.027 36.7896 15.3721C37.2097 15.5191 37.2231 15.734 37.1627 16.0196C37.0731 16.4438 37.0164 17.0913 37.0022 18.5151V31.9355C37.0022 33.6351 35.9224 34.2315 34.1418 34.2315C32.6828 34.2315 31.7776 34.0593 31.3985 32.8987L29.3843 26.5525V32.0853C29.3843 33.7317 28.3918 34.2315 26.5239 34.2315C24.656 34.2315 23.6634 33.7317 23.6634 32.0853V17.2936C23.6634 15.5093 24.656 15.034 26.5239 15.034C28.1873 15.034 28.9463 15.3679 29.3552 16.5005ZM21.8418 4.34292C23.9784 4.77062 25.4507 5.59732 25.4507 7.30882C25.4507 9.53762 23.8679 10.6737 20.4806 10.6737C18.8664 10.6737 17.806 10.4525 17.1724 10.0983C16.5239 9.72942 16.2866 9.22752 16.2866 8.68152C16.2866 7.86952 17.347 6.92522 17.4731 7.01412C18.1701 7.47122 19.5306 7.94372 20.4806 7.94372C21.256 7.94372 21.541 7.82542 21.541 7.53002C21.541 7.16112 20.9082 7.13172 20.0373 6.96932C18.2806 6.64452 16.5082 5.98092 16.5082 3.97332C16.5082 1.86352 18.091 0.682617 21.1769 0.682617C22.6328 0.682617 23.6306 0.889117 24.2791 1.22862C24.9284 1.56812 25.2134 2.02592 25.2134 2.55722C25.2134 3.51622 23.9948 4.38702 23.9149 4.32822C23.1716 3.79692 22.0948 3.41262 21.2246 3.41262C20.4649 3.41262 20.1955 3.53092 20.1955 3.82632C20.1955 4.15042 20.9239 4.16582 21.8418 4.34292ZM18.7396 15.034C18.7724 15.034 18.8045 15.0347 18.8366 15.0347C19.3067 15.0319 20.4784 15.0228 21.4784 15.3721C21.8978 15.5191 21.9119 15.734 21.8515 16.0196C21.747 16.5131 21.6873 17.3069 21.6873 19.2739V32.114C21.6873 33.7604 20.6948 34.2315 18.7396 34.2315C16.7836 34.2315 15.791 33.7604 15.791 32.114V17.1515C15.791 15.5051 16.7836 15.034 18.7396 15.034ZM14.5313 32.7608C14.5313 33.6512 12.2858 34.165 10.6821 34.2315C10.2634 34.249 8.50746 34.4751 8.0403 32.7958L5.89552 25.7531V32.3744C5.89552 34.0208 4.72313 34.1979 2.94776 34.2315C0.992537 34.2686 0 33.7604 0 32.114V17.1515C0 15.5051 0.991791 15.034 2.94776 15.034C6.81194 15.034 5.89552 15.5051 5.89552 17.1515V23.2464L7.73806 17.1543C8.14702 15.7144 8.42612 15.3777 10.3313 15.0872C11.8858 14.8499 13.5075 15.2048 13.5075 16.0175C13.5075 16.3906 13.9418 16.6944 13.8254 17.0675L11.3246 24.526L13.9701 31.3447C14.2716 32.2078 14.5313 32.3723 14.5313 32.7608ZM75.1963 14.9276C79.5157 14.9276 81.7343 17.3272 81.7343 20.6333V28.6322C81.7343 31.9383 79.5157 34.3379 75.1963 34.3379C70.8761 34.3379 68.6582 31.9383 68.6582 28.6322V20.6333C68.6582 17.3272 70.8761 14.9276 75.1963 14.9276ZM74.5537 29.4323C74.5537 29.832 74.7873 30.0721 75.1963 30.0721C75.6045 30.0721 75.8381 29.832 75.8381 29.4323V19.8339C75.8381 19.4335 75.6045 19.1934 75.1963 19.1934C74.7873 19.1934 74.5537 19.4335 74.5537 19.8339V29.4323Z" fill="#FF4347"/>
</svg>
