<svg xmlns="http://www.w3.org/2000/svg" viewBox="0 0 509.27 509.27"><defs><style>.cls-1{fill:#fff;}.cls-1,.cls-2{fill-rule:evenodd;}.cls-2{fill:#231815;}</style></defs><g id="레이어_2" data-name="레이어 2"><g id="레이어_1-2" data-name="레이어 1"><polygon class="cls-1" points="0 0 509.27 0 509.27 509.27 0 509.27 0 0 0 0"/><path class="cls-2" d="M256.16,174.71a15,15,0,0,1,9.11,3.64A12.46,12.46,0,0,1,268,191.48c-6.38,13.13-21.55,21.9-31.91,24.8-6.2,1.46-14,1.46-19.7-.73-2.73,1.64-5,6.95-8.38,4.74-4.84-3.78-.65-9.69-3.45-13.89-.57-.86-2-.92-2.75-2.34-3.83-8.38.91-16.41,6.2-22.79,8.81-9.83,34.1-20.79,48.14-6.56Zm-29.36,6.56c-4.93.91-10.49,3.06-13.5,6.57s-4.92,6.92-3.1,10.57c6.39-4.74,9.49-11.3,16.6-15.32,0-.73,1.09-1.27,0-1.82Zm29.72,1.82c-12.58-1.09-22.06,8.39-31,17.51-.54,1.46-3.83,3.1-1.28,4.74,12,1.09,23.53-2.37,32.28-10.39,2.55-2.37,4.38-5.47,3.1-8.76a6.44,6.44,0,0,0-3.1-3.1Z"/><path class="cls-2" d="M365.57,237.43c5.83,14.23,10.75,36.66,0,50.33-2.92,3.28-8,6.31-11.31,3.83-12-9.66-17.14-23.52-24.62-35.92-1.09-.55-1.09.91-1.64,1.46-2.73,12.58,2.37,29-6.2,38.84a6.56,6.56,0,0,1-7.47-4.38c-4.2-12.95.18-26.44,1.27-39.39,2.55-6.56,3.65-14.22,9.3-19.14,9.12,3.64,13.5,13.86,18.78,21.33,3.83,5.66,6.93,12,11.31,17.14,3.83-1.64,1.94-6.64,1.82-9.66-1.46-11.85-4.74-22.79-7.84-34.1-.18-2.92-1.82-7.84,1.28-9.66,8.2,3.64,11.67,12.21,15.32,19.32Z"/><path class="cls-2" d="M310.5,233.06c0,2.73-2.19,6.15-4,6.56-17.5,2.74-37,1.1-53.42,6.57-.55,2,1.82,2.37,3.1,2.91,14,2.19,28.81,2.74,42.48,6.2,7.24,1.84,9.85,10.4,10.4,17.51.33,5.61-1.83,12.4-7.3,16.23-13.49,8.57-34.1,8.2-47.77.36-5.23-2.93-10.21-7.66-10.58-13.49,0-4.64,2-8.28,5.29-10,13.13-5.29,29.36-2.37,40.66,4.38.73,3.64-3.22,3.45-5.1,4.74-12.58,7.29-22.07-8.21-33.74-2.56-1.64,1.1-2.82,4.15-.91,5.11,14.41,6.38,30.45,1.82,44.68-2.19,1.64-.54,3.64-2.19,3.83-3.83-.55-5.83-7.12-7.11-11.31-8.75-12.4-3.1-26.08-3.1-39.39-4.38-2.55-.54-5.8-2.32-6.56-4.37-1.46-4.38-1.46-10.4,1.82-14,17-15,42.67-13.68,64.19-9.67,1.46.55,3.1,1.1,3.65,2.74Z"/><path class="cls-2" d="M230.81,240A446.17,446.17,0,0,1,233,292.14c-.37,2.37-3.1,2.92-4.93,3.83-2.91.54-6.68-.08-7.84-1.64-4.19-6.75-2.73-15.87-3.1-24.07.55-12.95.37-27,4-39,.69-1.74,2.73-3.28,4.37-2.18,4.38,2.18,5.11,6.56,5.29,10.94Z"/><path class="cls-2" d="M433.4,237.43c.88,1.48,1.79,3.76,0,4.74-8.21,3.65-19.33,2-28.81,3.11-2.55,2.18-4.56,5.83-3.65,9.11.91.55,1.73,1.38,2.74,1.28,5.83.36,14.58-2.74,18.41,2.73,1,1.63-.12,7.71-2.73,7.84-7.11.92-18.81-.89-22.25.92-4.37,2.91-4,8.57-5.65,13.13,3.1,2,6.35-.05,10-.55,6.75-1.1,14.22-3.1,21-1.64,1.28,2.37,3.1,4.92,1.82,7.84-11.49,9.12-26.32,18.46-42.12,11.85-5.93-2.66-8.57-11.67-6.56-19.33,1.27-5.47,6.92-10.76,3.46-16.59a4.34,4.34,0,0,1,3.1-5.29c6,0,4.74-7.48,7.84-10.94-3.46-3.83-12.22-3.65-11.3-11.31,4.19-2.18,9.29-1.45,14-2.18,10.75-2.19,22.79-3.47,33.73-2.19,2.19.44,5.11,4.74,6.93,7.47Z"/><path class="cls-2" d="M173,195.86c16.82,13.75,38.65,37.2,35.92,64.19-3.28,21.33-25.9,37.38-45,42.48-18.6,5.47-41.94,4.93-60.91.55-1.27,3.46-2.55,7.66-6.56,9.12a8.56,8.56,0,0,1-7.84-1.28c-5.66-5.29-1.1-15.5-9.3-18.78-16.05-6.75-33.37-20.06-41.58-36.47-1.09-3.28.18-6.57,2.19-9.12,12.58-10,28.45-14,44.31-17.14.91.37.55-.91,1.28-1.28.91-10.94,1.27-22.06,4.74-31.91a2.85,2.85,0,0,1,4-.91c10,7.66,5.29,22.07,9.66,32.46,19.15.91,38.3,1.82,53.43,12.58,5.11,4.2,6.35,12.2,4.74,16.78s-6.92,7.84-11.85,8.2c-3.28,0-9.48.32-9.12-2.19s11.16-6.61,7.84-10c-4.76-4.92-28.59-7.84-43.36-9.67-1.83-.36-3.5.18-3.5,2.19-.36,13.86-1.46,29.18.91,42.49a3.3,3.3,0,0,0,2.19,2.18c26.08,4.2,53.61,1.83,74-13.12,9.49-7.66,12.59-18.42,11-30.27-8.21-33-42.67-52.89-70.94-65.65a199.57,199.57,0,0,0-90.63-16.59c-5.19.38-13.43,2.17-13.49,4s9.33,1.26,8.21,4.74-10.67,1.41-13.5.55S7.25,169.05,8,166.5c7.11-12.58,27-13.6,35.92-14,49.6-1.28,97.56,17.61,129.11,43.4ZM83.65,244.73c-12.58.18-25.89,1.46-37.56,5.83-2.37.92-5.29,3.47-3.47,6.57,4.75,6.38,11.52,11.62,17.88,15.31s14.77,8.39,22.42,9.49c1.83-11.86,1.83-23.53,1.65-35.74-.73-.37,0-1.1-.92-1.46Z"/><path class="cls-2" d="M460.57,228.13c-.55,15.87-15.32,25.72-15.32,41.58.55.55.91,1.28,1.64.91,11.86-12.95,23.53-31.36,40.85-36.83,4.56-.37,8.69,3.6,10.39,6.56,6,12,4.56,29-3.82,39.94C485.64,291,470.6,301.8,453.46,300a233.63,233.63,0,0,0-14.77,55.07c-1.46,3.83-4.93.36-7.11-.37-14.77-11.67-2.65-42.56-1.64-46.49s4.95-13.21,7.84-21c-6.93-12.4-2.56-27.36,3.1-38.84a77.43,77.43,0,0,1,17.5-21.16,2.46,2.46,0,0,1,2.19.91Zm29.36,19.7c-2.19-.37-3.1,2.55-4.92,3.1-8.39,9.48-16.78,19-21,30.27,5.66.73,10.4-2.92,15.32-4.93,8.39-5.28,13.68-14,13.13-24.07-.36-1.64-1.82-2.91-2.55-4.37Z"/></g></g></svg>