<?xml version="1.0" encoding="UTF-8"?>
<svg width="600" height="560" version="1.1" xmlns="http://www.w3.org/2000/svg">
 <g fill="#fff">
  <path d="m444.34 495.61c-1.5906 0.80372-3.3467 1.2799-5.1274 1.3744-1.5834 0.0841-3.1821-0.12353-4.6932-0.60425 1.4348-0.66197 2.8779-1.3004 4.3307-1.9218 1.3539-0.57941 2.7238-1.1445 3.9721-1.9256 1.5601-0.97629 2.9318-2.314 3.7304-3.9721 0.57356-1.1912 0.83483-2.5778 0.4793-3.8512-0.22283-0.79777-0.67364-1.5164-1.2308-2.1294-0.55675-0.613-1.2161-1.1272-1.8954-1.6009-2.8892-2.0149-6.207-3.371-9.6281-4.21-3.2258-0.79107-6.5471-1.1318-9.8659-1.2648-3.0588-0.12275-6.1401-0.0731-9.1561 0.453-3.016 0.52387-5.9756 1.5346-8.533 3.2169-0.90102 0.59255-1.756 1.2746-2.4278 2.1182-0.67219 0.8436-1.1543 1.8626-1.2422 2.9375-0.0978 1.1992 0.3025 2.404 0.95152 3.417 0.6488 1.013 1.5345 1.8496 2.4768 2.5977 1.4344 1.1386 3.0163 2.0919 4.6932 2.828l3.6096 2.828c-1.4096 0.36972-2.9028 0.41136-4.3307 0.12063-1.9452-0.39601-3.7127-1.3866-5.4144-2.4089-0.42744-0.25719-0.8295-0.5582-1.2498-0.83439-0.56406 0.21116-1.1163 0.45373-1.6424 0.74753-1.9158 1.069-3.5274 2.6785-4.595 4.5951-1.0499 1.8845-1.5681 4.0541-1.5292 6.211 2e-3 0.12779 0.0292 0.25354 0.0365 0.3814 1.179 1.8187 2.4447 3.5835 3.8097 5.2671 4.7953 5.9144 10.704 10.923 17.327 14.68 5.6647 3.2134 11.799 5.4951 17.927 7.6987 8.6835 3.1222 17.718 6.157 26.921 5.4823 5.5095-0.40405 10.869-2.1411 15.798-4.6366 3.1862-1.6133 6.2277-3.5617 8.8163-6.0223s4.7178-5.4553 5.8939-8.8276c1.3082-3.751 1.394-7.8876 0.44934-11.746-0.73386-2.9974-2.0964-5.8668-4.1495-8.1706-2.0531-2.3039-4.8184-4.0173-7.8497-4.5951-2.991-0.5699-6.0659-0.0365-9.0768 0.4194-7.5365 1.1356-15.159 1.7739-22.779 1.6085-1.6027-0.0365-3.2031-0.15426-4.8027-0.26084z"/>
  <path d="m304.59 462.61c-0.86984-0.0292-1.7405-0.0439-2.609-0.10226-3.9161-0.26156-7.823-0.79757-11.61-1.8275-5.6779-1.544-11.006-4.1665-16.613-5.9505-5.1196-1.6288-10.724-2.5354-15.824-0.84572-3.4567 1.1452-6.4954 3.4589-8.6275 6.4111-2.132 2.9522-3.3656 6.5191-3.6549 10.149-0.25368 3.1823 0.24235 6.5126 1.9634 9.2014 1.9393 3.0299 5.2037 4.944 8.4764 6.4376 3.345 1.5266 6.8252 2.7339 10.349 3.7833 6.7739 2.0172 13.719 3.4545 20.729 4.3609 8.9106 1.1523 17.913 1.45 26.898 1.4159 9.8925-0.0365 19.786-0.47637 29.632-1.4348 1.91-0.18558 3.8272-0.39235 5.6824-0.88349 1.8552-0.49101 3.6593-1.2819 5.1236-2.5222 1.678-1.4212 2.8485-3.3995 3.4019-5.5277 0.55383-2.129 0.50341-4.3802 0.17031-6.5546-0.19293-1.2558-0.48076-2.508-1.0194-3.6586-0.56626-1.2099-1.4241-2.2687-2.4542-3.1187-2.2954 1.5772-5.0272 2.5545-7.8006 2.4126-2.087-0.10671-4.1365-0.82307-5.8334-2.0427 2.9755 0.12643 5.9757-0.41427 8.7218-1.5669 1.0262-0.43108 2.0241-0.94823 2.8846-1.6538 0.86063-0.70581 1.5835-1.6069 1.9596-2.6543 0.28641-0.79817 0.36459-1.6659 0.25645-2.5071-0.10748-0.8412-0.39746-1.6586-0.82687-2.3901-1.0477-1.786-2.8613-3.0182-4.7913-3.7681-1.9301-0.74988-3.9982-1.0666-6.0412-1.4045-3.4367-0.56845-6.8675-1.21-10.338-1.5103-3.751-0.3244-7.5547-0.24623-11.244 0.50633-3.6893 0.75183-7.263 2.192-10.289 4.4327-0.56553 0.41864-1.1173 0.87025-1.5518 1.4234-0.43473 0.5531-0.75117 1.2194-0.78915 1.9218-0.0439 0.852 0.32075 1.6831 0.83066 2.3674 0.50925 0.68461 1.158 1.2495 1.7821 1.8312 1.0695 0.99682 2.0751 2.0628 3.0055 3.1905-2.4075 0.42011-4.975-0.16741-6.9624-1.5896-1.2544-0.89737-2.2933-2.142-2.7676-3.6095-0.28276-0.87545-0.32148-1.8072-0.2192-2.7223z"/>
  <path d="m410.27 523.51-0.29811 4.9273c0.19875-0.0155 0.39895 8e-3 0.59621-0.0218 1.0629-0.20748 2.0593-0.74772 2.8091-1.5292 0.26303-0.274 0.49245-0.57867 0.69118-0.90241-1.2897-0.78947-2.5597-1.6093-3.7984-2.4769z"/>
  <path d="m417.48 527.94c-0.0218 0.0218-0.0365 0.0439-0.0584 0.0584 3.1968 2.751 6.5158 5.3589 10.002 7.7327 5.094 3.4687 10.543 6.5453 16.485 8.1819 4.9161 1.3541 10.066 1.6943 15.163 1.5669 6.6764-0.16664 13.435-1.1534 19.49-3.972 4.7833-2.2268 8.9839-5.5279 12.936-9.024 2.3429-2.0728 4.6326-4.2453 6.4375-6.8 0.48004-0.67949 0.93465-1.4025 1.1252-2.2126 0.0949-0.40478 0.12353-0.82834 0.0512-1.2384-0.0731-0.40989-0.24186-0.80605-0.51364-1.1214-0.23821-0.27692-0.55165-0.48588-0.8835-0.63784-0.33244-0.15195-0.68462-0.24917-1.0421-0.32443-0.17379-0.0365-0.3529-0.0365-0.52826-0.0657-0.051 0.12063-0.0847 0.24696-0.1359 0.36604-1.4836 3.4594-3.719 6.5741-6.396 9.2203-4.8925 4.8362-11.205 8.0816-17.81 10.006-3.7695 1.0981-7.6666 1.7886-11.591 1.8916-6.4976 0.17089-12.943-1.2647-19.132-3.2508-6.4783-2.079-12.753-4.7666-18.833-7.8195-1.6113-0.80905-3.1881-1.6842-4.7649-2.56z"/>
  <path d="m307.79 498.46c-4.3449-0.19215-8.6879-0.43546-13.026-0.74759-8.9469-0.64442-17.924-1.4261-26.653-3.4925-6.5734-1.5561-13.045-3.8712-18.652-7.6382-0.83451-0.5604-1.6364-1.1758-2.4089-1.8237-0.88605 0.17089-1.7317 0.56187-2.4051 1.1629-0.60762 0.54287-1.0834 1.2515-1.2611 2.0465-0.19697 0.88136-0.0135 1.8178 0.38512 2.6279 0.39924 0.81014 1.004 1.5064 1.6613 2.1257 1.8962 1.7864 4.2588 2.995 6.6754 3.9682 8.3701 3.3707 17.562 4.1059 26.585 4.1344 6.4009 0.0219 12.799-0.29517 19.199-0.22285 1.4432 0.0155 2.8903 0.0512 4.3269-0.087 1.4366-0.1388 2.8727-0.45957 4.1571-1.1176 0.50415-0.25864 0.97366-0.58233 1.4158-0.93639z"/>
  <path d="m395.7 509.11c-0.72188 0.6605-1.3028 1.4756-1.6802 2.3787-0.77317 1.8501-0.66416 4.0475 0.29079 5.8108 1.3788 1.9731 2.9735 3.7933 4.746 5.4219 1.8469 1.6968 3.8862 3.1836 6.0676 4.4214 0.13668 0.0936 0.28787 0.16432 0.43034 0.24915l0.42671-7.1512c-3.4279-2.865-6.5473-6.0961-9.2467-9.6545-0.36312-0.47929-0.68681-0.98599-1.0345-1.4763z"/>
  <path d="m353.92 494.54c-1.0468 0.43254-2.1194 0.81239-3.2055 1.1176-4.1381 1.1628-8.4165 1.7404-12.694 2.1634-5.9012 0.58378-11.831 0.86706-17.761 0.90994 0.14325 0.58745 0.41136 1.1459 0.79289 1.616 0.45959 0.56698 1.0617 1.0035 1.6839 1.3857 2.6977 1.6569 5.8691 2.4328 9.0278 2.6468 4.6943 0.31783 9.3738-0.55457 14.015-1.3252 1.0886-0.18056 2.1854-0.35729 3.2395-0.68316 1.0542-0.32585 2.0747-0.80765 2.8998-1.5405 0.75146-0.66781 1.3215-1.5318 1.6839-2.4693 0.46835-1.2105 0.55383-2.5458 0.31712-3.821z"/>
 </g>
 <path d="m234.84 245.45c4.3267 1.5591 8.8064 2.7588 13.385 3.1906 4.5787 0.43181 9.2682 0.0796 13.624-1.3941 5.4959-1.8588 10.29-5.4399 14.263-9.6671 1.2525-1.3325 2.4409-2.7448 3.3237-4.3464 1.0077-1.8283 1.5927-3.8582 2.0505-5.895 1.2566-5.5908 1.6092-11.378 1.1106-17.087-0.30394-3.4824-0.92981-6.9602-2.198-10.218-1.1634-2.9882-2.8575-5.7582-4.893-8.2358-3.9884-4.8552-9.2937-8.5821-15.137-10.894-4.8447-1.9168-10.069-2.8776-15.278-2.7753-4.9002 0.0964-9.8344 1.1529-14.132 3.5088-2.4032 1.3173-4.5868 3.0289-6.4637 5.0259-3.1828 3.3867-5.4566 7.5643-6.9449 11.967-1.4882 4.403-2.2121 9.0351-2.5322 13.672-0.31381 4.5452-0.24068 9.1542 0.77016 13.596 1.0108 4.4424 3.0032 8.729 6.161 12.012 3.4813 3.6202 8.1642 5.8363 12.889 7.5388z" stroke-width="7.3"/>
 <g fill="#fff">
  <path d="m217.42 374.46c-2.4645 10.236-5.6892 20.286-9.5676 30.073-0.36314 0.91644-0.76193 1.8181-1.1365 2.7298l-0.13223 0.4077c1.3476 2.6318 2.8569 5.1795 4.5157 7.627 1.5733 2.3212 3.2831 4.5518 5.1274 6.6641 1.5531 1.7788 3.2496 3.5091 5.3804 4.527 2.2855 1.0918 4.9243 1.2795 7.4344 0.94012 2.5224-0.3412 5.0585-1.2496 6.834-3.0734 1.0987-1.1286 1.8569-2.5602 2.3296-4.0627 0.47271-1.5025 0.91721-2.7045 0.99307-4.2778 0.12488-2.5892-0.32677-5.5916-1.1026-8.065-0.64181-2.0464-1.6617-3.9494-2.7336-5.807-2.4327-4.2157-5.1611-8.2552-7.861-12.305-3.4001-5.1-6.7605-10.226-10.081-15.378z" stroke="#000" stroke-width="2.9"/>
  <path d="m195.43 33.09c-0.74788 0.0073-1.4962 0.07526-2.2352 0.20385-3.0987 0.53921-5.9558 2.1623-8.2159 4.3496-2.1016 2.0338-3.713 4.5477-4.8329 7.2494-2.0034 4.8331-2.431 10.146-3.0205 15.344-0.47507 4.1894-1.0684 8.3648-1.7821 12.52l0.0263 0.03654c1.4327 0.91403 2.8147 1.9096 4.1193 2.9941 7.4422 6.1869 12.553 14.688 17.085 23.239 0.47944 0.90476 0.90845 1.8349 1.3781 2.745l0.16992 0.21554c1.7629-5.6289 3.4236-11.29 4.9802-16.979 1.6863-6.1636 3.2512-12.361 5.0746-18.486 1.4282-4.7971 3.0238-9.5844 3.5756-14.559 0.27722-2.4991 0.28329-5.0609-0.36247-7.491-0.62089-2.3365-1.8481-4.5125-3.5265-6.2526-1.631-1.6909-3.6684-2.961-5.8486-3.8361-2.0885-0.83834-4.3411-1.3198-6.5848-1.2913z" stroke="#000" stroke-width="2.9"/>
  <path d="m193.21 433.73c-3.3637 6.0584-7.6418 11.608-12.644 16.404-4.7011 4.5062-10.078 8.3666-16.062 10.935-3.6682 1.575-7.6366 2.6668-11.619 2.3922-4.7967-0.33098-9.2353-2.602-13.328-5.126-5.5328-3.4124-10.76-7.4065-15.037-12.303-4.794-5.4889-8.2825-11.974-11.619-18.454-4.8597-9.437-9.4983-19.021-12.986-29.047-4.6099-13.253-7.1566-27.13-9.2265-41.009-2.7372-18.349-4.6721-36.826-5.4678-55.361-0.83103-19.357-0.41888-38.752 0.68344-58.095 1.3112-23.008 3.6015-45.978 7.5183-68.689 3.1836-18.46 7.4569-36.788 14.011-54.336 4.6514-12.452 10.489-24.556 18.454-35.199 4.846-6.4754 10.678-12.533 18.112-15.72 5.3433-2.2903 11.348-2.977 17.087-2.0505 6.4145 1.0355 12.432 4.048 17.429 8.2014 7.4423 6.1869 12.555 14.687 17.087 23.238 7.5884 14.321 13.964 29.297 18.796 44.768 4.7284 15.14 7.9713 30.734 9.9104 46.476 1.6342 13.27 2.3436 26.633 3.0756 39.983 1.1609 21.172 2.3814 42.403 1.0252 63.563-0.96189 15.007-3.2153 29.899-5.4678 44.768-1.8212 12.022-3.6468 24.061-6.493 35.882-2.4644 10.236-5.6902 20.285-9.5685 30.073-3.9071 9.86-8.4776 19.458-13.67 28.706zm13.952-239.01c-0.7598-5.2535-1.6252-10.492-2.6166-15.707-2.3058-12.129-5.335-24.246-10.874-35.28-2.9322-5.8412-6.5465-11.331-10.632-16.432-3.326-4.1527-7.1409-8.1766-12.082-10.149-4.3658-1.7427-9.3924-1.7028-13.774 0-5.5602 2.1609-9.8271 6.7419-13.29 11.599-3.7536 5.2642-6.7993 11.006-9.4238 16.915-3.1365 7.0604-5.6822 14.37-7.9742 21.748-2.8878 9.2952-5.3799 18.72-7.2493 28.272-1.9849 10.143-3.2643 20.41-4.3496 30.689-1.5039 14.242-2.6387 28.53-2.9584 42.847-0.4842 21.685 0.90387 43.385 3.4417 64.926 1.4925 12.669 3.4018 25.372 7.4913 37.455 3.5672 10.541 8.7633 20.494 14.982 29.722 1.9806 2.939 4.0786 5.8226 6.6022 8.311s5.5015 4.5813 8.8627 5.7043c4.8561 1.6225 10.298 1.1011 14.982-0.96657 5.3357-2.3554 9.6532-6.5559 13.29-11.116 4.3602-5.4664 7.9062-11.551 10.874-17.882 4.093-8.7326 7.0995-17.946 9.4238-27.305 3.9644-15.962 5.9582-32.34 7.7324-48.691 1.5907-14.657 3.0137-29.357 3.1414-44.1 0.12698-14.665-1.0286-29.312-2.4636-43.907-0.8753-8.9036-1.8552-17.798-3.1358-26.653z" stroke-width="7.3"/>
  <path d="m128.54 67.691c-3.212 0.61301-6.3708 1.4901-9.4393 2.6203-7.4993 2.7623-14.449 7.0602-20.166 12.645-4.3618 4.2609-7.9758 9.2268-11.274 14.355-4.1123 6.3937-7.7658 13.08-10.938 19.989-5.3365 11.621-9.305 23.834-12.471 36.224-2.8799 11.27-5.1036 22.699-7.0077 34.174-3.1459 18.958-5.43 38.066-6.6641 57.243-1.9811 30.786-1.2487 61.768 2.6883 92.365 2.1835 16.97 5.3566 33.837 10.149 50.262 4.2791 14.665 9.8657 28.998 17.398 42.288 4.6109 8.1352 10.003 15.933 16.915 22.231 5.2946 4.8243 11.441 8.7151 18.067 11.437h40.257v-0.0657c-0.73533 0.0365-1.4706 0.0775-2.2088 0.0292-4.7967-0.33098-9.2359-2.6034-13.328-5.1274-5.5329-3.4125-10.762-7.4052-15.039-12.301-4.794-5.489-8.2814-11.976-11.618-18.456-4.8597-9.4374-9.4973-19.021-12.985-29.046-4.6099-13.253-7.1575-27.129-9.2278-41.008-2.7372-18.349-4.6715-36.828-5.4672-55.363-0.83105-19.357-0.41896-38.754 0.68337-58.097 1.3112-23.008 3.6007-45.977 7.5174-68.688 3.1836-18.459 7.4571-36.788 14.012-54.336 4.6514-12.453 10.487-24.558 18.452-35.201 4.8461-6.4755 10.682-12.532 18.116-15.718 4.0075-1.7181 8.3864-2.5335 12.747-2.4429 0.10497 0.0021 0.20838 0.02923 0.31339 0.02923v-0.03654z"/>
  <path d="m164.07 115.88c-2.35 5e-3 -4.7037 0.43985-6.8944 1.2913-3.6567 1.4211-6.7091 3.9368-9.3864 6.8415 1.9659 1.2785 3.8894 2.6205 5.7617 4.0325 3.6949 2.7862 7.2161 5.8446 10.149 9.4241 6.7006 8.1776 9.9651 18.573 12.807 28.756 2.4793 8.8832 4.7549 17.832 6.4678 26.894 2.237 11.835 3.5106 23.833 4.5195 35.835 1.1296 13.437 1.9295 26.912 1.9332 40.396 4e-3 14.526-0.91682 29.034-2.0049 43.519-1.2854 17.111-2.8328 34.347-7.7742 50.779-1.6902 5.6208-3.773 11.126-6.2828 16.432-1.6182 3.4212-3.4127 6.7572-5.3162 10.028-2.887 4.9612-6.1301 9.8882-10.753 13.29-2.0608 1.5165-4.3888 2.7089-6.8869 3.2622-1.7032 0.37701-3.4828 0.453-5.1954 0.12063-2.0465-0.39674-3.9665-1.3903-5.4899-2.8129 1.4494 2.0025 2.9651 3.9524 4.7234 5.6862 2.5236 2.4884 5.5001 4.5819 8.8616 5.7051 4.8561 1.6225 10.298 1.1011 14.982-0.96666 5.3358-2.3554 9.6535-6.5559 13.29-11.116 4.3602-5.4664 7.9065-11.55 10.874-17.882 4.093-8.7325 7.0995-17.946 9.4242-27.306 3.9645-15.962 5.9582-32.341 7.7326-48.692 1.5907-14.658 3.0138-29.357 3.1414-44.1 0.12701-14.665-1.0268-29.312-2.4617-43.908-0.87536-8.9035-1.8571-17.798-3.1376-26.653-0.75977-5.2535-1.6252-10.492-2.6166-15.707-2.3058-12.129-5.335-24.246-10.874-35.28-2.9322-5.8413-6.5466-11.33-10.632-16.432-3.3259-4.1527-7.141-8.1766-12.082-10.149-2.1829-0.87137-4.5293-1.2963-6.8793-1.2913z"/>
  <g stroke="#000" stroke-width="2.9">
   <path d="m177.22 235.73c2.5151-1.9878 5.2369-3.7141 8.1072-5.1419 2.3668-1.1773 4.8347-2.152 7.37-2.8998 1.0213-0.30103 2.0966-0.56771 3.1414-0.3624 0.83636 0.16439 1.584 0.61812 2.2956 1.0873 2.1802 1.4373 4.2476 3.1319 5.6786 5.3162 1.2984 1.9819 2.0234 4.2994 2.356 6.6452 0.36277 2.5586 0.25755 5.2473-0.78529 7.6118-0.32126 0.72845-0.7283 1.4188-1.2082 2.054-1.2814 1.696-3.0448 2.9585-4.8329 4.108-3.0042 1.9311-6.1614 3.6223-9.4238 5.0745-2.3595 1.0502-4.7744 1.9759-7.2315 2.7718"/>
   <path d="m147.99 228.86c1.5962-10.324 3.1266-20.659 4.5912-31.003 1.8466-13.041 3.5902-26.107 6.1619-39.026 1.4921-7.4949 3.264-14.942 5.5578-22.231 0.4028-1.2801 0.83929-2.5881 1.6915-3.6247 1.0971-1.3345 2.7771-2.0739 4.4704-2.4164 1.389-0.2813 2.8264-0.32514 4.2288-0.12056 1.6858 0.2455 3.311 0.84857 4.7914 1.6915 1.1871 0.67584 2.2842 1.5052 3.2829 2.4371 1.2912 1.2048 2.4311 2.6004 3.1621 4.208 0.53622 1.1792 0.84433 2.4559 0.96656 3.7455 0.25332 2.6721-0.28166 5.3502-0.84578 7.9742-2.0284 9.4362-4.4701 18.777-6.766 28.152-2.2006 8.9847-4.268 18.004-6.6452 26.943-2.0806 7.8244-4.3977 15.585-6.9473 23.269"/>
   <path d="m174.39 305.43c2.3302 3.0019 4.5123 6.1189 6.5355 9.3361 3.0816 4.8995 5.7932 10.027 8.9708 14.866 2.3885 3.6366 5.0602 7.1474 6.6639 11.192 0.4823 1.2164 0.86406 2.474 1.1106 3.7591 0.43071 2.245 0.43232 4.6312-0.4272 6.7494-0.87677 2.1608-2.5683 3.8752-4.2717 5.4677-1.7409 1.6276-3.6147 3.237-5.895 3.93-1.6803 0.51072-3.5684 0.46907-5.126-0.34194-1.3332-0.69411-2.3319-1.8828-3.2465-3.0756-2.907-3.7915-5.3335-7.9274-7.6038-12.132-3.1959-5.9182-6.0963-11.991-8.8853-18.112-3.1822-6.9838-6.2208-14.033-9.1133-21.142"/>
  </g>
  <path d="m115.34 222.65c2.7784 4.0685 5.5376 8.148 8.2914 12.233 0.30695 0.45519 0.61842 0.90753 0.92506 1.3631 0.76099 1.1305 1.521 2.2617 2.2956 3.383 0.66387 0.96102 1.3501 1.9083 2.0351 2.8544 2.5385-0.0789 5.43-0.0365 8.8616 0.1885 2.6814 0.1761 5.528 0.96657 8.3632 2.2315 0.3407-0.71676 0.63587-1.4535 0.82687-2.2239 0.3342-1.3479 0.43057-2.7645 0.18133-4.1306-0.2002-1.0968-0.61674-2.1425-1.0459-3.1716-3.0803-7.3872-6.9678-14.407-10.934-21.359-4.7048-8.2453-9.5363-16.417-14.484-24.519-0.46512 2.0722-1.0078 4.1265-1.4159 6.211-1.7441 8.9075-2.8993 17.917-3.9003 26.94z"/>
  <path d="m154.1 308.24h15.28a13.48 39.677 0 0 1-8.3216-8.7596c-0.96956 1.2497-1.9948 2.4541-3.1338 3.5529-1.3804 1.3317-2.9067 2.5144-4.5157 3.5983 0.22073 0.53995 0.4685 1.0689 0.69097 1.6084zm-8.0007-63.337c3.8771 1.7297 7.6945 4.4366 11.085 7.8044a13.48 39.677 0 0 1 12.196-23.821h-26.279c1.0394 2.1394 2.0443 4.2941 2.9602 6.4904 0.42911 1.0291 0.84568 2.0747 1.0459 3.1716 0.24928 1.3662 0.15292 2.7827-0.18113 4.1306-0.191 0.77054-0.48617 1.507-0.82687 2.2239zm-24.878-1.5556c2.1689-0.43473 4.5842-0.77266 7.6496-0.86837-0.68395-0.94472-1.3685-1.8911-2.0313-2.8507-0.77458-1.1213-1.5346-2.2525-2.2956-3.383-0.30664-0.45592-0.61813-0.90782-0.92505-1.363-0.68614 1.6026-1.2585 3.2576-1.7066 4.9424-0.30789 1.1576-0.49939 2.3404-0.69096 3.5227z"/>
  <path d="m142.68 354.47c2.6822-12.06 5.1664-24.162 7.7326-36.247 0.70734-3.3309 1.4425-6.6554 2.1824-9.9792h-1.8274c-5.6542 3.1107-12.379 4.8378-19.788 4.8442l-6.06 16.734c-2.5422 7.0187-4.9995 14.071-7.1134 21.231 1.2277 6.9719 2.7913 13.872 5.0594 20.574 2.7403 8.0973 6.4558 15.841 10.844 23.183z" stroke="#000" stroke-width="2.9"/>
  <path d="m182.87 268.56a13.48 39.677 0 0 1-13.48 39.677 13.48 39.677 0 0 1-13.48-39.677 13.48 39.677 0 0 1 13.48-39.677 13.48 39.677 0 0 1 13.48 39.677z" stroke="#000" stroke-width="2.9"/>
 </g>
 <path d="m177.7 269.59a7.0297 14.901 0 0 1-7.0297 14.901 7.0297 14.901 0 0 1-7.0297-14.901 7.0297 14.901 0 0 1 7.0297-14.901 7.0297 14.901 0 0 1 7.0297 14.901z"/>
 <g fill="none" stroke="#000" stroke-width="2.9">
  <path d="m207.16 194.74c1.2503 8.8583 2.2504 17.751 3.1358 26.653 1.4513 14.594 2.595 29.242 2.4636 43.907-0.1321 14.743-1.552 29.443-3.1414 44.1-1.7731 16.351-3.7679 32.729-7.7324 48.691-2.3248 9.3595-5.3312 18.574-9.4238 27.305-2.9675 6.3314-6.5138 12.415-10.874 17.882-3.637 4.5597-7.9545 8.7604-13.29 11.116-4.6839 2.0676-10.126 2.589-14.982 0.96656-3.3614-1.1231-6.3394-3.2159-8.8627-5.7043-2.5236-2.4885-4.6216-5.372-6.6022-8.311-6.2188-9.228-11.415-19.181-14.982-29.722-4.0892-12.083-5.9984-24.786-7.4913-37.455-2.5379-21.541-3.9261-43.241-3.4417-64.926 0.3198-14.317 1.4549-28.605 2.9584-42.847 1.085-10.278 2.3637-20.546 4.3496-30.689 1.8703-9.5524 4.3648-18.976 7.2493-28.272 2.2895-7.3787 4.8294-14.691 7.9742-21.748 2.6316-5.905 5.6923-11.636 9.4238-16.915 3.4469-4.8758 7.6936-9.5173 13.29-11.599 4.3894-1.6328 9.3471-1.5286 13.774 0 5.3806 1.858 9.9024 5.6968 13.449 10.149 3.9301 4.9331 6.7787 10.635 9.2652 16.432 4.8605 11.329 8.4484 23.193 10.874 35.28 1.0446 5.2047 1.8748 10.45 2.6166 15.707z"/>
  <path d="m194.17 433.73c-3.3637 6.0584-7.6418 11.608-12.644 16.404-4.7011 4.5062-10.078 8.3666-16.062 10.935-3.6682 1.575-7.6366 2.6668-11.619 2.3922-4.7967-0.33098-9.2353-2.602-13.328-5.126-5.5328-3.4124-10.76-7.4065-15.037-12.303-4.794-5.4889-8.2825-11.974-11.619-18.454-4.8597-9.437-9.4983-19.021-12.986-29.047-4.6099-13.253-7.1566-27.13-9.2265-41.009-2.7372-18.349-4.6721-36.826-5.4678-55.361-0.83103-19.357-0.41888-38.752 0.68344-58.095 1.3112-23.008 3.6015-45.978 7.5183-68.689 3.1836-18.46 7.4569-36.788 14.011-54.336 4.6514-12.452 10.489-24.556 18.454-35.199 4.846-6.4754 10.678-12.533 18.112-15.72 5.3433-2.2903 11.348-2.977 17.087-2.0505 6.4145 1.0355 12.432 4.048 17.429 8.2014 7.4423 6.1869 12.555 14.687 17.087 23.238 7.5884 14.321 13.964 29.297 18.796 44.768 4.7284 15.14 7.9713 30.734 9.9104 46.476 1.6342 13.27 2.3436 26.633 3.0756 39.983 1.1609 21.172 2.3814 42.403 1.0252 63.563-0.96189 15.007-3.2153 29.899-5.4678 44.768-1.8212 12.022-3.6468 24.061-6.493 35.882-2.4644 10.236-5.6902 20.285-9.5685 30.073-3.9071 9.86-8.4776 19.458-13.67 28.706z"/>
  <path d="m163.97 137.8c-0.0887-0.11033-0.17785-0.22065-0.26778-0.33025-2.933-3.5795-6.4542-6.6378-10.149-9.4241-1.8896-1.425-3.8293-2.7836-5.8142-4.0726"/>
  <path d="m187.55 229.63c-0.0193-0.2265-0.0381-0.453-0.057-0.6795-1.009-12.003-2.2834-23.999-4.5205-35.834-0.97827-5.1756-2.1394-10.314-3.4173-15.424"/>
  <path d="m186.51 324.09c0.33836-3.7392 0.63158-7.4822 0.91227-11.219 1.0881-14.485 2.0079-28.995 2.0039-43.52-8.9e-4 -3.278-0.0489-6.5554-0.13707-9.8318"/>
  <path d="m139.59 403.85c1.5432 1.4903 3.5248 2.5212 5.631 2.9293 1.7126 0.33171 3.4922 0.25645 5.1954-0.12063 2.4981-0.5531 4.8261-1.7456 6.8869-3.2622 4.6231-3.4022 7.8662-8.3292 10.753-13.29 1.9035-3.271 3.6979-6.6071 5.3162-10.028 2.5098-5.3058 4.5925-10.811 6.2828-16.432 0.40879-1.3594 0.79436-2.7244 1.1584-4.0942"/>
  <path d="m114.37 463.33c0.15368 0.0657 0.30774 0.12856 0.46198 0.19216h40.256"/>
  <path d="m50.89 324.95c0.41464 4.1267 0.88612 8.2479 1.4155 12.362 2.1835 16.97 5.3566 33.837 10.149 50.262 4.2791 14.665 9.8657 28.998 17.398 42.288 2.9059 5.127 6.1222 10.12 9.8336 14.688"/>
  <path d="m65.27 146.19c-0.69462 2.437-1.3533 4.8841-1.9804 7.3381-2.8799 11.27-5.1014 22.699-7.0056 34.174-3.1459 18.958-5.4298 38.063-6.6639 57.241-0.93036 14.457-1.2624 28.958-0.94513 43.442"/>
  <path d="m157.06 67.695h-29.479c-3.212 0.61301-6.3735 1.4904-9.4419 2.6207-7.4993 2.7623-14.446 7.0596-20.162 12.644-4.3618 4.2609-7.9789 9.2246-11.277 14.353-3.0947 4.8116-5.9282 9.7908-8.493 14.905"/>
  <path d="m175.33 73.237c0.71368-4.1554 1.3086-8.3308 1.7836-12.52 0.58956-5.1985 1.0171-10.511 3.0205-15.344 1.1199-2.7016 2.7313-5.2155 4.8329-7.2493 2.2602-2.1873 5.1173-3.8101 8.216-4.3496 2.9562-0.51437 6.0354-0.02923 8.8203 1.0874 2.1802 0.87516 4.2185 2.1461 5.8495 3.837 1.6784 1.74 2.9037 3.9134 3.5246 6.2499 0.64574 2.4301 0.63967 4.9919 0.36247 7.4913-0.55178 4.9747-2.1464 9.7635-3.5746 14.561-1.8234 6.1244-3.3882 12.322-5.0745 18.486-1.5566 5.6895-3.2169 11.35-4.9798 16.979"/>
 </g>
 <g fill="#fff" stroke="#000" stroke-width="2.9">
  <path d="m145.55 246.03c0.62777-1.029 1.0974-2.1542 1.3876-3.3241 0.33419-1.3479 0.42859-2.765 0.1793-4.1311-0.2002-1.0969-0.61593-2.1414-1.045-3.1705-3.0802-7.3875-6.9689-14.407-10.935-21.359-4.7272-8.2847-9.578-16.499-14.55-24.639"/>
  <path d="m129.57 243.48c-0.9266-1.2598-1.8345-2.5333-2.7234-3.8201-0.77455-1.1212-1.5346-2.2525-2.2956-3.383-3.0815-4.5779-6.1784-9.1454-9.2908-13.702"/>
  <path d="m143.09 228.86h26.304"/>
  <path d="m121 244.5c0.20311-1.5739 0.50998-3.1343 0.9179-4.6679 0.44912-1.6886 1.0208-3.3446 1.7091-4.9507"/>
  <path d="m169.39 308.21-20.738 2e-3"/>
 </g>
 <path d="m206.57 408.16c1.3476 2.6317 2.8565 5.1809 4.5153 7.6286 1.5733 2.3212 3.2818 4.5515 5.126 6.6639 1.5531 1.7788 3.2516 3.5101 5.3823 4.528 2.2855 1.0919 4.9227 1.2793 7.4328 0.93997 2.5224-0.34121 5.0592-1.2518 6.8347-3.0756 1.0987-1.1286 1.857-2.5591 2.3298-4.0615 0.47273-1.5025 0.91927-2.7056 0.99511-4.2789 0.12487-2.5892-0.32787-5.5895-1.1036-8.0631-0.64179-2.0464-1.662-3.952-2.7339-5.8095-2.4327-4.2157-5.16-8.2526-7.8602-12.303-3.4001-5.0999-6.7606-10.226-10.081-15.379" fill="none" stroke="#000" stroke-width="2.9"/>
 <g fill="#fff" stroke="#000" stroke-width="2.9">
  <path d="m78.834 478.01c-0.95378 3.1285-1.8858 6.3021-2.0504 9.5685-0.169 3.3527 0.49859 6.7627 2.0504 9.7394 1.3599 2.6086 3.4149 4.8825 5.9804 6.3222 2.6031 1.4608 5.6444 2.0236 8.6289 1.965 2.6269-0.0511 5.2733-0.58085 7.6038-1.7942 1.9308-1.0056 3.6194-2.4749 4.8732-4.2545 1.2551-1.7814 2.0616-3.838 2.7304-5.912 0.48149-1.4932 0.89781-3.0068 1.2815-4.5281 2.2339-8.8568 3.3577-17.95 4.6135-26.997 0.62163-4.4792 1.2783-8.9774 1.1961-13.499-0.0285-1.5502-0.14474-3.1072-0.51262-4.6134-0.34077-1.3952-0.89986-2.7433-1.7087-3.93-0.86858-1.2744-2.0195-2.3511-3.3319-3.1611-1.5753-0.97226-3.3753-1.5587-5.2115-1.7941-2.4209-0.31052-4.9279-7e-3 -7.1765 0.94011-2.2112 0.93347-4.1443 2.4788-5.6386 4.3571-1.3063 1.642-2.2808 3.5259-3.0756 5.4677-0.87706 2.1428-1.5432 4.3646-2.2213 6.5783-2.6143 8.5346-5.4278 17.007-8.0305 25.545z"/>
  <path d="m15.955 303.9c-2.2087 2.0783-3.7292 4.8761-4.2717 7.8602-0.81729 4.495 0.59693 9.2061 3.1757 12.978 1.5932 2.3299 3.658 4.3847 6.172 5.6679 2.8318 1.4455 6.1016 1.8487 9.2769 1.6879 3.9917-0.20239 7.9055-1.2559 11.619-2.7339 6.1396-2.4436 11.746-6.0241 17.429-9.3975 4.7122-2.7978 9.6313-5.577 12.986-9.9104 1.4798-1.9114 2.6256-4.118 3.0756-6.493 0.34326-1.8115 0.27501-3.6946-0.15015-5.4886-0.5216-2.201-1.5852-4.2764-3.0964-5.9596-2.0933-2.3316-4.9903-3.8563-8.0305-4.6135-2.4651-0.61374-5.0346-0.7481-7.568-0.56259-3.2475 0.23746-6.4355 0.99294-9.5685 1.8796-5.5573 1.5726-11 3.57-16.204 6.0742-5.2242 2.5138-10.203 5.5366-14.844 9.0117z"/>
  <path d="m39.123 108.45c-1.3731-2.4155-2.6595-4.9406-3.1293-7.679-0.3499-2.0396-0.2322-4.1475 0.24162-6.1619 0.62185-2.6437 1.8738-5.1607 3.7455-7.1286 1.5257-1.6042 3.428-2.8152 5.437-3.7454 2.3913-1.1072 4.9783-1.8384 7.6118-1.9332 2.1907-0.07891 4.4124 0.29152 6.4035 1.2083 1.9444 0.89547 3.6276 2.2887 5.0745 3.8663 1.8617 2.03 3.3547 4.3694 4.712 6.7661 3.8763 6.8446 6.7097 14.226 10.29 21.229 3.0064 5.88 6.5481 11.512 8.9204 17.676 0.80875 2.1015 1.4835 4.2887 1.5646 6.539 0.05991 1.668-0.22548 3.3854-1.0813 4.8182-0.73371 1.2283-1.8392 2.181-2.8998 3.1414-1.7585 1.5922-3.496 3.2996-5.6786 4.2288-1.8137 0.77207-3.8595 0.95385-5.7995 0.60424-1.8601-0.33536-3.6121-1.1426-5.1954-2.1748-2.6143-1.7044-4.7899-4.0149-6.6452-6.5244-1.3135-1.7766-2.4764-3.6587-3.6808-5.511-6.4252-9.8819-14.066-18.972-19.892-29.218z"/>
 </g>
 <path d="m113.45 245.76c-0.29086 6.5437-0.3805 14.203-0.4885 20.752-0.23138 14.038-0.26566 29.456 0.39171 43.477 5.3237 2.2494 11.673 3.0834 17.59 3.098 10.877 0 20.339-3.6271 26.997-10.05 6.658-6.4232 10.511-15.642 10.511-25.118 2e-5 -18.951-17.377-34.369-30.699-35.246-13.322-0.87677-18.964 0.79187-24.303 3.0867z"/>
 <path d="m399.63 349.25a14.469 14.469 0 0 1-14.47 14.47 14.469 14.469 0 0 1-14.47-14.47 14.469 14.469 0 0 1 14.47-14.47 14.469 14.469 0 0 1 14.47 14.47zm-4.031-0.36094a10.799 10.799 0 0 0-10.799-10.799 10.799 10.799 0 0 0-10.8 10.799 10.799 10.799 0 0 0 10.8 10.799 10.799 10.799 0 0 0 10.799-10.799z"/>
 <path d="m447.96 334.83a16.94 15.007 18.914 0 1-20.888 8.7091 16.94 15.007 18.914 0 1-11.164-19.687 16.94 15.007 18.914 0 1 20.888-8.709 16.94 15.007 18.914 0 1 11.164 19.686zm-4.2085-1.8939a12.671 11.225 18.904 0 0-8.3511-14.725 12.671 11.225 18.904 0 0-15.625 6.514 12.671 11.225 18.904 0 0 8.3511 14.725 12.671 11.225 18.904 0 0 15.625-6.5142z"/>
 <path d="m502.87 434.29c2.2238 7.7534 4.1906 15.58 5.8961 23.464 1.1525 5.327 2.1889 10.693 3.8505 15.883 2.0026 6.2561 4.9068 12.218 8.5433 17.688 3.3941 5.1057 7.423 9.7828 11.912 13.958 4.3278 4.025 9.1621 7.6296 14.68 9.7466 7.4582 2.8614 15.943 2.8123 23.464 0.12063 3.6956-1.3226 7.1867-3.2742 10.108-5.8962 3.669-3.2936 6.3917-7.6404 7.701-12.394 1.4746-5.3539 1.1523-11.08-0.12063-16.485-1.1471-4.8715-3.0485-9.548-5.4147-13.958-1.8697-3.4846-4.0536-6.8388-6.8587-9.6263-2.0223-2.0095-3.7489-3.2455-5.7964-4.1894-2.489-1.1475-2.8182-0.40258-0.79963 1.4516 2.5147 2.3099 4.377 4.784 6.596 8.1526 2.7211 4.131 4.7673 8.6792 6.3774 13.357 1.8764 5.4507 3.1812 11.272 2.2862 16.966-0.71237 4.5349-2.8423 8.8368-6.0164 12.153-3.6113 3.4576-8.2159 5.8655-13.116 6.8588-5.4656 1.108-11.201 0.46104-16.485-1.3236-6.1653-2.0827-11.801-5.7143-16.244-10.469-4.2101-4.2314-7.756-9.1223-10.469-14.439-3.2696-6.4088-5.3072-13.368-7.0994-20.335-2.7044-10.515-4.8924-21.159-7.701-31.646-1.6575-6.1893-3.5469-12.362-6.4978-18.049-1.9202-3.7009-4.2794-7.1709-6.979-10.348-2.7242-3.2062-5.7963-6.1166-9.1449-8.6636l0.0746 6.7353c0.82913 0.80926 3.1531 2.8525 5.2645 5.6573 2.0617 2.7388 3.7744 5.9587 5.3379 8.7915 2.8792 4.6746 5.2903 10.641 6.6506 16.839z"/>
 <g stroke-width="7.3">
  <path d="m449.19 425.7c3e-3 4.4386-0.0365 8.8773-0.12055 13.315-0.0758 4.041-0.18738 8.0814-0.33433 12.12-0.0756 2.0783-1.3306 4.9635-2.8008 6.4345-3.6252 3.6271-7.297 7.2076-11.013 10.74-6.0925 5.7905-12.307 11.453-18.637 16.982 1.8951 1.8989 4.2238 3.3626 6.7567 4.2468 3.4171 1.1929 7.1625 1.3187 10.713 0.6152 1.7066-0.33829 3.3761-0.86376 4.9686-1.5643 4.7891-3.9469 9.4669-8.0297 14.025-12.24 4.1216-3.8079 8.1458-7.7212 12.068-11.735 1.4535-1.4874 2.8647-4.3759 3.1339-6.4381 0.8154-6.2474 1.3773-12.528 1.6836-18.821 0.23965-4.9222 0.32294-9.852 0.24988-14.779-3.4587 0.61154-6.955 1.0107-10.463 1.1947-3.4067 0.179-6.824 0.15416-10.227-0.0731z"/>
  <path d="m359.47 392.67-17.924 11.734c-7.6476 4.9543-13.664 12.383-16.922 20.892-1.5942 4.1642-2.5388 8.5609-3.0082 12.995-0.98162 9.2733 0.12494 18.762 3.2136 27.561 2.8957 1.9008 6.4574 2.7643 9.9024 2.4006 2.7373-0.28933 5.39-1.3417 7.5804-3.0083-0.56186-5.926-0.74394-11.888-0.54506-17.837 0.13736-4.1153 0.4603-8.2431 1.3944-12.254 0.93413-4.0103 2.4999-7.915 4.9529-11.222 2.9526-3.9807 7.0537-6.9379 11.165-9.7066 4.3279-2.9144 8.7458-5.6955 13.244-8.3381-2.9112-1.8509-5.5907-4.0658-7.9559-6.5768-1.9168-2.0348-3.6278-4.2636-5.098-6.6412z"/>
  <path d="m320.38 463.03c3.4284 3.0461 7.8822 4.9171 12.457 5.2332 4.2843 0.29591 8.6522-0.76754 12.321-2.9999-5.3498-3.5945-12.075-5.0831-18.442-4.0821-2.1794 0.34267-4.3146 0.96562-6.3364 1.8487z"/>
  <path d="m359.25 466.98c0.7443-2.1861 0.55529-4.6731-0.51072-6.7217-1.0924-2.0991-3.0244-3.6698-5.1485-4.7127s-4.4483-1.604-6.7633-2.0941c-5.4923-1.1628-11.068-1.9716-16.677-2.2122-6.7202-0.28787-13.731 0.31783-19.569 3.6587-1.8709 1.0705-3.6213 2.442-4.7823 4.2582-0.58013 0.90804-1.0059 1.9207-1.1966 2.9814s-0.14248 2.1698 0.1885 3.1953c0.47419 1.4675 1.5133 2.7125 2.7676 3.6099 1.9875 1.4219 4.5542 2.0072 6.9616 1.5875-0.9304-1.1277-1.9347-2.1945-3.0042-3.1913-0.62396-0.58158-1.2753-1.1448-1.7849-1.8291-0.50925-0.68461-0.87348-1.5157-0.82745-2.3677 0.0365-0.70215 0.3529-1.3692 0.78749-1.9224 0.43473-0.55309 0.98483-1.0038 1.5501-1.4224 3.0258-2.2406 6.6021-3.6816 10.292-4.4334 3.6893-0.7519 7.4942-0.83015 11.245-0.5056 3.4704 0.30029 6.9007 0.94128 10.337 1.5097 2.0429 0.33756 4.1085 0.65539 6.0386 1.4053 1.9301 0.74992 3.7431 1.9827 4.791 3.7687 0.42889 0.73144 0.72187 1.5456 0.82986 2.3868 0.1074 0.84119 0.0292 1.709-0.25938 2.5072-0.37628 1.0474-1.0966 1.9491-1.9572 2.6546-0.86063 0.7058-1.8589 1.2258-2.8851 1.6565-2.7462 1.1526-5.7482 1.6909-8.7238 1.5643 1.6969 1.2196 3.7488 1.9388 5.8358 2.0456 3.12 0.15928 6.2216-1.0494 8.6654-2.9953 1.521-1.211 2.8161-2.7049 3.7991-4.3823z"/>
  <path d="m307.3 459.6c-0.45519 0.95597-0.70288 2.0098-0.72188 3.0684-1.5455-0.0146-3.0905-0.0774-4.6327-0.18047-3.9161-0.26157-7.8244-0.79998-11.611-1.8299-5.6779-1.544-11.004-4.1669-16.611-5.9509-5.1195-1.6288-10.726-2.5344-15.826-0.84477-3.4567 1.1453-6.4929 3.46-8.6252 6.4122s-3.3682 6.5205-3.6575 10.151c-0.25368 3.1823 0.24484 6.5126 1.9658 9.2017 1.9393 3.0299 5.2008 4.9424 8.4732 6.4361 3.345 1.5266 6.8275 2.7354 10.352 3.7848 6.774 2.0172 13.718 3.4517 20.728 4.3581 8.9109 1.1523 17.912 1.4514 26.897 1.4173 9.8929-0.0365 19.786-0.47784 29.632-1.4362 1.91-0.18558 3.827-0.39308 5.6823-0.88363 1.8552-0.49099 3.6592-1.2794 5.1235-2.5198 1.678-1.4212 2.85-3.4023 3.4034-5.5305 0.55383-2.129 0.50414-4.3771 0.17024-6.5515-0.19289-1.2558-0.48222-2.5079-1.021-3.6586-0.8178-1.7468-2.2127-3.2176-3.9139-4.1266 0.53118-0.11763 1.0477-0.30322 1.5324-0.5509 0.37555-0.19216 0.73203-0.42085 1.0627-0.68242 0.92148 0.86566 1.7758 1.8028 2.5525 2.8005 2.1603 2.7745 3.7339 6.1072 3.9154 9.6189 0.18486 3.575-1.17 7.2474-3.7903 9.6861-2.1212 1.9744-4.9112 3.0665-7.701 3.8505-4.138 1.1628-8.417 1.7429-12.695 2.1659-7.4138 0.73334-14.871 1.0049-22.321 0.90249-6.9877-0.0957-13.967-0.52095-20.937-1.0228-8.9467-0.64443-17.924-1.4231-26.652-3.4895-6.5734-1.5561-13.043-3.8738-18.651-7.641-2.2165-1.4891-4.3227-3.2383-5.7422-5.4999-1.6529-2.6332-2.2688-5.7981-2.3944-8.9043-0.16418-4.0572 0.48521-8.2168 2.4069-11.794 1.5283-2.8448 3.8294-5.249 6.5248-7.0275 2.6955-1.7784 5.7773-2.9405 8.9518-3.5343 5.973-1.1174 12.202-0.22796 17.929 1.805 4.9543 1.7588 9.594 4.3543 14.62 5.896 4.2523 1.3043 8.8013 1.8294 13.176 1.0228 1.3756-0.25354 2.7271-0.63712 4.0309-1.1436-0.67365 0.63273-1.2273 1.3919-1.6245 2.2261z"/>
  <path d="m243.13 495.99c3.4244 2.4452 7.2399 4.3418 11.257 5.5953 6.1596 1.9222 12.682 2.3164 19.132 2.4977 7.519 0.21116 15.045 0.15198 22.561-0.15124 4.687-0.18924 9.4099-0.47857 13.938-1.7035 1.8032-0.48806 3.6066-1.144 5.0488-2.3312 0.94633-0.779 1.7135-1.7744 2.2259-2.8879l-8.097 0.0658c-0.75614 0.97607-1.7289 1.7834-2.8277 2.3464-1.2844 0.65831-2.72 0.97775-4.1566 1.1165-1.4365 0.13883-2.8834 0.10302-4.3266 0.087-6.4005-0.0731-12.8 0.2433-19.2 0.22285-9.0234-0.0292-18.214-0.7625-26.584-4.1332-2.4166-0.97321-4.782-2.1845-6.6782-3.9709-0.65736-0.61959-1.26-1.3133-1.6592-2.1235-0.39922-0.81014-0.58334-1.7481-0.38636-2.6294 0.17762-0.79494 0.65589-1.5032 1.2635-2.0456 0.97577-0.87128 2.3037-1.336 3.6099-1.2634l-1.9553-2.4667c-1.0091-0.20166-2.0716-0.12933-3.0441 0.20677-0.97248 0.33682-1.8525 0.93631-2.5211 1.7185-1.0688 1.2505-1.5659 2.9272-1.5643 4.5723 3e-3 2.8806 1.5464 5.7146 3.9647 7.2796z"/>
  <path d="m316.43 496.86 3.7903 0.11983c-0.22722 1.1733 0.0899 2.4408 0.84236 3.3691 0.45957 0.56697 1.0623 1.0016 1.6846 1.3838 2.6977 1.6569 5.866 2.4333 9.0249 2.6472 4.6943 0.31783 9.377-0.55309 14.018-1.3236 1.0886-0.18047 2.1822-0.35729 3.2364-0.68315 1.0542-0.32587 2.0754-0.81006 2.9004-1.5429 0.75146-0.6678 1.3221-1.5292 1.6846-2.4667 0.67657-1.7498 0.61009-3.7734-0.18047-5.4749l4.1513-2.1659c0.0292 1.8653 0.0658 3.7305 0.12056 5.5952 0.0292 0.95231 0.0584 1.9077-0.0292 2.8561-0.0906 0.94845-0.3076 1.8958-0.7508 2.7391-0.6605 1.2563-1.793 2.2164-3.0438 2.8874-1.2508 0.67072-2.6245 1.0766-3.9954 1.4444-4.471 1.1996-9.0424 2.0477-13.657 2.4066-4.0363 0.31418-8.1678 0.24257-12.033-0.96269-1.3844-0.43181-2.7315-1.0105-3.9349-1.8197-1.2034-0.80926-2.2616-1.8562-2.984-3.1137-1.013-1.7634-1.3211-3.9192-0.8425-5.8958z"/>
  <path d="m383.65 311.28c11.394-5.5601 23.332-10.004 35.589-13.246 14.084-3.726 28.64-5.8675 43.206-5.5835 2.6573 0.0512 5.3473 0.18997 7.8858 0.97716 1.6756 0.51949 3.2519 1.3124 4.8088 2.1213 4.4314 2.3024 8.7911 4.7734 12.815 7.7309 7.7528 5.6986 14.266 13.344 17.568 22.381 3.2945 9.0161 3.254 19.027 1.0622 28.373-2.5323 10.797-7.831 20.809-14.427 29.725-2.9152 3.94-6.0902 7.6878-9.4976 11.211 0.95656 3.952 1.601 7.9793 1.9253 12.033 0.28203 3.5213 0.32222 7.062 0.12056 10.589-8.4893 3.149-17.437 5.0605-26.473 5.6554-9.5999 0.632-19.297-0.22358-28.638-2.5269-0.32076-2.527-0.15636-5.1145 0.48149-7.5804 0.63711-2.4639 1.7459-4.805 3.2489-6.8587-6.933 0.27034-13.898-0.29664-20.696-1.6846-7.378-1.5066-14.558-3.981-21.298-7.34 4.2313 3.9208 9.1381 7.1104 14.44 9.3858 6.621 2.8417 13.854 4.247 21.057 4.0912-1.1951 2.0991-1.9387 4.4538-2.1659 6.8587-0.20166 2.1384 3e-3 4.3145 0.60132 6.3774 11.848 3.72 24.494 4.8771 36.821 3.3692 9.5926-1.1735 18.987-3.9509 27.675-8.1824 0.0292-5.1516-0.33025-10.306-1.083-15.402-0.3814-2.5844-0.8634-5.1539-1.444-7.701 10.571-9.3493 18.452-21.706 22.472-35.233 3.5506-11.949 4.0509-25.054-0.24038-36.756-3.4351-9.3683-9.849-17.54-17.822-23.538-7.9735-5.9989-17.461-9.8644-27.272-11.684-18.59-3.4482-37.876 0.37263-55.591 6.979-13.236 4.9354-25.892 11.424-37.625 19.289-2.4471 7.8821-4.5877 15.86-6.4151 23.909-1.6979 7.4781-3.131 15.073-3.1285 22.742 1e-3 3.8064 0.36021 7.6286 1.3236 11.311 0.51218 1.9582 1.2098 3.9027 2.4065 5.5351 0.60205 0.82087 1.3241 1.5531 2.1368 2.1659-2.1468 0.43546-4.2679 0.99849-6.3482 1.6846-2.021 0.66634-4.0036 1.4492-5.9348 2.3432-0.24842 1.9393-0.12202 3.9257 0.36897 5.818 0.80246 3.0921 2.561 5.8785 4.7329 8.2212s4.7521 4.2701 7.4102 6.0418c6.9416 4.6266 14.493 8.2694 22.181 11.508 3.8511 1.6224 7.7433 3.1472 11.672 4.5725 2.7593-2.158 5.4486-4.4057 8.0619-6.7383 1.969-1.7575 3.895-3.5631 5.7757-5.4148l-4.1822-1.9605c-1.5827 1.6966-3.3277 3.2418-5.2033 4.6076-1.9215 1.3992-3.9801 2.6102-6.1367 3.6099-4.08-0.88816-8.0699-2.1894-11.889-3.8772-6.2306-2.7536-11.958-6.5084-17.669-10.221-2.0389-1.3255-4.0874-2.6535-5.9256-4.2458-1.8383-1.5922-3.472-3.469-4.5052-5.6706-0.42451-0.90381-0.74423-1.8565-0.95188-2.8331 2.6416-1.2786 5.3957-2.3248 8.2197-3.1224 2.2645-0.63931 4.5742-1.1195 6.906-1.435-1.0742-1.4295-2.0527-2.931-2.9267-4.491-2.5473-4.5465-4.1968-9.594-4.8241-14.768-1.2259-10.11 1.4231-20.246 4.0851-30.076 1.575-5.8165 3.1628-11.63 4.7633-17.439l8.4937-5.6057z"/>
  <path d="m411.2 493.06c-1.6769-0.73605-3.2585-1.6891-4.6928-2.8277-0.94238-0.7481-1.8306-1.587-2.4798-2.6-0.6488-1.013-1.0477-2.2171-0.94961-3.4163 0.0877-1.0748 0.5699-2.0928 1.2419-2.9364 0.67146-0.8436 1.5272-1.5247 2.4281-2.1173 2.5575-1.6823 5.5173-2.6921 8.5331-3.2163 3.016-0.52387 6.0962-0.57648 9.1549-0.45373 3.3188 0.13298 6.641 0.47273 9.8666 1.2634 3.421 0.83892 6.7371 2.1967 9.6262 4.2115 0.6795 0.47345 1.3377 0.98629 1.8946 1.5994 0.55674 0.61301 1.0114 1.333 1.2339 2.1308 0.35509 1.2734 0.0921 2.6593-0.48149 3.8505-0.79859 1.658-2.1701 2.9946-3.7301 3.9708-1.2483 0.78113-2.6169 1.3461-3.9708 1.9252-1.4529 0.62104-2.897 1.2633-4.3318 1.9253 1.511 0.48077 3.1094 0.68534 4.6928 0.60132 2.3082-0.12275 4.5852-0.86793 6.4977-2.1659 2.1727-1.4746 3.8388-3.6296 4.9334-6.0164 0.42231-0.92083 0.76541-1.8836 0.93675-2.8821 0.17097-0.99842 0.16732-2.0354-0.0943-3.014-0.30833-1.1534-0.96576-2.1937-1.7806-3.0662-0.81488-0.87253-1.785-1.5867-2.7918-2.2282-3.6328-2.3147-7.7755-3.7249-11.972-4.6928-3.1455-0.72553-6.3462-1.214-9.5663-1.4439-4.386-0.31345-8.8305-0.14174-13.116 0.84228-3.9575 0.9087-7.9099 2.6231-10.469 5.7757-1.3413 1.6524-2.2504 3.6654-2.5268 5.7757-0.26595 2.0316 0.0782 4.1837 1.2033 5.8961 1.1038 1.68 2.8492 2.8152 4.5724 3.8505 1.7017 1.0223 3.4696 2.0103 5.4148 2.4066 1.4279 0.2908 2.9223 0.24988 4.332-0.11982l-3.6098-2.8279z"/>
  <path d="m405.21 492.33-3.0631-2.4674c-1.2682 0.44058-2.4748 1.058-3.5736 1.8293-2.0051 1.4075-3.643 3.3313-4.7222 5.5305-1.5715 3.2024-1.9266 6.9839-0.97876 10.423l3.8056 0.50414c-0.41135-1.231-0.6342-2.525-0.65758-3.8228-0.0365-2.1568 0.4815-4.3266 1.5315-6.2112 1.0677-1.9165 2.6789-3.5256 4.5946-4.5946 0.95984-0.53556 1.9941-0.9377 3.0636-1.1912z"/>
  <path d="m395.71 504.17-1.4139 2.9029c0.76856 1.188 1.5816 2.3472 2.4367 3.4745 3.6395 4.7975 8.0414 9.0051 12.935 12.514 3.9564 2.837 8.2234 5.2156 12.574 7.3999 6.0804 3.0529 12.353 5.7423 18.832 7.8215 6.1889 1.9862 12.634 3.4195 19.133 3.2489 3.9248-0.10302 7.8237-0.79208 11.593-1.8901 6.6048-1.924 12.914-5.1716 17.806-10.008 2.677-2.6462 4.9145-5.7603 6.3981-9.22 1.3632-3.1789 2.0806-6.6521 1.9252-10.108-0.18924-4.2118-1.6828-8.3315-4.0912-11.793-1.9385-2.7854-4.5045-5.1851-7.5804-6.618-4.4774-2.0855-9.6386-1.9914-14.559-1.5643-6.7948 0.58963-13.558 1.7362-20.378 1.7257-1.5302-2e-3 -3.0602-0.0658-4.5857-0.18193l-4.5252 3.5892c2.3052 0.19873 4.6169 0.32294 6.9302 0.37336 7.6198 0.16512 15.243-0.47638 22.78-1.6116 3.0109-0.45373 6.0869-0.98585 9.0782-0.41573 3.0314 0.57793 5.7943 2.29 7.8471 4.5939 2.053 2.3038 3.4178 5.1745 4.1516 8.1722 0.94472 3.8585 0.85587 7.9939-0.45227 11.745-1.1761 3.3723-3.3034 6.3673-5.892 8.8276s-5.631 4.4064-8.8174 6.0198c-4.9285 2.4955-10.289 4.233-15.798 4.6369-9.2032 0.67511-18.235-2.357-26.918-5.4792-6.1285-2.2035-12.265-4.4876-17.929-7.701-6.6227-3.7569-12.532-8.7655-17.327-14.68-1.494-1.8427-2.8809-3.7723-4.1514-5.7757z"/>
  <path d="m390.67 517.69c1.5965 2.9042 3.6509 5.5562 6.0641 7.8281 2.4879 2.342 5.3565 4.2788 8.4586 5.711 1.1348 0.58743 2.3952 0.9301 3.671 0.99922 1.22 0.0658 2.4531-0.11836 3.6006-0.53775 0.99411-0.56698 1.9505-1.1999 2.8607-1.8937 1.1372-0.86676 2.2022-1.8281 3.1803-2.871l-3.9242-2.0171c-0.24841 0.72845-0.6583 1.4015-1.1912 1.957-0.74985 0.78142-1.7448 1.3242-2.8078 1.5316-1.1071 0.15636-2.2482 0.0658-3.3183-0.25499-0.7557-0.22869-1.4759-0.57428-2.1271-1.021-2.1813-1.2378-4.2216-2.724-6.0685-4.4209-1.7726-1.6285-3.367-3.4509-4.7458-5.424-0.95487-1.7632-1.0654-3.9606-0.29226-5.8107 0.52095-1.2457 1.425-2.3278 2.5586-3.0612l-3.025-3.1622c-0.82175 0.61155-1.5476 1.3515-2.143 2.185-1.0486 1.4678-1.6842 3.2272-1.8158 5.0263-0.13152 1.799 0.24111 3.6322 1.0649 5.237z"/>
 </g>
 <path d="m406 520 4.4642 0.31208-0.59439 9.8757-4.4642-0.31208z"/>
 <g stroke-width="7.3">
  <path d="m412.95 529.52c6.0704 5.5896 12.961 10.287 20.382 13.896 4.9065 2.3861 10.061 4.3026 15.402 5.4148 8.4608 1.7616 17.37 1.4559 25.63-1.083 7.1803-2.2069 13.846-6.0957 19.252-11.311 2.9358-2.8319 5.4932-6.0362 7.8215-9.3858 0.51656-0.7432 1.0245-1.4978 1.4091-2.3172 0.38432-0.81927 0.6437-1.7112 0.63639-2.6163-6e-3 -0.75855-0.20458-1.5194-0.60132-2.1659-0.33682-0.54871-0.80991-1.0072-1.3414-1.371-0.5319-0.36385-1.1214-0.63565-1.727-0.85506-1.7997-0.651-3.7648-0.83936-5.6554-0.54141l-0.72041 2.8277c1.0792-0.14612 2.1834-0.10521 3.2488 0.12056 0.35729 0.076 0.71238 0.17243 1.0445 0.3244 0.33244 0.15198 0.64223 0.36094 0.88078 0.63785 0.2718 0.31491 0.44204 0.71165 0.51291 1.1215 0.0731 0.40989 0.0438 0.83381-0.0511 1.2389-0.1907 0.81006-0.64223 1.5324-1.1227 2.2122-1.805 2.5548-4.0947 4.7258-6.4375 6.7985-3.9517 3.496-8.1518 6.7978-12.935 9.0249-6.0547 2.8186-12.817 3.804-19.493 3.9708-5.0975 0.12713-10.245-0.21042-15.162-1.5642-5.9416-1.6366-11.391-4.7136-16.485-8.1824-4.0417-2.7522-7.9033-5.7689-11.551-9.0249z"/>
  <path d="m310 163.91c-3.7331-1.0726-7.7433-1.597-11.492-0.58086-2.7458 0.7443-5.2478 2.3025-7.224 4.3488-1.9763 2.0464-3.434 4.5697-4.3475 7.264-1.536 4.53-1.5265 9.537-0.17024 14.124 1.8507 6.2596 6.0867 11.599 11.061 15.826 9.5049 8.0765 21.654 12.426 33.864 14.975 15.184 3.1695 30.894 3.7917 46.286 1.8719 9.5414-1.1901 19.135-3.4193 27.398-8.3381 4.897-2.9156 9.2484-6.7446 12.763-11.231-1.1135 4.2217-2.5396 8.3607-4.2628 12.373-2.9486 6.8644-6.7808 13.369-11.563 19.109-4.8268 5.7935-10.613 10.789-17.07 14.686-7.1981 4.3441-15.444 7.3488-23.847 7.0667-6.0951-0.20458-12.225-2.2291-16.821-6.2379-3.0355-2.6478-5.3552-6.1353-6.4957-9.9988-1.0204-3.4568-1.0905-7.1666-0.37993-10.7 0.33902-1.6876 0.85375-3.34 1.5323-4.922l2.1786 0.97731c-0.88575 2.4423-1.2758 5.0633-1.1395 7.6578 0.23381 4.4562 2.0548 8.8093 5.0448 12.121 3.2456 3.5956 7.8032 5.9197 12.582 6.7071 4.1825 0.689 8.4966 0.24184 12.593-0.85083 4.6781-1.2479 9.1052-3.3224 13.274-5.7858 4.6114-2.7254 8.943-5.9445 12.763-9.7 5.7782-5.6801 10.352-12.579 13.335-20.113-4.5366 2.4159-9.2609 4.48-14.115 6.1674-9.6817 3.365-19.886 5.223-30.132 5.4867-13.978 0.66561-28.06-0.8984-41.551-4.6154-10.747-2.9609-21.323-7.4109-29.638-14.834-5.8248-5.1996-10.507-12.03-11.741-19.74-0.97211-6.0729 0.3003-12.491 3.5736-17.698 2.4445-3.8886 6.0296-7.1207 10.31-8.7867 4.0484-1.5759 8.5624-1.7067 12.833-0.91264 9.0914 1.6903 17.052 7.4123 23.05 14.451 1.6832 1.9751 3.2764 4.1459 3.8492 6.6769 0.21408 0.9453 0.27911 1.9241 0.19289 2.8895-0.93149-1.2659-1.9068-2.4995-2.9234-3.698-2.7024-3.1854-5.7042-6.1267-9.0336-8.6493-4.356-3.3007-9.2806-5.8773-14.534-7.3868z"/>
  <path d="m368.6 229.96c-1.8721 0.84513-3.4093 2.4079-4.2233 4.2938-0.28056 0.64954-0.4771 1.3345-0.58524 2.0335 0.88013-0.60424 1.7868-1.1692 2.7166-1.6936 2.2994-1.297 4.7346-2.3411 7.2176-3.2375 3.423-1.2357 6.9476-2.195 10.531-2.8267 2.3071-0.40624 4.6356-0.6773 6.9619-0.954 1.5764-0.18777 3.1662-0.37847 4.7473-0.23746 1.5812 0.14102 3.1745 0.64078 4.37 1.6852 0.61593 0.53775 1.1129 1.2105 1.4464 1.957 1.8429-1.6342 3.4524-3.5312 4.7647-5.6156 1.936-3.0753 3.2047-6.5122 4.5946-9.8695 0.80626-1.9478 1.6575-3.8771 2.5526-5.7857-2.6607 2.0223-5.5139 3.7914-8.5083 5.2752-5.6257 2.7877-11.711 4.5523-17.868 5.7858-5.368 1.0756-10.811 1.7572-16.166 2.8928-2.2884 0.48515-4.5593 1.0531-6.8067 1.702 1.105 0.3171 2.1866 0.7153 3.2332 1.1914 0.31929 0.14467 0.63639 0.2981 0.92185 0.50195 0.28495 0.20385 0.53921 0.46104 0.69484 0.77477 0.17973 0.36094 0.21992 0.7896 0.11105 1.1781-0.10886 0.3887-0.36605 0.73363-0.70652 0.9491z"/>
 </g>
 <path d="m360.83 173.7a7.5597 19.132 34.438 0 1-17.054 11.504 7.5597 19.132 34.438 0 1 4.5846-20.054 7.5597 19.132 34.438 0 1 17.054-11.504 7.5597 19.132 34.438 0 1-4.5846 20.054z"/>
 <path d="m339.13 163.67a6.0823 14.439 32.204 0 1-12.842 8.9762 6.0823 14.439 32.204 0 1 2.5485-15.459 6.0823 14.439 32.204 0 1 12.842-8.9762 6.0823 14.439 32.204 0 1-2.5485 15.459z"/>
 <path d="m334.11 153.17c5.9742-7.3692 13.266-13.667 21.427-18.506 1.0651-0.63127 2.1469-1.2395 3.2805-1.7378 0.29957-0.13151 0.60643-0.25645 0.93018-0.30394 0.32367-0.0512 0.67-0.0146 0.94808 0.16074 0.27764 0.1717 0.46323 0.46542 0.56186 0.77638 0.0986 0.31125 0.11763 0.6415 0.12129 0.96773 0.0219 2.0625-0.55529 4.128-1.6444 5.8796 1.8061-1.6435 3.6905-3.201 5.6447-4.6654 2.3526-1.7629 4.8064-3.3909 7.3473-4.8696 6.895-4.0129 14.583-6.949 22.555-7.2619 7.1454-0.28056 14.467 1.6564 20.163 5.9804 5.6591 4.2964 9.5334 10.934 10.282 18 0.59985 5.6663-0.76265 11.428-3.2301 16.564-2.4674 5.136-6.0031 9.6934-9.871 13.878-4.6638 5.0459-9.849 9.6101-15.445 13.596 4.3892-2.4897 8.7158-5.0896 12.975-7.7967 5.0075-3.1827 10.045-6.5692 15.798-8.021 5.6182-1.4177 11.659-0.86413 17.068 1.2139 5.4089 2.0779 10.194 5.6352 14.03 9.9776 4.191 4.7446 7.3122 10.519 8.4579 16.745 1.1805 6.4164 0.21774 13.158-2.3921 19.137-3.4648 7.9377-9.6503 14.398-16.404 19.821-6.6954 5.3763-14.089 9.9184-22.042 13.157-12.478 5.0807-26.281 6.8657-39.642 5.126 2.1262-1.3719 4.1804-2.8556 6.1513-4.4426 1.3222-1.0647 2.622-2.1924 3.5882-3.5882 0.40697-0.58816 0.75132-1.2192 1.0252-1.8796-0.69996 0.2433-1.3849 0.52898-2.0504 0.85434-1.1237 0.55017-2.188 1.2126-3.2465 1.8795-3.3496 2.1101-6.6767 4.2807-10.252 5.9804-5.7984 2.7566-12.205 4.227-18.625 4.2717-5.3055 0.0365-10.695-0.92288-15.378-3.4174-5.4169-2.8856-9.6963-7.7937-11.961-13.499-1.9458-4.9018-2.4262-10.35-1.5379-15.549 0.55529-3.2477 1.6347-6.4052 3.1844-9.3127l-3.5797-0.92478c-0.90541 2.0974-1.6638 4.2583-2.2678 6.4616-1.234 4.5014-1.8203 9.2163-1.3254 13.857 0.37336 3.5022 1.3649 6.9428 2.9634 10.081 2.3928 4.698 6.1682 8.6946 10.765 11.277 5.6926 3.1985 12.423 4.1594 18.946 3.8506 3.8804-0.18339 7.7258-0.79282 11.583-1.2584 19.402-2.3421 39.703-1.1741 57.706-8.7786 3.7057-1.5653 7.2557-3.4843 10.673-5.607 12.303-7.6425 23.152-18.342 28.561-31.778 2.523-6.2669 3.8154-13.016 3.9007-19.77 0.18704-14.819-5.4149-29.272-13.555-41.657-1.0204-1.5526-2.0822-3.0802-3.2465-4.528-3.5165-4.3727-7.9063-7.9464-12.253-11.496-3.4575-2.8228-6.9177-5.6576-10.644-8.1145-5.751-3.7914-12.07-6.6391-18.476-9.1732-4.3649-1.7268-8.8159-3.3244-13.45-4.0782-8.5032-1.3834-17.185 0.13079-25.638 1.7915-3.5635 0.69996-7.1331 1.4302-10.572 2.5977-2.863 0.97204-5.6191 2.2426-8.2767 3.6851-3.2417 1.7597-6.3401 3.7759-9.323 5.9453-3.2362 2.3534-6.3463 4.8948-9.1418 7.7579-4.795 4.9106-8.596 10.693-12.171 16.552-1.7555 2.8769-3.4645 5.7822-5.126 8.7143l2.3925 1.1958 9.7394-15.72z" stroke-width="7.3"/>
 <path d="m410.17 193.72c1.4038-1.8045 3.3284-3.1788 5.4478-4.0358 2.1195-0.85696 4.4286-1.2063 6.7138-1.1388 3.6452 0.1074 7.2734 1.2945 10.19 3.4831 2.3042 1.7288 4.1541 4.0801 5.1954 6.766 0.41647 1.0737 0.70507 2.2038 0.76637 3.3536 0.0365 0.73765-0.0146 1.4802-0.1622 2.2041-0.55894-0.71456-1.1157-1.4305-1.6708-2.1479-1.4936-1.9306-2.9893-3.8882-4.8536-5.4638-2.9542-2.4968-6.7687-3.9234-10.632-4.108-2.795-0.13371-5.6232 0.3697-8.1839 1.4974-1.699 0.74818-3.2782 1.7678-4.6594 3.0084 0.42231-1.231 1.0495-2.3912 1.8485-3.4184z" stroke-width="7.3"/>
 <path d="m535.3 147.55a39.727 41.179 61.76 0 1-17.48 54.483 39.727 41.179 61.76 0 1-55.075-15.514 39.727 41.179 61.76 0 1 17.48-54.483 39.727 41.179 61.76 0 1 55.075 15.514z"/>
 <path d="m363.17 91.638c3.4242-15.078 16.121-26.432 31.747-28.39 15.626-1.9575 30.826 5.9018 38.006 19.651l-33.399 35.325z"/>
 <path d="m270.77 139.36c2.6883-1.9307 6.1616-2.7322 9.4238-2.1748 3.0333 0.51802 5.8106 2.1614 7.9742 4.3496 3.5044 3.5443 5.3914 8.3344 7.1957 12.981 0.90892 2.3405 1.8196 4.6806 2.6945 7.034 1.5577 4.1902 3.0116 8.4652 3.5128 12.907 0.13444 1.189 0.19727 2.4106-0.11252 3.5665-0.23819 0.88897-0.6963 1.7185-1.325 2.3907-0.62835 0.67218-1.4263 1.1855-2.2996 1.4756-1.1337 0.37628-2.3649 0.37408-3.5443 0.18412-1.1794-0.18997-2.321-0.55967-3.4634-0.90885-1.706-0.52094-3.4302-0.99973-5.0745-1.6915-3.0635-1.2889-5.7834-3.2928-8.216-5.5578-3.4572-3.219-6.3869-6.9965-8.699-11.116-1.2597-2.2441-2.3428-4.6035-2.9953-7.0928s-0.86471-5.1186-0.38797-7.6476c0.64369-3.4136 2.5721-6.5691 5.3161-8.699z" stroke-width="7.3"/>
 <path d="m392.2 110.87c3.1078 2.289 6.1493 4.6679 9.1191 7.1329 2.0005 1.6603 3.9686 3.3596 5.9028 5.0967l-5.9597-1.367c-6.8052-5.127-13.5-10.4-20.078-15.815-3.606-2.9682-7.1839-5.9842-11.04-8.6186-2.9254-1.9986-6.084-3.8026-9.5685-4.4426-2.3988-0.44058-4.9434-0.29664-7.1765 0.68388-2.1911 0.96247-4.0318 2.7472-4.9552 4.9551-1.0681 2.554-0.87319 5.4968-0.0219 8.1306 1.137 3.5182 3.3548 6.5758 5.6576 9.4684 2.6626 3.3449 5.5938 6.6454 9.4289 8.5346 1.5818 0.77937 3.2906 1.3003 5.0381 1.536l-4.7465 2.4421c-2.0198-0.58232-3.9644-1.4261-5.77-2.5026-3.4022-2.0285-6.2719-4.858-8.7348-7.9603-3.3286-4.1921-6.0392-9.1717-6.1512-14.524-0.0731-3.4672 0.99477-6.9652 3.0756-9.7394 1.4531-1.9374 3.3992-3.5205 5.6386-4.4426 2.6837-1.105 5.7311-1.2295 8.5434-0.51291 2.4683 0.62908 4.7325 1.8693 6.9313 3.155 3.2548 1.9033 6.4353 3.9344 9.5202 6.1027 5.4349 3.8203 10.571 8.0663 15.344 12.686z" stroke-width="7.3"/>
 <path d="m474.24 37.009-77.099 81.189 4.3975 1.1615 75.696-79.711z"/>
 <path d="m331.05 232.08c-6.4524-2.7737-12.937-5.4724-19.453-8.0948-6.6792-2.6887-13.403-5.3032-19.815-8.5784-4.2564-2.1742-8.3658-4.6354-12.292-7.3619l-4.5022 17.994c3.8598 1.9874 7.7682 3.881 11.719 5.6786 4.7326 2.1528 9.5276 4.1679 14.378 6.0412 7.4043 2.86 14.939 5.3901 22.594 7.4913 2.9451 0.8083 5.9075 1.553 8.8846 2.2334-1.202-2.931-1.8818-6.0754-1.9979-9.2411-0.076-2.0634 0.087-4.1355 0.48295-6.1619z" stroke-width="7.3"/>
 <path d="m349.75 266.27-0.60351 2.5976c-15.688 1.1208-31.375 2.2686-47.061 3.4434-34.412 2.5775-68.909 5.287-103.39 3.9164-11.362-0.45153-22.707-1.3463-34-2.6813l-6.6806 19.184c14.234 1.5404 28.545 2.3688 42.862 2.4811 26.169 0.20531 52.289-1.9793 78.427-3.2464 18.406-0.89226 36.845-1.3307 55.19-3.0756 7.3714-0.70141 14.722-1.613 22.042-2.7339 0.70287 2.6193 1.5012 5.213 2.3922 7.7747 1.7281 4.9678 3.8084 9.8183 6.3221 14.438 2.0783 3.82 4.4514 7.4796 7.0911 10.935 3.4139-4.2908 7.4927-8.0516 12.046-11.106 9.7226-6.5232 21.269-9.6649 32.636-12.473 11.562-2.8569 23.29-5.4907 35.199-5.6386 7.5811-0.0942 15.174 0.82789 22.512 2.7339-5.4441-5.5929-10.841-11.232-16.19-16.916-4.6656-4.958-9.2967-9.9528-14.182-14.695-3.0383-2.9493-6.1731-5.7991-9.3975-8.5434-6.3958 3.6973-13.417 6.3086-20.675 7.6892-7.0353 1.3382-14.231 1.5212-21.359 2.2213-10.882 1.069-21.71 3.3518-32.635 2.9048-3.4478-0.14101-6.8844-0.55455-10.267-1.2362l-0.27983 2.0261z" stroke-width="7.3"/>
 <path d="m521.04 69.162-76.675 87.497 5.0412 0.29956 74.73-85.279z"/>
 <path d="m456.64 58.699c-1.428-1.0601-2.6991-2.3312-3.7591-3.7591-3.2596-4.3911-4.381-10.087-4.1009-15.549 0.20677-4.0328 1.1268-8.0159 2.5631-11.79 1.8576-4.8811 4.6843-9.5414 8.8853-12.644 2.769-2.0454 6.0399-3.3423 9.3975-4.1009 6.6159-1.4946 13.671-0.92331 19.992 1.5379 5.1902 2.0211 9.8227 5.2476 14.182 8.7143 4.2091 3.3471 8.2606 6.9962 11.277 11.448 2.3789 3.5108 4.0626 7.4467 5.4678 11.448 1.0482 2.9848 1.9572 6.0647 2.0504 9.2265 0.0438 1.374-0.0745 2.7525-0.34194 4.1009 2.7394 1.442 5.1516 3.5012 7.0056 5.9804 2.4095 3.222 3.8532 7.1202 4.3626 11.112 0.50925 3.991 0.10448 8.0721-0.94523 11.956-1.6832 6.227-5.0362 11.985-9.5685 16.574-4.3163 4.371-9.8264 7.7331-15.891 8.7143-4.0438 0.65466-8.2336 0.23454-12.132-1.0252-1.7747-0.57355-3.494-1.3184-5.126-2.2213 2.6105-4.2862 5.5865-8.3498 8.8853-12.132 3.803-4.3603 8.0348-8.3461 12.615-11.882-1.5867-0.85587-2.9858-2.0575-4.0716-3.4967-1.4608-1.9365-2.3331-4.2585-2.9133-6.6138-0.80919-3.2848-1.084-6.7006-0.81043-10.073-2.2366-0.37555-4.4512-0.88232-6.6285-1.5171-4.2374-1.2353-8.3242-2.9522-12.267-4.9361-4.3618-2.1947-8.6595-4.8076-11.669-8.6522-1.1784-1.5054-2.1402-3.1802-2.8465-4.9567-3.337 2.5941-6.4143 5.5222-9.171 8.7268-1.5908 1.8491-3.0749 3.7899-4.4426 5.8095z" stroke-width="7.3"/>
 <path d="m445.03 71.485c0.69045 1.2933 1.6959 2.417 2.9047 3.2465 1.8507 1.27 4.1001 1.8189 6.3222 2.1358 2.6003 0.37116 5.241 0.45665 7.8602 0.25645-1.7167 3.0436-3.6604 5.959-5.8095 8.7143-3.6188 4.6393-7.88 8.8663-12.986 11.79-3.8104 2.1815-8.0889 3.6112-12.473 3.8446-1.0886 0.0584-2.1897 0.0438-3.2549-0.18997-1.0651-0.23234-2.098-0.69045-2.8963-1.433-0.74963-0.69703-1.2718-1.6349-1.4697-2.6392-0.198-1.0043-0.0731-2.0701 0.35875-2.9994" fill="none" stroke="#000" stroke-width="2.9"/>
 <g fill="#fff">
  <path d="m372.25 281.69c3.4898-0.32732 6.9398-1.0747 10.252-2.2213 2.6652-0.92258 5.2646-2.1172 7.4978-3.8403 1.2666-0.97738 2.4034-2.1159 3.4381-3.3362 0.87005-1.026 1.6699-2.1116 2.3922-3.2464 0.13809 0.84688 0.13809 1.7161 0 2.563-0.33683 2.0665-1.4828 3.9308-2.9047 5.4677-2.0546 2.2209-4.7022 3.8464-7.5285 4.9259-3.3202 1.2681-6.8662 1.8012-10.368 2.4111-1.7416 0.30321-3.4855 0.62835-5.2512 0.71529-1.7657 0.087-3.5676-0.0731-5.2168-0.70799-1.0306-0.39746-1.9899-0.9792-2.8194-1.7087l10.508-1.025z" stroke-width="7.3"/>
  <path d="m409.85 408.15c-1.3825-0.45592-2.7513-0.95502-4.0891-1.5292-5.301-2.2752-10.207-5.4657-14.438-9.3864 6.7399 3.359 13.92 5.8335 21.299 7.34 6.798 1.3881 13.762 1.9544 20.695 1.684-1.503 2.0538-2.6102 4.3965-3.2471 6.8605-0.63785 2.4661-0.80371 5.0546-0.48295 7.5816 9.3412 2.3035 19.039 3.1581 28.639 2.526 9.0352-0.59474 17.982-2.5071 26.471-5.6561 0.20165-3.5268 0.16084-7.0657-0.12063-10.587-0.32442-4.0532-0.96534-8.0811-1.9218-12.033 3.4072-3.5233 6.5806-7.2738 9.4959-11.214 6.5964-8.9152 11.895-18.925 14.427-29.722 2.1918-9.3456 2.2335-19.358-1.061-28.374-3.3023-9.0375-9.8154-16.684-17.568-22.382-4.0238-2.9576-8.3832-5.4265-12.815-7.7289-1.5568-0.8089-3.1345-1.6022-4.8103-2.1219-2.5385-0.78734-5.2263-0.92609-7.8836-0.9779-14.566-0.28422-29.125 1.8582-43.209 5.5842-12.256 3.2425-24.192 7.685-35.586 13.245l-8.4953 5.607c-1.6005 5.8095-3.1861 11.623-4.7612 17.44-2.662 9.8302-5.3113 19.967-4.0853 30.077 0.62762 5.1736 2.2742 10.22 4.8216 14.767 0.874 1.56 1.8557 3.0598 2.9299 4.4893-2.3318 0.31565-4.6449 0.79525-6.9095 1.4348-2.8244 0.79764-5.5781 1.8439-8.2197 3.1226 0.2075 0.97657 0.52752 1.9317 0.95144 2.8355 1.0333 2.2015 2.67 4.0751 4.5082 5.6673 1.8383 1.5922 3.8851 2.9221 5.924 4.2477 5.7112 3.7128 11.44 7.4672 17.67 10.221 3.8193 1.6879 7.8096 2.9895 11.89 3.8777 2.1566-0.99966 4.214-2.2103 6.1355-3.6096 1.3654-0.99424 2.6328-2.1113 3.8475-3.2848zm21.756-94.004a16.94 15.007 18.914 0 1 5.1916 1.0005 16.94 15.007 18.914 0 1 11.161 19.687 16.94 15.007 18.914 0 1-20.887 8.7105 16.94 15.007 18.914 0 1-11.165-19.687 16.94 15.007 18.914 0 1 15.699-9.711zm-46.449 20.638a14.469 14.469 0 0 1 14.468 14.468 14.469 14.469 0 0 1-14.468 14.472 14.469 14.469 0 0 1-14.472-14.472 14.469 14.469 0 0 1 14.472-14.468z"/>
  <path d="m429.84 317.48a12.671 11.225 18.904 0 0-10.062 7.2456 12.671 11.225 18.904 0 0 8.3518 14.725 12.671 11.225 18.904 0 0 15.624-6.5169 12.671 11.225 18.904 0 0-8.3518-14.725 12.671 11.225 18.904 0 0-5.5616-0.72845z"/>
  <path d="m384.8 338.09a10.799 10.799 0 0 0-10.799 10.799 10.799 10.799 0 0 0 10.799 10.798 10.799 10.799 0 0 0 10.799-10.798 10.799 10.799 0 0 0-10.799-10.799z"/>
  <path d="m341.24 225.13c-0.74512 2.2762-1.0847 4.6838-0.95906 7.0756 0.23381 4.4563 2.0542 8.8113 5.0443 12.124 3.2457 3.5956 7.8014 5.9182 12.581 6.7057 4.1826 0.689 8.4963 0.2433 12.592-0.84959 4.6781-1.2479 9.1073-3.3247 13.275-5.7882 4.6115-2.7254 8.9418-5.9446 12.762-9.6997 1.5966-1.5696 3.0772-3.2481 4.4818-4.9915-0.20238-0.24915-0.41136-0.4983-0.6532-0.70945-1.1955-1.0443-2.7873-1.543-4.3685-1.6839-1.5812-0.14101-3.1735 0.0512-4.7498 0.23819-2.3262 0.27691-4.6553 0.54871-6.9624 0.95524-3.584 0.632-7.1074 1.5885-10.53 2.8242-2.483 0.89643-4.9197 1.9426-7.2191 3.2396-0.92973 0.5246-1.8346 1.0876-2.7147 1.6915 0.10749-0.69922 0.30469-1.382 0.58525-2.0313 0.81401-1.8859 2.3529-3.4516 4.2249-4.2968 0.34122-0.21553 0.59694-0.55894 0.70581-0.94771 0.10884-0.3887 0.0657-0.81671-0.11328-1.178-0.15639-0.31344-0.40915-0.57063-0.69484-0.77397-0.28494-0.20385-0.60204-0.35728-0.92126-0.50195-0.31273-0.14247-0.64809-0.2265-0.96658-0.35509-0.33902 0.0147-0.67657 0.0585-1.0157 0.0658-8.1389 0.38797-16.311-8.1e-4 -24.383-1.11z"/>
  <path d="m335.05 224.14c-1.0751 2.3853-1.8587 4.9007-2.2994 7.4797-0.88838 5.1985-0.40915 10.647 1.5367 15.548 2.2644 5.7046 6.5445 10.616 11.961 13.502 4.6827 2.4945 10.073 3.4539 15.378 3.417 6.4202-0.0438 12.827-1.5175 18.626-4.2741 3.5754-1.6998 6.9014-3.8706 10.251-5.9807 1.0586-0.66708 2.1234-1.3266 3.2471-1.8765 0.66563-0.32587 1.3504-0.61374 2.0502-0.85712-0.27399 0.6605-0.61595 1.2924-1.0232 1.8803-0.96628 1.3958-2.2685 2.5222-3.5907 3.5869-1.9709 1.587-4.0244 3.072-6.1506 4.444 13.36 1.7396 27.163-0.0438 39.641-5.1274 7.9528-3.2381 15.347-7.7783 22.043-13.155 6.7533-5.4228 12.941-11.885 16.405-19.822 2.6099-5.9793 3.5705-12.719 2.39-19.135-1.1454-6.226-4.2666-12.001-8.4576-16.745-3.836-4.3428-8.6215-7.9012-14.031-9.9792-5.4089-2.078-11.448-2.6334-17.066-1.2158-5.7531 1.4518-10.79 4.8407-15.798 8.0234-4.2588 2.7068-8.5878 5.3071-12.977 7.7968 5.5966-3.9862 10.783-8.5504 15.446-13.596 3.8675-4.1844 7.4023-8.7435 9.8697-13.88 2.4674-5.136 3.8315-10.898 3.232-16.564-0.74752-7.0658-4.6221-13.702-10.281-17.999-5.6954-4.3239-13.021-6.2612-20.166-5.9807-7.9717 0.31272-15.657 3.2477-22.552 7.2607-2.5408 1.4787-4.9949 3.1077-7.3475 4.8706-1.9542 1.4644-3.8386 3.0233-5.6447 4.6668 1.0892-1.7516 1.665-3.8162 1.6425-5.8788-4e-3 -0.3266-0.0218-0.65904-0.12063-0.97037-0.0986-0.31125-0.28495-0.60205-0.56261-0.77397-0.27837-0.17243-0.62397-0.2097-0.94771-0.1622-0.32367 0.0512-0.62909 0.17389-0.92879 0.30614-1.1335 0.4983-2.216 1.1053-3.2811 1.7368-6.2342 3.6965-11.955 8.2483-16.976 13.476a6.0823 14.439 32.204 0 1 3.1074 0.0438 6.0823 14.439 32.204 0 1-2.5486 15.458 6.0823 14.439 32.204 0 1-8.4991 8.4349c0.62105 0.65831 1.2388 1.3187 1.8236 2.0049 1.6832 1.9751 3.2785 4.1444 3.8512 6.6754 0.21407 0.94531 0.27911 1.9268 0.19293 2.8922-0.9315-1.2658-1.9095-2.5017-2.9262-3.7002-2.7023-3.1854-5.702-6.1273-9.0315-8.6501-4.356-3.3007-9.2799-5.8761-14.533-7.3853-3.6911-1.0605-7.6524-1.5747-11.365-0.60424 1.3029 3.6309 2.4869 7.3159 2.9186 11.142 0.13436 1.189 0.19655 2.4122-0.11328 3.568-0.2382 0.88897-0.69704 1.7178-1.3253 2.39-0.62833 0.67219-1.426 1.1862-2.2994 1.4763-1.1337 0.37628-2.366 0.37482-3.5454 0.18485s-2.3199-0.56114-3.4623-0.90995c-1.6253-0.49683-3.2633-0.96437-4.8367-1.6047-0.36094 3.1822-0.11619 6.4398 0.79288 9.5148 1.8507 6.2596 6.0848 11.597 11.059 15.824 9.505 8.0764 21.655 12.426 33.864 14.974 15.184 3.1696 30.894 3.7926 46.286 1.8728 9.5414-1.1901 19.138-3.4177 27.4-8.3368 4.897-2.9156 9.2472-6.7461 12.762-11.233-1.1135 4.2217-2.5396 8.3613-4.2628 12.373-2.9486 6.8645-6.7829 13.369-11.565 19.109-4.8268 5.7936-10.614 10.787-17.07 14.684-7.1981 4.3441-15.441 7.3503-23.844 7.0681-6.095-0.20458-12.229-2.2286-16.825-6.2374-3.0355-2.6479-5.3537-6.1348-6.4942-9.9981-1.0205-3.4568-1.0919-7.1668-0.38139-10.7 0.25427-1.2657 0.64077-2.5003 1.0874-3.7115-1.2489-0.19508-2.4952-0.41135-3.7379-0.64223zm27.902-71.055a7.5597 19.132 34.438 0 1 2.458 0.54725 7.5597 19.132 34.438 0 1-4.5875 20.057 7.5597 19.132 34.438 0 1-17.051 11.505 7.5597 19.132 34.438 0 1 4.5837-20.057 7.5597 19.132 34.438 0 1 14.597-12.052zm59.396 35.488c3.6453 0.1074 7.2736 1.2964 10.191 3.485 2.3042 1.7288 4.1541 4.0801 5.1954 6.766 0.41646 1.0737 0.70506 2.203 0.76644 3.3528 0.0365 0.73758-0.0155 1.4811-0.16219 2.205-0.55894-0.71456-1.1176-1.431-1.6727-2.1484-1.4936-1.9306-2.9874-3.8878-4.8517-5.4634-2.9542-2.4968-6.7688-3.9234-10.632-4.108-2.795-0.13371-5.6248 0.36752-8.1857 1.4952-1.6991 0.74818-3.2781 1.7686-4.6592 3.0092 0.4223-1.231 1.051-2.3899 1.8501-3.417 1.4037-1.8045 3.3288-3.1792 5.4483-4.0362 2.1194-0.85697 4.428-1.2078 6.7131-1.1403z"/>
  <path d="m509.12 82.761c-0.63422-0.55967-1.2235-1.1709-1.7331-1.8463-1.4608-1.9366-2.3346-4.2559-2.9148-6.6113-0.8092-3.2848-1.0854-6.7016-0.81175-10.074-2.2366-0.37555-4.4491-0.88306-6.6264-1.5178-4.2374-1.2354-8.3245-2.951-12.267-4.9349-4.3618-2.1946-8.661-4.8089-11.671-8.6539-0.74941-0.95743-1.3727-2.0002-1.9369-3.0772l-25.312 26.653c0.59476 0.78413 1.2653 1.5085 2.0766 2.0653 1.8507 1.27 4.0985 1.8202 6.3206 2.1371 2.6002 0.37044 5.2421 0.45738 7.861 0.25646-1.7167 3.0436-3.6578 5.959-5.807 8.7143-3.6189 4.6392-7.8822 8.8644-12.988 11.788-3.8104 2.1814-8.0868 3.614-12.471 3.8474-1.0886 0.0585-2.1932 0.0365-3.2584-0.19289-1.0652-0.23234-2.0977-0.689-2.896-1.431-0.74964-0.69703-1.271-1.6349-1.4687-2.6392-0.0439-0.22577-0.0155-0.45738-0.0292-0.68753l-21.038 22.152c0.9996 0.83849 1.9772 1.702 2.9601 2.5599 3.6111 0.85054 7.1241 2.118 10.579 3.485 6.4053 2.5339 12.727 5.3797 18.478 9.1712 3.7266 2.4568 7.1862 5.2911 10.644 8.1139 2.3983 1.9581 4.7936 3.9415 7.0643 6.0449z"/>
  <path d="m365.31 125.35c0.24331-0.0877 0.47637-0.20385 0.72114-0.28714 3.4388-1.1676 7.0085-1.8975 10.572-2.5977 7.5846-1.4903 15.347-2.7456 23.005-2.0125-6.2213-4.7221-12.361-9.5538-18.391-14.518-3.606-2.9682-7.1838-5.9815-11.04-8.6161-2.9254-1.9986-6.083-3.8041-9.5676-4.444-2.3989-0.44058-4.9445-0.29737-7.1776 0.68315-2.1911 0.96248-4.0304 2.7496-4.9538 4.9575-1.0681 2.554-0.87393 5.4949-0.0218 8.1291 1.137 3.5182 3.3533 6.5767 5.6561 9.4694 2.6626 3.3449 5.5966 6.6436 9.4316 8.5331 0.56989 0.28057 1.1686 0.49026 1.7671 0.70215z"/>
  <path d="m423.19 96.557c0.0155 0.22942-0.0155 0.46177 0.0292 0.68753 0.19799 1.0043 0.71894 1.9422 1.4687 2.6392 0.7983 0.74197 1.8308 1.1986 2.896 1.431 1.0651 0.22942 2.1698 0.25134 3.2584 0.19289 2.1911-0.1169 4.3565-0.53337 6.4489-1.1931 2.0934-0.65977 4.117-1.5636 6.0223-2.6543 5.1062-2.9233 9.3695-7.1485 12.988-11.788 1.0746-1.3776 2.0973-2.794 3.0658-4.2477 0.96782-1.4529 1.8833-2.9458 2.7412-4.4666-2.6189 0.20093-5.2608 0.11398-7.861-0.25646-2.2221-0.3171-4.4698-0.86705-6.3206-2.1371-0.4647-0.31929-0.8765-0.70142-1.2611-1.1101-0.29883-0.29883-0.5604-0.61885-0.81554-0.95524z" stroke="#000" stroke-width="2.9"/>
 </g>
</svg>
