<?xml version="1.0" encoding="utf-8"?>
<!-- Generator: Adobe Illustrator 27.0.0, SVG Export Plug-In . SVG Version: 6.00 Build 0)  -->
<svg version="1.1" id="Layer_2_00000082344766890699835690000009226773942739693217_"
	 xmlns="http://www.w3.org/2000/svg" xmlns:xlink="http://www.w3.org/1999/xlink" x="0px" y="0px" viewBox="0 0 6998.9 3999.4"
	 style="enable-background:new 0 0 6998.9 3999.4;" xml:space="preserve">
<style type="text/css">
	.st0{filter:url(#Adobe_OpacityMaskFilter);}
	.st1{fill:url(#SVGID_1_);}
	.st2{mask:url(#Layer_1-2_00000113347745573487366050000007337574508274955932_);}
	.st3{fill:none;}
	.st4{clip-path:url(#SVGID_00000078024600904044315630000003025873185978035099_);}
	.st5{fill:url(#SVGID_00000149377113307260911240000007248122770415187584_);}
	.st6{clip-path:url(#SVGID_00000067952817283695503180000001163876618378782387_);}
	.st7{fill:url(#SVGID_00000124870271688147687640000003424040395516521344_);}
	.st8{clip-path:url(#SVGID_00000049197501232846309820000005425698344353230748_);}
	.st9{fill:url(#SVGID_00000129896069479832928130000001353766220655018915_);}
	.st10{clip-path:url(#SVGID_00000078757072362818044260000017058406103483883685_);}
	.st11{fill:url(#SVGID_00000134225477797668954720000001107862092917841293_);}
	.st12{clip-path:url(#SVGID_00000065787858583711033180000003623327889664054444_);}
	.st13{fill:url(#SVGID_00000061464277797009248140000015525288036587936146_);}
	.st14{clip-path:url(#SVGID_00000046321331277343425690000012118281829525441954_);}
	.st15{fill:url(#SVGID_00000165948836827896950560000018070215497258305181_);}
	.st16{clip-path:url(#SVGID_00000161614304657125177800000008335835013289402532_);}
	.st17{fill:url(#SVGID_00000159431154990872688190000006904538900692840087_);}
	.st18{clip-path:url(#SVGID_00000018238975505787970390000011026159647921600698_);}
	.st19{fill:url(#SVGID_00000152984079950171730630000008752060852680962703_);}
	.st20{clip-path:url(#SVGID_00000112616607576495958280000007324517529797959331_);}
	.st21{fill:url(#SVGID_00000134929619592320724430000005712090412850360213_);}
	.st22{clip-path:url(#SVGID_00000102519374636686297480000006526372472107789487_);}
	.st23{fill:url(#SVGID_00000149348230619404405930000004512462057808884886_);}
	.st24{clip-path:url(#SVGID_00000165948436781348999710000015194051077790715567_);}
	.st25{fill:url(#SVGID_00000176754456343781244940000012210227685366197408_);}
	.st26{clip-path:url(#SVGID_00000004518518369699726780000013213700341349304224_);}
	.st27{fill:url(#SVGID_00000104669541547765354880000006613366644255009174_);}
	.st28{clip-path:url(#SVGID_00000124148637942391164020000000283735181358229174_);}
	.st29{fill:url(#SVGID_00000104666421181196198580000003451423548858966968_);}
	.st30{clip-path:url(#SVGID_00000138575191792302161320000001160239669638173103_);}
	.st31{fill:url(#SVGID_00000078761005236260367840000002421529455257946288_);}
	.st32{clip-path:url(#SVGID_00000094614244521827740860000002187220358264619393_);}
	.st33{fill:url(#SVGID_00000057835992580809188870000010225158715665483399_);}
	.st34{clip-path:url(#SVGID_00000015340920863992456310000016145628721972225435_);}
	.st35{fill:url(#SVGID_00000166668990397524309900000007179805458119604886_);}
	.st36{clip-path:url(#SVGID_00000145769215359429281190000010484995300235940999_);}
	.st37{fill:url(#SVGID_00000152957404047620910720000004560593933909164473_);}
	.st38{clip-path:url(#SVGID_00000037693935625823868260000007782321111516667580_);}
	.st39{fill:url(#SVGID_00000103266298233433984620000009528881978313360013_);}
	.st40{clip-path:url(#SVGID_00000133496198495483435290000013912844838872318900_);}
	.st41{fill:url(#SVGID_00000105387800828570047340000015054902180561141923_);}
	.st42{clip-path:url(#SVGID_00000008870659254369665840000018179549092353916825_);}
	.st43{fill:url(#SVGID_00000020379387693363919090000003002162492127484043_);}
	.st44{clip-path:url(#SVGID_00000077318986134457102250000018133333060984064959_);}
	.st45{fill:url(#SVGID_00000127738187261053918340000008549554742474172327_);}
</style>
<defs>
	<filter id="Adobe_OpacityMaskFilter" filterUnits="userSpaceOnUse" x="0" y="0" width="6999" height="3999.5">
		<feColorMatrix  type="matrix" values="1 0 0 0 0  0 1 0 0 0  0 0 1 0 0  0 0 0 1 0"/>
	</filter>
</defs>
<mask maskUnits="userSpaceOnUse" x="0" y="0" width="6999" height="3999.5" id="Layer_1-2_00000113347745573487366050000007337574508274955932_">
	<g class="st0">
		
			<linearGradient id="SVGID_1_" gradientUnits="userSpaceOnUse" x1="0" y1="2000.3" x2="6998.8999" y2="2000.3" gradientTransform="matrix(1 0 0 -1 0 4000)">
			<stop  offset="0" style="stop-color:#FFFFFF"/>
			<stop  offset="0.1102" style="stop-color:#CBCBCB"/>
			<stop  offset="0.239" style="stop-color:#969696"/>
			<stop  offset="0.3696" style="stop-color:#686868"/>
			<stop  offset="0.4992" style="stop-color:#434343"/>
			<stop  offset="0.6276" style="stop-color:#252525"/>
			<stop  offset="0.7546" style="stop-color:#111111"/>
			<stop  offset="0.8795" style="stop-color:#040404"/>
			<stop  offset="1" style="stop-color:#000000"/>
		</linearGradient>
		<rect class="st1" width="6998.9" height="3999.4"/>
	</g>
</mask>
<g id="Layer_1-2" class="st2">
	<g>
		<rect class="st3" width="6998.9" height="3999.4"/>
		<g>
			<g>
				<defs>
					<path id="SVGID_00000077282702577512683920000012802556535418722184_" d="M0,2180.6l204-20.4L1164.3,682
						c943.9,37,1887.8,73.3,2831.7,109.5l-714.2,1649l2213.6-1061.8L6999,673.5v6.4l-0.4-0.3l-1500.9,703.9l-2226.5,1068l716.8-1655
						l-2820.9-109l-960,1477.7c-69,6.9-138.1,13.9-207.1,20.8L0,2180.6L0,2180.6z"/>
				</defs>
				<clipPath id="SVGID_00000028285423498597918990000011873748616086181802_">
					<use xlink:href="#SVGID_00000077282702577512683920000012802556535418722184_"  style="overflow:visible;"/>
				</clipPath>
				<g style="clip-path:url(#SVGID_00000028285423498597918990000011873748616086181802_);">
					
						<linearGradient id="SVGID_00000036241306722256291220000002729457782950053779_" gradientUnits="userSpaceOnUse" x1="-286.2764" y1="-365.0365" x2="7231.4238" y2="-3884.7966" gradientTransform="matrix(1 0 0 1 0 3700)">
						<stop  offset="0" style="stop-color:#0049E6"/>
						<stop  offset="0.42" style="stop-color:#39D4FF"/>
						<stop  offset="1" style="stop-color:#FF00E9"/>
					</linearGradient>
					
						<rect y="673.5" style="fill:url(#SVGID_00000036241306722256291220000002729457782950053779_);" width="6998.9" height="1778"/>
				</g>
			</g>
		</g>
		<g>
			<g>
				<defs>
					<path id="SVGID_00000062897375325546894690000012037254706112364945_" d="M0,2280.5l298-36.1l929.4-1497.7
						c944.4,18.4,1888.9,33.8,2833.3,50.7l-679.8,1663.5L5572,1353.2l1426.9-705.7v6L5574.4,1358L3370.6,2472l682.3-1669.5
						L1230.3,752L301.2,2249.4L0,2286.1V2280.5L0,2280.5z"/>
				</defs>
				<clipPath id="SVGID_00000076601771484527366770000003330106566617021325_">
					<use xlink:href="#SVGID_00000062897375325546894690000012037254706112364945_"  style="overflow:visible;"/>
				</clipPath>
				<g style="clip-path:url(#SVGID_00000076601771484527366770000003330106566617021325_);">
					
						<linearGradient id="SVGID_00000059270670045664659090000005123792453463885211_" gradientUnits="userSpaceOnUse" x1="-287.3591" y1="-367.3296" x2="7230.3408" y2="-3887.0898" gradientTransform="matrix(1 0 0 1 0 3700)">
						<stop  offset="0" style="stop-color:#0049E6"/>
						<stop  offset="0.42" style="stop-color:#39D4FF"/>
						<stop  offset="1" style="stop-color:#FF00E9"/>
					</linearGradient>
					
						<rect y="647.4" style="fill:url(#SVGID_00000059270670045664659090000005123792453463885211_);" width="6998.9" height="1824.6"/>
				</g>
			</g>
		</g>
		<g>
			<g>
				<defs>
					<path id="SVGID_00000017501482568755403470000017777507393681370303_" d="M0,2384l392.8-55.9l898.1-1516.7
						c944.6-1.7,1889.2-4.9,2833.8-8.2l-645.1,1677.2l2167.6-1152.9L6999,623.6v6.1l-1349.3,702.6L3469.4,2491.9l647.4-1683.3
						l-2822.9,8.2L396.1,2333.1C264,2352,132,2370.9,0,2389.9V2384z"/>
				</defs>
				<clipPath id="SVGID_00000045580998821538891100000007863109593550943143_">
					<use xlink:href="#SVGID_00000017501482568755403470000017777507393681370303_"  style="overflow:visible;"/>
				</clipPath>
				<g style="clip-path:url(#SVGID_00000045580998821538891100000007863109593550943143_);">
					
						<linearGradient id="SVGID_00000101080239190649000320000006912340726398050722_" gradientUnits="userSpaceOnUse" x1="-288.0972" y1="-368.9365" x2="7229.6128" y2="-3888.6965" gradientTransform="matrix(1 0 0 1 0 3700)">
						<stop  offset="0" style="stop-color:#0049E6"/>
						<stop  offset="0.42" style="stop-color:#39D4FF"/>
						<stop  offset="1" style="stop-color:#FF00E9"/>
					</linearGradient>
					
						<rect y="623.6" style="fill:url(#SVGID_00000101080239190649000320000006912340726398050722_);" width="6998.9" height="1868.3"/>
				</g>
			</g>
		</g>
		<g>
			<g>
				<defs>
					<path id="SVGID_00000067958871615290721620000016280496112845002930_" d="M0,2491.4l488.2-79.9l866.3-1535
						c944.3-21.8,1888.7-44.4,2833-67.1l-610.1,1690.3L5720.6,1302l1278.3-699.8v6.1l-1275.7,698.3L3567.5,2511.3l612.3-1696.4
						l-2822.1,66.8L491.6,2416.4C327.7,2443.2,163.8,2470,0,2496.8V2491.4z"/>
				</defs>
				<clipPath id="SVGID_00000062892928632625456120000018382869338799000450_">
					<use xlink:href="#SVGID_00000067958871615290721620000016280496112845002930_"  style="overflow:visible;"/>
				</clipPath>
				<g style="clip-path:url(#SVGID_00000062892928632625456120000018382869338799000450_);">
					
						<linearGradient id="SVGID_00000041272429302111904590000003154330514187320713_" gradientUnits="userSpaceOnUse" x1="-288.4827" y1="-369.7558" x2="7229.2271" y2="-3889.5159" gradientTransform="matrix(1 0 0 1 0 3700)">
						<stop  offset="0" style="stop-color:#0049E6"/>
						<stop  offset="0.42" style="stop-color:#39D4FF"/>
						<stop  offset="1" style="stop-color:#FF00E9"/>
					</linearGradient>
					
						<rect y="602.2" style="fill:url(#SVGID_00000041272429302111904590000003154330514187320713_);" width="6998.9" height="1909.1"/>
				</g>
			</g>
		</g>
		<g>
			<g>
				<defs>
					<path id="SVGID_00000160900698275126109610000012362235907336889479_" d="M0,2602.5l584.3-108.1l834.3-1552.7
						c943.7-41.5,1887.4-83.7,2831-125.9l-574.9,1702.6l2117.8-1241.9L6998.9,583v6.2L5795.3,1281L3665.1,2530.2L4242,821.4
						L1421.9,946.9l-834,1552.3c-196,36.4-391.9,72.7-587.9,109.1V2602.5L0,2602.5z"/>
				</defs>
				<clipPath id="SVGID_00000181802530942926867760000012272831814290274191_">
					<use xlink:href="#SVGID_00000160900698275126109610000012362235907336889479_"  style="overflow:visible;"/>
				</clipPath>
				<g style="clip-path:url(#SVGID_00000181802530942926867760000012272831814290274191_);">
					
						<linearGradient id="SVGID_00000108291703147191681750000009134893219757337753_" gradientUnits="userSpaceOnUse" x1="-273.5672" y1="-337.8871" x2="7244.1328" y2="-3857.647" gradientTransform="matrix(1 0 0 1 0 3700)">
						<stop  offset="0" style="stop-color:#0049E6"/>
						<stop  offset="0.42" style="stop-color:#39D4FF"/>
						<stop  offset="1" style="stop-color:#FF00E9"/>
					</linearGradient>
					
						<rect y="583" style="fill:url(#SVGID_00000108291703147191681750000009134893219757337753_);" width="6998.9" height="2025.2"/>
				</g>
			</g>
		</g>
		<g>
			<g>
				<defs>
					<path id="SVGID_00000106130722844660950810000004503159001861545895_" d="M0,2717.5l681.2-140.8L1483,1007.1
						C2425.6,947,3368.2,884,4310.8,822.4l-539.4,1714.1L5863,1250.8l1136-684.7v6.3l-1133.1,683L3762,2548.6l541.3-1720.4
						l-2816.9,184L684.8,2581.5c-228.2,47.6-456.5,94.9-684.8,142.1V2717.5L0,2717.5z"/>
				</defs>
				<clipPath id="SVGID_00000027565431165021709960000011634122013660202154_">
					<use xlink:href="#SVGID_00000106130722844660950810000004503159001861545895_"  style="overflow:visible;"/>
				</clipPath>
				<g style="clip-path:url(#SVGID_00000027565431165021709960000011634122013660202154_);">
					
						<linearGradient id="SVGID_00000028309650323609440320000001551953841716304518_" gradientUnits="userSpaceOnUse" x1="-254.6314" y1="-297.4528" x2="7263.0469" y2="-3817.2024" gradientTransform="matrix(1 0 0 1 0 3700)">
						<stop  offset="0" style="stop-color:#0049E6"/>
						<stop  offset="0.42" style="stop-color:#39D4FF"/>
						<stop  offset="1" style="stop-color:#FF00E9"/>
					</linearGradient>
					
						<rect y="566.2" style="fill:url(#SVGID_00000028309650323609440320000001551953841716304518_);" width="6998.9" height="2157.4"/>
				</g>
			</g>
		</g>
		<g>
			<g>
				<defs>
					<path id="SVGID_00000006696827657343200730000010092241957114171818_" d="M0,2836.5l778.7-177.8l769-1586
						C2488.9,993,3430,910.5,4371,829.2l-503.6,1725l2064.4-1328.8l1067.1-673.8v6.3l-1064.2,672L3858.2,2566.5l505.5-1731.2
						l-2812.5,242.5L782.4,2663.4C521.6,2723.2,260.8,2783.1,0,2842.8V2836.5L0,2836.5z"/>
				</defs>
				<clipPath id="SVGID_00000029031048208738132570000001881242627759803839_">
					<use xlink:href="#SVGID_00000006696827657343200730000010092241957114171818_"  style="overflow:visible;"/>
				</clipPath>
				<g style="clip-path:url(#SVGID_00000029031048208738132570000001881242627759803839_);">
					
						<linearGradient id="SVGID_00000005253210179217085870000003245769955697894566_" gradientUnits="userSpaceOnUse" x1="-234.5491" y1="-254.5582" x2="7283.1206" y2="-3774.2981" gradientTransform="matrix(1 0 0 1 0 3700)">
						<stop  offset="0" style="stop-color:#0049E6"/>
						<stop  offset="0.42" style="stop-color:#39D4FF"/>
						<stop  offset="1" style="stop-color:#FF00E9"/>
					</linearGradient>
					
						<rect y="551.6" style="fill:url(#SVGID_00000005253210179217085870000003245769955697894566_);" width="6998.9" height="2291.2"/>
				</g>
			</g>
		</g>
		<g>
			<g>
				<defs>
					<path id="SVGID_00000013178991248495223630000016335770607539168128_" d="M0,2959.6l876.8-219.5l735.9-1601.7
						c939.3-100.1,1878.5-200.9,2817.7-302l-467.7,1735.1L5999,1200.1l999.9-660.8v6.4L6002,1204.5L3953.8,2584l469.4-1741.4
						l-2806.8,300.9L880.6,2744.7c-293.5,73.5-587.1,147-880.6,220.4V2959.6L0,2959.6z"/>
				</defs>
				<clipPath id="SVGID_00000142164097994497344570000013314316872421809844_">
					<use xlink:href="#SVGID_00000013178991248495223630000016335770607539168128_"  style="overflow:visible;"/>
				</clipPath>
				<g style="clip-path:url(#SVGID_00000142164097994497344570000013314316872421809844_);">
					
						<linearGradient id="SVGID_00000134225720378455463460000004555234311910692528_" gradientUnits="userSpaceOnUse" x1="-213.4073" y1="-209.404" x2="7304.2729" y2="-3729.1541" gradientTransform="matrix(1 0 0 1 0 3700)">
						<stop  offset="0" style="stop-color:#0049E6"/>
						<stop  offset="0.42" style="stop-color:#39D4FF"/>
						<stop  offset="1" style="stop-color:#FF00E9"/>
					</linearGradient>
					
						<rect y="539.3" style="fill:url(#SVGID_00000134225720378455463460000004555234311910692528_);" width="6998.9" height="2425.9"/>
				</g>
			</g>
		</g>
		<g>
			<g>
				<defs>
					<path id="SVGID_00000008856568360118727380000013317406634066997642_" d="M0,3087l975.6-266l702.5-1616.6
						c937-119.6,1873.9-239.8,2810.8-360.5l-431.5,1744.4l2007.4-1413.4L6999,529.3v6.5l-931.1,643.5L4048.7,2601l433.1-1750.8
						l-2800,359.1L979.5,2825.5C653,2914.4,326.5,3003.7,0,3092.9V3087L0,3087z"/>
				</defs>
				<clipPath id="SVGID_00000151537423352336078900000005274617091229483682_">
					<use xlink:href="#SVGID_00000008856568360118727380000013317406634066997642_"  style="overflow:visible;"/>
				</clipPath>
				<g style="clip-path:url(#SVGID_00000151537423352336078900000005274617091229483682_);">
					
						<linearGradient id="SVGID_00000085209911293452563670000011031183085270700198_" gradientUnits="userSpaceOnUse" x1="-190.8128" y1="-161.1345" x2="7326.897" y2="-3680.8945" gradientTransform="matrix(1 0 0 1 0 3700)">
						<stop  offset="0" style="stop-color:#0049E6"/>
						<stop  offset="0.42" style="stop-color:#39D4FF"/>
						<stop  offset="1" style="stop-color:#FF00E9"/>
					</linearGradient>
					
						<rect y="529.3" style="fill:url(#SVGID_00000085209911293452563670000011031183085270700198_);" width="6998.9" height="2563.6"/>
				</g>
			</g>
		</g>
		<g>
			<g>
				<defs>
					<path id="SVGID_00000083053200105372619440000008157356369884704909_" d="M0,3218.6l1075.1-317.2l668.8-1630.8
						c934.4-138.2,1868.5-279.2,2802.7-418.8l-395.2,1753L6129,1149.9l870-628.4v6.6l-866.9,626.1L4142.9,2617.6l396.6-1759.4
						l-2791.9,417.2L1079,2905.8C719.4,3012.2,359.7,3118.6,0,3224.9V3218.6L0,3218.6z"/>
				</defs>
				<clipPath id="SVGID_00000056418190203064495930000001575809040899948955_">
					<use xlink:href="#SVGID_00000083053200105372619440000008157356369884704909_"  style="overflow:visible;"/>
				</clipPath>
				<g style="clip-path:url(#SVGID_00000056418190203064495930000001575809040899948955_);">
					
						<linearGradient id="SVGID_00000067954016706027302800000005626232631574173059_" gradientUnits="userSpaceOnUse" x1="-166.9625" y1="-110.2039" x2="7350.7378" y2="-3629.9541" gradientTransform="matrix(1 0 0 1 0 3700)">
						<stop  offset="0" style="stop-color:#0049E6"/>
						<stop  offset="0.42" style="stop-color:#39D4FF"/>
						<stop  offset="1" style="stop-color:#FF00E9"/>
					</linearGradient>
					
						<rect y="521.5" style="fill:url(#SVGID_00000067954016706027302800000005626232631574173059_);" width="6998.9" height="2703.4"/>
				</g>
			</g>
		</g>
		<g>
			<g>
				<defs>
					<path id="SVGID_00000052077111314394816770000015071657704835741106_" d="M0,3354.7l1175.1-373.4l634.7-1644.4
						c931.2-158.8,1862.3-317.5,2793.4-477l-358.7,1760.8l1947-1495.6L6998.9,516v6.7l-804.2,606.7L4236.4,2633.8l360-1767.2
						l-2782.6,475.1l-634.6,1643.9C786.2,3110.8,393.1,3235.9,0,3360.8V3354.7L0,3354.7z"/>
				</defs>
				<clipPath id="SVGID_00000041285659964607752520000011738378385489895313_">
					<use xlink:href="#SVGID_00000052077111314394816770000015071657704835741106_"  style="overflow:visible;"/>
				</clipPath>
				<g style="clip-path:url(#SVGID_00000041285659964607752520000011738378385489895313_);">
					
						<linearGradient id="SVGID_00000029015422541390234390000014569093628536465591_" gradientUnits="userSpaceOnUse" x1="-141.9315" y1="-56.7234" x2="7375.7485" y2="-3576.4636" gradientTransform="matrix(1 0 0 1 0 3700)">
						<stop  offset="0" style="stop-color:#0049E6"/>
						<stop  offset="0.42" style="stop-color:#39D4FF"/>
						<stop  offset="1" style="stop-color:#FF00E9"/>
					</linearGradient>
					
						<rect y="516" style="fill:url(#SVGID_00000029015422541390234390000014569093628536465591_);" width="6998.9" height="2844.8"/>
				</g>
			</g>
		</g>
		<g>
			<g>
				<defs>
					<path id="SVGID_00000020399173091430937960000008388230996883539853_" d="M0,3495.3l1275.8-434.8l600.4-1657.2
						c927.6-178.5,1855.3-356.4,2782.9-534.9l-322,1767.9C5224,1925.2,6108.7,1218.1,6999,513.8v5.8l-743.1,585.2L4329.2,2649.5
						l323.2-1774.3L1880.2,1408L1280,3064.8C853.6,3211,426.8,3356.6,0,3501.8V3495.3z"/>
				</defs>
				<clipPath id="SVGID_00000099651915114403738340000012874866410563467449_">
					<use xlink:href="#SVGID_00000020399173091430937960000008388230996883539853_"  style="overflow:visible;"/>
				</clipPath>
				<g style="clip-path:url(#SVGID_00000099651915114403738340000012874866410563467449_);">
					
						<linearGradient id="SVGID_00000031907974941146950870000018020553758589150356_" gradientUnits="userSpaceOnUse" x1="-115.279" y1="0.2007" x2="7402.4106" y2="-3519.5496" gradientTransform="matrix(1 0 0 1 0 3700)">
						<stop  offset="0" style="stop-color:#0049E6"/>
						<stop  offset="0.42" style="stop-color:#39D4FF"/>
						<stop  offset="1" style="stop-color:#FF00E9"/>
					</linearGradient>
					
						<rect y="513.8" style="fill:url(#SVGID_00000031907974941146950870000018020553758589150356_);" width="6998.9" height="2988"/>
				</g>
			</g>
		</g>
		<g>
			<g>
				<defs>
					<path id="SVGID_00000047038314995342884450000017614724111114817426_" d="M0,3640.7l1377.1-501.4L1943,1469.9
						c923.9-196.4,1847.6-394.6,2771.2-592.6L4429,2651.5l1883-1575.2l686.9-564.5v7l-683.5,561.6L4421.3,2664.9l286.2-1780.7
						L1947,1474.5l-565.7,1668.9C921,3311.5,460.5,3479.1,0,3646.7V3640.7L0,3640.7z"/>
				</defs>
				<clipPath id="SVGID_00000142890627042537350870000007745905086814807191_">
					<use xlink:href="#SVGID_00000047038314995342884450000017614724111114817426_"  style="overflow:visible;"/>
				</clipPath>
				<g style="clip-path:url(#SVGID_00000142890627042537350870000007745905086814807191_);">
					
						<linearGradient id="SVGID_00000046338679769797606280000004411961674656970664_" gradientUnits="userSpaceOnUse" x1="-87.8174" y1="58.8457" x2="7429.8828" y2="-3460.9146" gradientTransform="matrix(1 0 0 1 0 3700)">
						<stop  offset="0" style="stop-color:#0049E6"/>
						<stop  offset="0.42" style="stop-color:#39D4FF"/>
						<stop  offset="1" style="stop-color:#FF00E9"/>
					</linearGradient>
					
						<rect y="511.9" style="fill:url(#SVGID_00000046338679769797606280000004411961674656970664_);" width="6998.9" height="3134.8"/>
				</g>
			</g>
		</g>
		<g>
			<g>
				<defs>
					<path id="SVGID_00000019638678316326127130000005853065243498767765_" d="M0,3791l1479-573.6l531-1680.7
						c919.6-215.8,1838.9-433.3,2758.2-650L4520,2666.4C5345.9,1945.9,6169.9,1229,6998.9,514.7v5.6l-625.4,536.1L4512.7,2679.9
						l249.2-1786.2l-2747.6,647.5l-530.9,1680.3C988.9,3413.4,494.5,3605.7,0,3797.5V3791z"/>
				</defs>
				<clipPath id="SVGID_00000023251261858179008890000000165850361789712002_">
					<use xlink:href="#SVGID_00000019638678316326127130000005853065243498767765_"  style="overflow:visible;"/>
				</clipPath>
				<g style="clip-path:url(#SVGID_00000023251261858179008890000000165850361789712002_);">
					
						<linearGradient id="SVGID_00000040539783958652387090000004086893587438046909_" gradientUnits="userSpaceOnUse" x1="-58.3443" y1="121.7981" x2="7459.3057" y2="-3397.9421" gradientTransform="matrix(1 0 0 1 0 3700)">
						<stop  offset="0" style="stop-color:#0049E6"/>
						<stop  offset="0.42" style="stop-color:#39D4FF"/>
						<stop  offset="1" style="stop-color:#FF00E9"/>
					</linearGradient>
					
						<rect y="514.7" style="fill:url(#SVGID_00000040539783958652387090000004086893587438046909_);" width="6998.9" height="3282.7"/>
				</g>
			</g>
		</g>
		<g>
			<g>
				<defs>
					<path id="SVGID_00000145037749344455680280000007738226897695109252_" d="M0,3946.4L1581.4,3295l496-1691.4
						c914.8-235.3,1829.5-471.1,2744.2-707.2l-211.3,1784.5l1816.1-1652.1L6998.9,517v7.2L6430,1032.8L4603.3,2694.5l212-1791
						L2081.8,1608l-495.9,1690.9C1057.3,3516.8,528.6,3734.5,0,3952.2V3946.4z"/>
				</defs>
				<clipPath id="SVGID_00000060001449149601740720000017066519263219431825_">
					<use xlink:href="#SVGID_00000145037749344455680280000007738226897695109252_"  style="overflow:visible;"/>
				</clipPath>
				<g style="clip-path:url(#SVGID_00000060001449149601740720000017066519263219431825_);">
					
						<linearGradient id="SVGID_00000068636354950984472440000012582972804116747705_" gradientUnits="userSpaceOnUse" x1="-30.4035" y1="187.2623" x2="7487.2861" y2="-3332.4878" gradientTransform="matrix(1 0 0 1 0 3700)">
						<stop  offset="0" style="stop-color:#0049E6"/>
						<stop  offset="0.42" style="stop-color:#39D4FF"/>
						<stop  offset="1" style="stop-color:#FF00E9"/>
					</linearGradient>
					
						<rect y="517" style="fill:url(#SVGID_00000068636354950984472440000012582972804116747705_);" width="6998.9" height="3435.2"/>
				</g>
			</g>
		</g>
		<g>
			<g>
				<defs>
					<path id="SVGID_00000108999706177163370500000011109235615327649929_" d="M246.9,3999.4l1437.6-627.5l460.8-1701.4
						c909.9-253.3,1819.3-509.3,2728.9-764.1L4700,2695.1c765.8-726.3,1530.4-1448.6,2299-2169.3v4.7l-513.9,479L4693.2,2708.8
						l174.8-1795l-2718.4,761.1L1689,3375.8c-476.2,207.9-952.4,415.8-1428.7,623.6H246.9L246.9,3999.4z"/>
				</defs>
				<clipPath id="SVGID_00000142897733132478100920000000838207464098052522_">
					<use xlink:href="#SVGID_00000108999706177163370500000011109235615327649929_"  style="overflow:visible;"/>
				</clipPath>
				<g style="clip-path:url(#SVGID_00000142897733132478100920000000838207464098052522_);">
					
						<linearGradient id="SVGID_00000051345999422838137480000017227322537063603598_" gradientUnits="userSpaceOnUse" x1="4.781" y1="256.6137" x2="7522.481" y2="-3263.1462" gradientTransform="matrix(1 0 0 1 0 3700)">
						<stop  offset="0" style="stop-color:#0049E6"/>
						<stop  offset="0.42" style="stop-color:#39D4FF"/>
						<stop  offset="1" style="stop-color:#FF00E9"/>
					</linearGradient>
					
						<rect x="246.9" y="525.8" style="fill:url(#SVGID_00000051345999422838137480000017227322537063603598_);" width="6752.1" height="3473.6"/>
				</g>
			</g>
		</g>
		<g>
			<g>
				<defs>
					<path id="SVGID_00000101807392246892576890000017636763923683781541_" d="M593.7,3999.4l1194.4-551.1l425.3-1710.6
						c904.4-272.5,1808.3-546.8,2712.4-820.6l-137,1791.8L6534.7,982.8l464.2-451v7.5l-460.5,447.4l-1756,1736.1l137.5-1798.3
						l-2702,817.4L1792.7,3452c-395.1,182.5-790.1,365-1185.3,547.4H593.7L593.7,3999.4z"/>
				</defs>
				<clipPath id="SVGID_00000101086625165109511640000003298097729848224641_">
					<use xlink:href="#SVGID_00000101807392246892576890000017636763923683781541_"  style="overflow:visible;"/>
				</clipPath>
				<g style="clip-path:url(#SVGID_00000101086625165109511640000003298097729848224641_);">
					
						<linearGradient id="SVGID_00000012448217864675466190000013048609314786949764_" gradientUnits="userSpaceOnUse" x1="37.1098" y1="325.6624" x2="7554.79" y2="-3194.0876" gradientTransform="matrix(1 0 0 1 0 3700)">
						<stop  offset="0" style="stop-color:#0049E6"/>
						<stop  offset="0.42" style="stop-color:#39D4FF"/>
						<stop  offset="1" style="stop-color:#FF00E9"/>
					</linearGradient>
					
						<rect x="593.7" y="531.8" style="fill:url(#SVGID_00000012448217864675466190000013048609314786949764_);" width="6405.3" height="3467.6"/>
				</g>
			</g>
		</g>
		<g>
			<g>
				<defs>
					<path id="SVGID_00000153673271359665513500000012762369651515871111_" d="M915.7,3999.4l976.5-475.4l389.7-1719
						c898.3-292.2,1796.5-584.5,2694.8-876.8L4877,2722.4l1709.6-1762l412.3-417.6v7.6l-408.5,413.7L4870.8,2736.4l100-1800.8
						L2286.4,1809l-389.6,1718.6c-323.1,157.4-646.2,314.5-969.4,471.7L915.7,3999.4L915.7,3999.4z"/>
				</defs>
				<clipPath id="SVGID_00000006685555154537289530000005758760434504141708_">
					<use xlink:href="#SVGID_00000153673271359665513500000012762369651515871111_"  style="overflow:visible;"/>
				</clipPath>
				<g style="clip-path:url(#SVGID_00000006685555154537289530000005758760434504141708_);">
					
						<linearGradient id="SVGID_00000096034601337006630700000000910584337326247324_" gradientUnits="userSpaceOnUse" x1="68.1593" y1="391.9786" x2="7585.8291" y2="-3127.761" gradientTransform="matrix(1 0 0 1 0 3700)">
						<stop  offset="0" style="stop-color:#0049E6"/>
						<stop  offset="0.42" style="stop-color:#39D4FF"/>
						<stop  offset="1" style="stop-color:#FF00E9"/>
					</linearGradient>
					
						<rect x="915.7" y="542.8" style="fill:url(#SVGID_00000096034601337006630700000000910584337326247324_);" width="6083.2" height="3456.6"/>
				</g>
			</g>
		</g>
		<g>
			<g>
				<defs>
					<path id="SVGID_00000058573440018491833040000000871517637384335032_" d="M1216.2,3999.4l780.7-400.4l353.9-1726.8
						c892.2-310.2,1783.9-621.8,2676-932.6l-62.4,1795.9C5642.1,2007.3,6318.7,1282.3,6999,559v5l-358,378L4958.5,2749.8
						l62.6-1802.4l-2665.7,929l-353.8,1726.3c-257.5,132.3-515,264.6-772.6,396.8L1216.2,3999.4L1216.2,3999.4z"/>
				</defs>
				<clipPath id="SVGID_00000093141148914192441900000017148137691774097819_">
					<use xlink:href="#SVGID_00000058573440018491833040000000871517637384335032_"  style="overflow:visible;"/>
				</clipPath>
				<g style="clip-path:url(#SVGID_00000093141148914192441900000017148137691774097819_);">
					
						<linearGradient id="SVGID_00000038385081255694589330000009406275145646662056_" gradientUnits="userSpaceOnUse" x1="98.3226" y1="456.4055" x2="7616.0239" y2="-3063.3545" gradientTransform="matrix(1 0 0 1 0 3700)">
						<stop  offset="0" style="stop-color:#0049E6"/>
						<stop  offset="0.42" style="stop-color:#39D4FF"/>
						<stop  offset="1" style="stop-color:#FF00E9"/>
					</linearGradient>
					
						<rect x="1216.2" y="559.2" style="fill:url(#SVGID_00000038385081255694589330000009406275145646662056_);" width="5782.7" height="3440.2"/>
				</g>
			</g>
		</g>
		<g>
			<g>
				<defs>
					<path id="SVGID_00000023961782599791466240000009320680987004753033_" d="M1497.7,3999.4l604.3-325.9l318-1733.8
						c885.2-329.7,1770.7-658.5,2656-988l-25.1,1796.8l1635-1831.4l313-344.6v8l-309.1,340.2L5045.4,2762.9l25.2-1803.3
						l-2645.8,984.2L2106.9,3677c-199.3,107.5-398.6,214.9-597.9,322.4H1497.7L1497.7,3999.4z"/>
				</defs>
				<clipPath id="SVGID_00000055709113993380087320000002464372122323502763_">
					<use xlink:href="#SVGID_00000023961782599791466240000009320680987004753033_"  style="overflow:visible;"/>
				</clipPath>
				<g style="clip-path:url(#SVGID_00000055709113993380087320000002464372122323502763_);">
					
						<linearGradient id="SVGID_00000015355122810389115260000012570658747919633337_" gradientUnits="userSpaceOnUse" x1="126.1767" y1="515.9127" x2="7643.8364" y2="-3003.8274" gradientTransform="matrix(1 0 0 1 0 3700)">
						<stop  offset="0" style="stop-color:#0049E6"/>
						<stop  offset="0.42" style="stop-color:#39D4FF"/>
						<stop  offset="1" style="stop-color:#FF00E9"/>
					</linearGradient>
					
						<rect x="1497.7" y="572.5" style="fill:url(#SVGID_00000015355122810389115260000012570658747919633337_);" width="5501.2" height="3426.9"/>
				</g>
			</g>
		</g>
		<g>
			<g>
				<defs>
					<path id="SVGID_00000090976343897326954000000014756565556074620294_" d="M1762.6,3999.4l445.2-252.2l281.9-1740
						c878.7-346.5,1756.6-695.2,2634.9-1042.9l12.3,1797L6733.3,896.2l265.6-304.9v8.2l-261.6,300.2l-1605.9,1876l-12.3-1803.5
						L2494.4,2011.1l-281.8,1739.5c-146,83-292,165.9-438.1,248.8L1762.6,3999.4L1762.6,3999.4z"/>
				</defs>
				<clipPath id="SVGID_00000007406830046642395170000002463280795397770642_">
					<use xlink:href="#SVGID_00000090976343897326954000000014756565556074620294_"  style="overflow:visible;"/>
				</clipPath>
				<g style="clip-path:url(#SVGID_00000007406830046642395170000002463280795397770642_);">
					
						<linearGradient id="SVGID_00000032620049191864744860000008410822189519421320_" gradientUnits="userSpaceOnUse" x1="153.6064" y1="574.5039" x2="7671.2959" y2="-2945.2461" gradientTransform="matrix(1 0 0 1 0 3700)">
						<stop  offset="0" style="stop-color:#0049E6"/>
						<stop  offset="0.42" style="stop-color:#39D4FF"/>
						<stop  offset="1" style="stop-color:#FF00E9"/>
					</linearGradient>
					
						<rect x="1762.6" y="591.3" style="fill:url(#SVGID_00000032620049191864744860000008410822189519421320_);" width="5236.4" height="3408.1"/>
				</g>
			</g>
		</g>
	</g>
</g>
</svg>
