<?xml version="1.0" encoding="UTF-8"?>
<svg id="Layer_2" data-name="Layer 2" xmlns="http://www.w3.org/2000/svg" xmlns:xlink="http://www.w3.org/1999/xlink" viewBox="0 0 100 100">
  <defs>
    <style>
      .cls-1 {
        fill: url(#linear-gradient-2);
      }

      .cls-2 {
        fill: url(#linear-gradient-6);
      }

      .cls-3 {
        fill: url(#linear-gradient-5);
      }

      .cls-4 {
        fill: none;
      }

      .cls-5 {
        fill: url(#linear-gradient-7);
      }

      .cls-6 {
        fill: url(#linear-gradient-9);
      }

      .cls-7 {
        fill: url(#linear-gradient-3);
      }

      .cls-8 {
        fill: url(#linear-gradient);
      }

      .cls-9 {
        fill: url(#linear-gradient-4);
      }

      .cls-10 {
        fill: url(#linear-gradient-8);
      }
    </style>
    <linearGradient id="linear-gradient" x1="33.02" y1="20.87" x2="33.02" y2="75.9" gradientUnits="userSpaceOnUse">
      <stop offset="0" stop-color="#f7ce58"/>
      <stop offset="1" stop-color="#df6a27"/>
    </linearGradient>
    <linearGradient id="linear-gradient-2" x1="67.07" y1="43.41" x2="-2.71" y2="51.98" gradientUnits="userSpaceOnUse">
      <stop offset="0" stop-color="#f7c94c"/>
      <stop offset=".05" stop-color="#f7ce58"/>
      <stop offset=".87" stop-color="#f4c33e"/>
      <stop offset="1" stop-color="#df6a27"/>
    </linearGradient>
    <linearGradient id="linear-gradient-3" x1="3.87" y1="26.12" x2="3.87" y2="75.26" xlink:href="#linear-gradient"/>
    <linearGradient id="linear-gradient-4" x1="33.02" y1="20.87" x2="33.02" y2="75.9" xlink:href="#linear-gradient"/>
    <linearGradient id="linear-gradient-5" x1="22.68" y1="15.96" x2="39.89" y2="80.19" gradientUnits="userSpaceOnUse">
      <stop offset="0" stop-color="#f7c94c" stop-opacity="0"/>
      <stop offset=".05" stop-color="#f7ce58" stop-opacity="0"/>
      <stop offset=".87" stop-color="#f4c33e" stop-opacity=".25"/>
      <stop offset="1" stop-color="#df6a27" stop-opacity="0"/>
    </linearGradient>
    <linearGradient id="linear-gradient-6" x1="75.31" y1="44.44" x2="76.71" y2="76.38" gradientTransform="translate(25.91) skewX(-40)" xlink:href="#linear-gradient"/>
    <linearGradient id="linear-gradient-7" x1="49.47" y1="44.06" x2="52.2" y2="75.31" gradientUnits="userSpaceOnUse">
      <stop offset="0" stop-color="#f7c94c" stop-opacity=".2"/>
      <stop offset=".05" stop-color="#f7ce58" stop-opacity=".2"/>
      <stop offset=".87" stop-color="#f4c33e" stop-opacity=".25"/>
      <stop offset="1" stop-color="#df6a27" stop-opacity="0"/>
    </linearGradient>
    <linearGradient id="linear-gradient-8" x1="75.64" y1="44.45" x2="77.04" y2="76.38" gradientTransform="translate(25.91) skewX(-40)" gradientUnits="userSpaceOnUse">
      <stop offset="0" stop-color="#f7c94c"/>
      <stop offset=".05" stop-color="#f7ce58"/>
      <stop offset=".9" stop-color="#f4c33e"/>
      <stop offset=".92" stop-color="#f1ba3b"/>
      <stop offset=".95" stop-color="#eca135"/>
      <stop offset=".99" stop-color="#e27a2b"/>
      <stop offset="1" stop-color="#df6a27"/>
    </linearGradient>
    <linearGradient id="linear-gradient-9" x1="92.97" y1="34.56" x2="5.5" y2="82.12" gradientUnits="userSpaceOnUse">
      <stop offset="0" stop-color="#f7c94c"/>
      <stop offset=".05" stop-color="#f7ce58" stop-opacity="0"/>
      <stop offset=".9" stop-color="#f4c33e" stop-opacity="0"/>
      <stop offset=".92" stop-color="#f1b73a" stop-opacity=".04"/>
      <stop offset=".96" stop-color="#e99632" stop-opacity=".15"/>
      <stop offset="1" stop-color="#df6a27" stop-opacity=".3"/>
    </linearGradient>
  </defs>
  <g id="Layer_1-2" data-name="Layer 1">
    <g>
      <rect class="cls-4" width="100" height="100"/>
      <g>
        <g>
          <path class="cls-8" d="M3.68,20.88C1.65,20.78,0,22.27,0,24.19v49.62c0,1.92,1.65,3.4,3.68,3.3l11.87-.57,47.54-2.28c1.64-.08,2.96-1.53,2.96-3.24V35.29c0-1.71-1.32-3.14-2.96-3.19l-26.06-.77c-1.28-.04-2.45-.82-2.99-2.01l-2.38-5.26c-.54-1.2-1.73-2.01-3.05-2.07l-24.94-1.12Z"/>
          <path class="cls-1" d="M3.5,21.37c.05,0,.1,0,.16,0l24.94,1.12c1.12,.05,2.15,.75,2.61,1.77l2.38,5.26c.61,1.36,1.96,2.26,3.43,2.3l26.06,.77c1.36,.04,2.47,1.25,2.47,2.69v35.74c0,1.45-1.11,2.68-2.48,2.74l-47.54,2.28-11.87,.57c-.06,0-.11,0-.16,0-1.68,0-2.99-1.23-2.99-2.8V24.19c0-1.58,1.32-2.81,3-2.81m0-.5C1.56,20.87,0,22.32,0,24.19v49.62c0,1.86,1.55,3.3,3.49,3.3,.06,0,.13,0,.19,0l11.87-.57,47.54-2.28c1.64-.08,2.96-1.53,2.96-3.24V35.29c0-1.71-1.32-3.14-2.96-3.19l-26.06-.77c-1.28-.04-2.45-.82-2.99-2.01l-2.38-5.26c-.54-1.2-1.73-2.01-3.05-2.07l-24.94-1.12c-.06,0-.12,0-.18,0h0Z"/>
        </g>
        <path class="cls-7" d="M7.74,76.91l-7.74-7.01v3.91c0,.96,.42,1.82,1.09,2.41h0s1.4,1.14,1.4,1.14l3.31-.06-.5-.28,2.44-.12Z"/>
        <g>
          <path class="cls-9" d="M63.08,32.45l-26.06-.77c-1.41-.04-2.71-.91-3.3-2.21l-2.38-5.26c-.49-1.08-1.56-1.81-2.74-1.86l-24.94-1.12c-.05,0-.11,0-.16,0-1.77,0-3.16,1.3-3.16,2.97v49.62c0,1.66,1.38,2.96,3.15,2.96,.06,0,.11,0,.17,0l11.87-.57,47.54-2.28c1.45-.07,2.63-1.37,2.63-2.89V35.29c0-1.52-1.18-2.8-2.62-2.84Z"/>
          <path class="cls-3" d="M3.5,21.72s.09,0,.14,0l24.94,1.12c.99,.04,1.9,.66,2.31,1.57l2.38,5.26c.67,1.48,2.13,2.46,3.74,2.51l26.06,.77c1.18,.03,2.14,1.08,2.14,2.34v35.74c0,1.26-.97,2.34-2.15,2.39l-47.54,2.28-11.87,.57s-.1,0-.15,0c-1.48,0-2.65-1.08-2.65-2.46V24.19c0-1.38,1.17-2.47,2.66-2.47m0-.5c-1.77,0-3.16,1.3-3.16,2.97v49.62c0,1.66,1.38,2.96,3.15,2.96,.06,0,.11,0,.17,0l11.87-.57,47.54-2.28c1.45-.07,2.63-1.37,2.63-2.89V35.29c0-1.52-1.18-2.8-2.62-2.84l-26.06-.77c-1.41-.04-2.71-.91-3.3-2.21l-2.38-5.26c-.49-1.08-1.56-1.81-2.74-1.86l-24.94-1.12c-.05,0-.11,0-.16,0h0Z"/>
        </g>
        <g>
          <g>
            <path class="cls-2" d="M4.69,77.81l58.82-3.49c1.56-.09,3.93-1.02,5.35-2.1l29.3-22.27c2.13-1.62,2.46-2.98,.68-3.01l-70.56-.99c-2.63-.04-5.95,1.6-7.35,3.59L2.42,75.85c-.86,1.22,.17,2.09,2.27,1.96Z"/>
            <path class="cls-5" d="M28.18,46.7h.08s70.56,.99,70.56,.99c.2,0,.32,.03,.4,.05-.08,.24-.45,.8-1.52,1.62l-29.3,22.27c-1.3,.99-3.52,1.86-4.94,1.95l-58.82,3.49c-.12,0-.23,.01-.35,.01-1,0-1.37-.28-1.42-.38-.03-.05,0-.21,.16-.42l18.5-26.31c1.25-1.77,4.29-3.27,6.65-3.27m0-.75c-2.61,0-5.88,1.62-7.26,3.59L2.42,75.85c-.8,1.14,.05,1.97,1.88,1.97,.13,0,.26,0,.39-.01l58.82-3.49c1.56-.09,3.93-1.02,5.35-2.1l29.3-22.27c2.13-1.62,2.46-2.98,.68-3.01l-70.56-.99s-.06,0-.09,0h0Z"/>
          </g>
          <g>
            <path class="cls-10" d="M5.18,77.79l58.35-3.48c1.54-.09,3.91-1.02,5.33-2.1l29.3-22.27c2.13-1.62,2.48-2.98,.7-3.01l-69.96-.99c-2.6-.04-5.91,1.6-7.32,3.59L2.95,75.83c-.86,1.22,.15,2.08,2.23,1.96Z"/>
            <path class="cls-6" d="M28.82,46.95h.07s69.93,.99,69.93,.99c-.2,.27-.58,.69-1.27,1.21l-29.3,22.27c-1.25,.95-3.44,1.81-4.78,1.89l-58.35,3.48c-.11,0-.22,.01-.33,.01-.66,0-1-.13-1.13-.21,.02-.04,.05-.1,.11-.18l18.63-26.29c1.22-1.72,4.16-3.17,6.42-3.17m0-1c-2.59,0-5.84,1.62-7.24,3.59L2.95,75.83c-.81,1.14,.03,1.97,1.84,1.97,.12,0,.25,0,.38-.01l58.35-3.48c1.54-.09,3.91-1.02,5.33-2.1l29.3-22.27c2.13-1.62,2.48-2.98,.7-3.01l-69.96-.99s-.06,0-.09,0h0Z"/>
          </g>
        </g>
      </g>
    </g>
  </g>
</svg>