<?xml version="1.0" encoding="UTF-8"?>
<svg id="Layer_2" data-name="Layer 2" xmlns="http://www.w3.org/2000/svg" xmlns:xlink="http://www.w3.org/1999/xlink" viewBox="0 0 100 100">
  <defs>
    <style>
      .cls-1 {
        fill: url(#linear-gradient-2);
      }

      .cls-2 {
        fill: url(#linear-gradient-6);
      }

      .cls-3 {
        fill: #df6a27;
      }

      .cls-4 {
        fill: url(#linear-gradient-5);
      }

      .cls-5 {
        opacity: .1;
      }

      .cls-6 {
        fill: none;
      }

      .cls-7 {
        fill: url(#linear-gradient-7);
      }

      .cls-8 {
        fill: url(#linear-gradient-9);
      }

      .cls-9 {
        fill: url(#linear-gradient-3);
      }

      .cls-10 {
        fill: url(#linear-gradient);
      }

      .cls-11 {
        fill: url(#linear-gradient-4);
      }

      .cls-12 {
        fill: url(#linear-gradient-8);
      }
    </style>
    <linearGradient id="linear-gradient" x1="33.02" y1="20.87" x2="33.02" y2="75.9" gradientUnits="userSpaceOnUse">
      <stop offset="0" stop-color="#f7ce58"/>
      <stop offset="1" stop-color="#df6a27"/>
    </linearGradient>
    <linearGradient id="linear-gradient-2" x1="67.07" y1="43.41" x2="-2.71" y2="51.98" gradientUnits="userSpaceOnUse">
      <stop offset="0" stop-color="#f7c94c"/>
      <stop offset=".05" stop-color="#f7ce58"/>
      <stop offset=".87" stop-color="#f4c33e"/>
      <stop offset="1" stop-color="#df6a27"/>
    </linearGradient>
    <linearGradient id="linear-gradient-3" x1="3.87" y1="20.88" x2="3.87" y2="75.91" xlink:href="#linear-gradient"/>
    <linearGradient id="linear-gradient-4" x1="33.02" y1="20.87" x2="33.02" y2="75.9" xlink:href="#linear-gradient"/>
    <linearGradient id="linear-gradient-5" x1="22.68" y1="15.96" x2="39.89" y2="80.19" gradientUnits="userSpaceOnUse">
      <stop offset="0" stop-color="#f7c94c" stop-opacity="0"/>
      <stop offset=".05" stop-color="#f7ce58" stop-opacity="0"/>
      <stop offset=".87" stop-color="#f4c33e" stop-opacity=".25"/>
      <stop offset="1" stop-color="#df6a27" stop-opacity="0"/>
    </linearGradient>
    <linearGradient id="linear-gradient-6" x1="36.25" y1="38.66" x2="37.95" y2="77.74" xlink:href="#linear-gradient"/>
    <linearGradient id="linear-gradient-7" x1="37.18" y1="39.98" x2="37.18" y2="79.13" gradientUnits="userSpaceOnUse">
      <stop offset="0" stop-color="#f7c94c" stop-opacity=".2"/>
      <stop offset=".05" stop-color="#f7ce58" stop-opacity=".2"/>
      <stop offset=".87" stop-color="#f4c33e" stop-opacity=".25"/>
      <stop offset="1" stop-color="#df6a27" stop-opacity="0"/>
    </linearGradient>
    <linearGradient id="linear-gradient-8" x1="36.52" y1="38.67" x2="38.23" y2="77.75" gradientUnits="userSpaceOnUse">
      <stop offset="0" stop-color="#f7c94c"/>
      <stop offset=".05" stop-color="#f7ce58"/>
      <stop offset=".9" stop-color="#f4c33e"/>
      <stop offset=".92" stop-color="#f1ba3b"/>
      <stop offset=".95" stop-color="#eca135"/>
      <stop offset=".99" stop-color="#e27a2b"/>
      <stop offset="1" stop-color="#df6a27"/>
    </linearGradient>
    <linearGradient id="linear-gradient-9" x1="62.39" y1="33.27" x2="10.75" y2="84.91" gradientUnits="userSpaceOnUse">
      <stop offset="0" stop-color="#f7c94c"/>
      <stop offset=".05" stop-color="#f7ce58" stop-opacity="0"/>
      <stop offset=".9" stop-color="#f4c33e" stop-opacity="0"/>
      <stop offset=".92" stop-color="#f1b73a" stop-opacity=".04"/>
      <stop offset=".96" stop-color="#e99632" stop-opacity=".15"/>
      <stop offset="1" stop-color="#df6a27" stop-opacity=".3"/>
    </linearGradient>
  </defs>
  <g id="Layer_1-2" data-name="Layer 1">
    <g>
      <rect class="cls-6" width="100" height="100"/>
      <g>
        <g>
          <path class="cls-10" d="M3.68,20.88C1.65,20.78,0,22.27,0,24.19v49.62c0,1.92,1.65,3.4,3.68,3.3l11.87-.57,47.54-2.28c1.64-.08,2.96-1.53,2.96-3.24V35.29c0-1.71-1.32-3.14-2.96-3.19l-26.06-.77c-1.28-.04-2.45-.82-2.99-2.01l-2.38-5.26c-.54-1.2-1.73-2.01-3.05-2.07l-24.94-1.12Z"/>
          <path class="cls-1" d="M3.5,21.37c.05,0,.1,0,.16,0l24.94,1.12c1.12,.05,2.15,.75,2.61,1.77l2.38,5.26c.61,1.36,1.96,2.26,3.43,2.3l26.06,.77c1.36,.04,2.47,1.25,2.47,2.69v35.74c0,1.45-1.11,2.68-2.48,2.74l-47.54,2.28-11.87,.57c-.06,0-.11,0-.16,0-1.68,0-2.99-1.23-2.99-2.8V24.19c0-1.58,1.32-2.81,3-2.81m0-.5C1.56,20.87,0,22.32,0,24.19v49.62C0,75.67,1.55,77.11,3.49,77.11c.06,0,.13,0,.19,0l11.87-.57,47.54-2.28c1.64-.08,2.96-1.53,2.96-3.24V35.29c0-1.71-1.32-3.14-2.96-3.19l-26.06-.77c-1.28-.04-2.45-.82-2.99-2.01l-2.38-5.26c-.54-1.2-1.73-2.01-3.05-2.07l-24.94-1.12c-.06,0-.12,0-.18,0h0Z"/>
        </g>
        <path class="cls-9" d="M7.74,76.91l-7.74-7.01v3.91c0,.96,.42,1.82,1.09,2.41h0s2.5,2.03,2.5,2.03l2.22-.95-.5-.28,2.44-.12Z"/>
        <g>
          <path class="cls-11" d="M63.08,32.45l-26.06-.77c-1.41-.04-2.71-.91-3.3-2.21l-2.38-5.26c-.49-1.08-1.56-1.81-2.74-1.86l-24.94-1.12c-.05,0-.11,0-.16,0-1.77,0-3.16,1.3-3.16,2.97v49.62c0,1.66,1.38,2.96,3.15,2.96,.06,0,.11,0,.17,0l11.87-.57,47.54-2.28c1.45-.07,2.63-1.37,2.63-2.89V35.29c0-1.52-1.18-2.8-2.62-2.84Z"/>
          <path class="cls-4" d="M3.5,21.72s.09,0,.14,0l24.94,1.12c.99,.04,1.9,.66,2.31,1.57l2.38,5.26c.67,1.48,2.13,2.46,3.74,2.51l26.06,.77c1.18,.03,2.14,1.08,2.14,2.34v35.74c0,1.26-.97,2.34-2.15,2.39l-47.54,2.28-11.87,.57s-.1,0-.15,0c-1.48,0-2.65-1.08-2.65-2.46V24.19c0-1.38,1.17-2.47,2.66-2.47m0-.5c-1.77,0-3.16,1.3-3.16,2.97v49.62c0,1.66,1.38,2.96,3.15,2.96,.06,0,.11,0,.17,0l11.87-.57,47.54-2.28c1.45-.07,2.63-1.37,2.63-2.89V35.29c0-1.52-1.18-2.8-2.62-2.84l-26.06-.77c-1.41-.04-2.71-.91-3.3-2.21l-2.38-5.26c-.49-1.08-1.56-1.81-2.74-1.86l-24.94-1.12c-.05,0-.11,0-.16,0h0Z"/>
        </g>
        <g class="cls-5">
          <path class="cls-3" d="M4.51,76.91l53.22-2.42c1.47-.07,2.65-1.3,2.65-2.76v-24.61c0-1.46-1.18-2.66-2.65-2.68l-53.22-.85c-1.82-.03-3.3,1.27-3.3,2.91v27.6c0,1.63,1.48,2.89,3.3,2.81Z"/>
        </g>
        <g>
          <g>
            <path class="cls-2" d="M6.29,79.12l62.53-2.85c1.73-.08,3.12-1.53,3.12-3.24v-28.91c0-1.71-1.39-3.12-3.12-3.15l-62.53-1c-2.13-.03-3.88,1.49-3.88,3.41v32.43c0,1.92,1.74,3.4,3.88,3.3Z"/>
            <path class="cls-7" d="M6.22,40.73h.06s62.53,1,62.53,1c1.31,.02,2.38,1.1,2.38,2.4v28.91c0,1.31-1.08,2.43-2.4,2.49l-62.53,2.85c-.06,0-.11,0-.16,0-1.64,0-2.93-1.12-2.93-2.55V43.39c0-1.47,1.37-2.66,3.06-2.66m0-.75c-2.1,0-3.81,1.52-3.81,3.41v32.43c0,1.86,1.63,3.3,3.68,3.3,.07,0,.13,0,.2,0l62.53-2.85c1.73-.08,3.12-1.53,3.12-3.24v-28.91c0-1.71-1.39-3.12-3.12-3.15l-62.53-1s-.05,0-.07,0h0Z"/>
          </g>
          <g>
            <path class="cls-12" d="M6.8,79.12l62.05-2.85c1.71-.08,3.09-1.53,3.09-3.24v-28.91c0-1.71-1.38-3.12-3.09-3.15l-62.05-1c-2.12-.03-3.85,1.49-3.85,3.41v32.43c0,1.92,1.73,3.4,3.85,3.3Z"/>
            <path class="cls-8" d="M6.73,40.98h.05s62.05,1,62.05,1c1.16,.02,2.11,.98,2.11,2.15v28.91c0,1.18-.96,2.19-2.14,2.24l-62.05,2.85c-.05,0-.1,0-.15,0-1.49,0-2.65-1.01-2.65-2.3V43.39c0-1.33,1.25-2.41,2.78-2.41m0-1c-2.09,0-3.78,1.52-3.78,3.41v32.43c0,1.86,1.62,3.3,3.65,3.3,.07,0,.13,0,.2,0l62.05-2.85c1.71-.08,3.09-1.53,3.09-3.24v-28.91c0-1.71-1.38-3.12-3.09-3.15l-62.05-1s-.05,0-.07,0h0Z"/>
          </g>
        </g>
      </g>
    </g>
  </g>
</svg>