<?xml version="1.0" encoding="UTF-8"?>
<svg id="Layer_2" data-name="Layer 2" xmlns="http://www.w3.org/2000/svg" viewBox="0 0 76.59 106.52">
  <defs>
    <style>
      .cls-1 {
        fill: #fff;
      }
    </style>
  </defs>
  <g id="Layer_1-2" data-name="Layer 1">
    <g>
      <path class="cls-1" d="M67.33,36.74c-2.9,0-5.26,2.36-5.26,5.26v14.52c0,1.1-.9,2-2,2s-2-.9-2-2v-18.15c0-2.9-2.36-5.26-5.26-5.26s-5.26,2.36-5.26,5.26v18.15c0,1.1-.9,2-2,2s-2-.9-2-2v-21.78c0-2.9-2.36-5.26-5.26-5.26s-5.26,2.36-5.26,5.26v21.78c0,1.1-.9,2-2,2s-2-.9-2-2V9.26c0-2.9-2.36-5.26-5.26-5.26s-5.26,2.36-5.26,5.26v58.56c0,1.1-.9,2-2,2s-2-.9-2-2v-22.18c0-2.9-2.36-5.26-5.26-5.26s-5.26,2.36-5.26,5.26v22.82c0,1.57,.46,3.09,1.32,4.4l17.17,26.07c1.49,2.25,3.98,3.6,6.68,3.6h30.91c6.9,0,12.52-5.62,12.52-12.52V42c0-2.9-2.36-5.26-5.26-5.26Z"/>
      <path d="M67.33,32.74c-2.26,0-4.33,.81-5.93,2.16-1.38-3.39-4.71-5.79-8.58-5.79-2.26,0-4.33,.81-5.93,2.16-1.38-3.39-4.71-5.79-8.58-5.79-1.95,0-3.76,.61-5.26,1.64V9.26c0-5.11-4.15-9.26-9.26-9.26S14.52,4.15,14.52,9.26v28.75c-1.5-1.04-3.31-1.64-5.26-1.64-5.11,0-9.26,4.15-9.26,9.26v22.82c0,2.35,.68,4.64,1.98,6.6l17.17,26.07c2.23,3.38,5.97,5.4,10.02,5.4h30.91c9.11,0,16.52-7.41,16.52-16.52V42c0-5.11-4.15-9.26-9.26-9.26Zm5.26,57.26c0,6.9-5.62,12.52-12.52,12.52H29.17c-2.7,0-5.2-1.35-6.68-3.6L5.32,72.85c-.86-1.31-1.32-2.83-1.32-4.4v-22.82c0-2.9,2.36-5.26,5.26-5.26s5.26,2.36,5.26,5.26v22.18c0,1.1,.9,2,2,2s2-.9,2-2V9.26c0-2.9,2.36-5.26,5.26-5.26s5.26,2.36,5.26,5.26V56.52c0,1.1,.9,2,2,2s2-.9,2-2v-21.78c0-2.9,2.36-5.26,5.26-5.26s5.26,2.36,5.26,5.26v21.78c0,1.1,.9,2,2,2s2-.9,2-2v-18.15c0-2.9,2.36-5.26,5.26-5.26s5.26,2.36,5.26,5.26v18.15c0,1.1,.9,2,2,2s2-.9,2-2v-14.52c0-2.9,2.36-5.26,5.26-5.26s5.26,2.36,5.26,5.26v48Z"/>
    </g>
  </g>
</svg>