<?xml version="1.0" encoding="UTF-8"?>
<svg id="Layer_1" data-name="Layer 1" xmlns="http://www.w3.org/2000/svg" viewBox="0 0 1000.01 278.58">
  <defs>
    <style>
      .cls-1 {
        fill: #fff;
      }
    </style>
  </defs>
  <rect class="cls-1" x="40.01" y="18" width="919.99" height="242.58"/>
  <path d="M0,278.58V0H1000.01V278.58H0ZM173.83,57.14l-33.35,126.19L107.13,57.14h-30.94l49.99,166.66h28.58L204.74,57.14h-30.91Zm173.8,0h-40.51l-49.99,166.66h33.35l10.24-40.47h50.93l10.24,40.47h33.35l-47.59-166.66h-.02Zm233.32,138.1h-71.43V57.14h-30.94V223.8h102.37v-28.56ZM721.43,57.14l-33.35,126.19-33.32-126.19h-30.96l50.02,166.66h28.56l49.99-166.66h-30.94Zm171.42,92.87h-45.23v-26.2h40.47v-21.44h-40.47v-23.82h45.23v-21.41h-69.05v114.28h69.05v-21.41ZM326.19,83.34l18.8,73.79h-37.6l18.8-73.79h0Z"/>
</svg>