<svg xmlns="http://www.w3.org/2000/svg" xml:space="preserve" id="Layer_1" x="0px" y="0px" style="enable-background:new 0 0 220.44 99.26" version="1.1" viewBox="0 0 220.44 99.26"><style>.st0{fill:#fff}</style><g id="XMLID_00000166665626304815428290000016798841467331751350_"><g id="XMLID_00000009583045423231163550000004790957226909365633_"><path id="XMLID_00000096030502992456467680000005781331896312888467_" d="M49.52 46.95H37.83l-3.58-8.63H14.76l-3.26 8.63H0L17.57 3.37h12.59l19.36 43.58zM24.03 13.78l-6.39 16.93h13.42l-7.03-16.93z" class="st0"/><path id="XMLID_00000005244908238563363350000017035623380803139470_" d="M92 3.37h9.46v43.58H90.6V19.73L78.84 33.4h-1.66L65.42 19.73v27.22H54.56V3.37h9.46l13.99 16.17L92 3.37z" class="st0"/><path id="XMLID_00000025436344977695476660000014520919475648503698_" d="M128.99 3.37c15.91 0 24.09 9.9 24.09 21.85 0 12.52-7.92 21.73-25.3 21.73h-18.02V3.37h19.23zm-8.37 35.59h7.09c10.93 0 14.19-7.41 14.19-13.8 0-7.48-4.03-13.8-14.31-13.8h-6.96v27.6z" class="st0"/></g><g id="XMLID_00000129899782446012690000000013392217366579360681_"><path id="XMLID_00000072250366955026543980000003789264827704021949_" d="M197.16 13.7h-22.47L160.99 0h49.87v49.87l-13.7-13.7z" class="st0"/><path id="XMLID_00000118366758892791157940000017285304397709648266_" d="M174.67 36.19V16.45l-14.1 14.1v19.74h19.74l14.1-14.1z" class="st0"/></g></g><path d="M214.33 68.74v21.23l-18.28-21.23h-6.14v30.52h6.1V78.04l18.28 21.22h6.15V68.74zM98.22 68.74H73.8v6.11h23.99c.24 0 .43.19.43.43v17.44c0 .24-.19.43-.43.43H79.9v-12.2h-6.1v18.31h24.43a6.11 6.11 0 0 0 6.11-6.11v-18.3a6.118 6.118 0 0 0-6.12-6.11zM44.82 93.16h13.95l2.64 6.1h6.65L54.85 68.74h-6.1L35.52 99.26h6.65l2.65-6.1zm6.97-16.11 4.33 10h-8.66l4.33-10zM175.62 68.75h-18.31c-3.37 0-6.1 2.73-6.1 6.1v18.29c0 3.37 2.73 6.1 6.1 6.1h18.31c3.37 0 6.1-2.73 6.1-6.1V74.85c0-3.37-2.73-6.1-6.1-6.1zm0 23.96c0 .24-.19.43-.43.43h-17.44c-.24 0-.43-.19-.43-.43V75.29c0-.24.19-.43.43-.43h17.44c.24 0 .43.19.43.43v17.42zM112.52 68.74h30.5v6.1h-30.5zM112.52 80.95v18.31h30.5v-6.11h-24.4v-6.1h24.4v-6.1zM6.1 87.05h11.25l7.04 12.2h7.04l-7.04-12.2c3.37 0 6.1-2.73 6.1-6.1v-6.1c0-3.37-2.73-6.1-6.1-6.1H0v6.1h23.96c.24 0 .43.19.43.43v5.23c0 .24-.19.43-.43.43H0v18.3h6.1V87.05z" class="st0"/></svg>