<svg xmlns="http://www.w3.org/2000/svg" viewBox="0 0 344.348 335.739"><path fill="#49021f" d="M60.979 0H283.37a60.927 60.927 0 0 1 60.978 60.978v213.783a60.927 60.927 0 0 1-60.978 60.978H60.979A60.927 60.927 0 0 1 0 274.761V60.978A60.927 60.927 0 0 1 60.979 0Z"/><g fill="#f36"><path d="M125.113 87.809v147.208c0 1.579-.717 2.3-2.008 2.3H94.983c-1.291 0-1.865-.717-1.865-2.3V87.809c0-1.292.717-1.866 2.008-1.866h27.979a1.622 1.622 0 0 1 1.865 1.435.529.529 0 0 1 .143.431ZM207.757 239.609a71.335 71.335 0 0 1-30.848-6.457 50.022 50.022 0 0 1-21.665-19.513c-5.309-8.752-7.892-19.656-7.892-32.713a58.932 58.932 0 0 1 7.892-30.274 59.577 59.577 0 0 1 22.813-22.239c10.043-5.6 22.1-8.322 36.3-8.322a25.529 25.529 0 0 1 3.013.144c1.291.143 2.726.143 4.448.287V75.183c0-1 .43-1.579 1.434-1.579h29.127a1.286 1.286 0 0 1 1.434 1v136.883c0 2.583.144 5.452.287 8.609.287 3.013.431 5.882.574 8.321a2.329 2.329 0 0 1-1.435 2.3 109.543 109.543 0 0 1-23.387 6.887 125.32 125.32 0 0 1-22.095 2.005Zm14.061-28.7v-63.126a36.874 36.874 0 0 0-3.874-.718c-1.579-.143-3.157-.287-4.735-.287a35.365 35.365 0 0 0-16.213 3.731 32.172 32.172 0 0 0-12.2 10.617c-3.156 4.591-4.735 10.761-4.735 18.222a39.987 39.987 0 0 0 2.44 14.778 28.04 28.04 0 0 0 6.456 10.187 24.782 24.782 0 0 0 9.757 5.739 37.563 37.563 0 0 0 11.908 1.865c2.153 0 4.161-.143 6.026-.287a12.212 12.212 0 0 0 5.174-.717Z"/></g></svg>