<svg xmlns="http://www.w3.org/2000/svg" xml:space="preserve" x="0px" y="0px" style="enable-background:new 0 0 286.3 81.6" viewBox="0 0 286.3 81.6"><path d="M0 0h286.3v81.6H0z" class="st0" style="fill:#008c3c"/><path d="M32.4 18.6H23V25h6.2v38h7.1V22.4c.1-3.1-2-3.8-3.9-3.8m8.7 25.6h9.4v-6.8h-9.4v6.8zm29.2 8.3c0 2.3-1.8 4.1-4.1 4.1s-4.1-1.8-4.1-4.1V18.6h-7v33.8c0 6.1 5 11.1 11.1 11.1s11.1-5 11.1-11.1V18.6h-7v33.9zm24-33.9H83V63h6.7V45.2h4.7c7 0 10.8-3.8 10.8-11.7v-3.2c-.1-7.6-3.9-11.7-10.9-11.7m4.4 14.9c0 3.6-2.2 5.2-5 5.2h-4.1V25h4.1c3 0 5 2 5 5.3v3.2zm36.6 5c-4.9-2.8-7.5-4.8-7.5-7.7v-1.6c0-2.3 1.8-4.3 4.2-4.3 2.5 0 4.2 2.1 4.2 4.3V32h6.9v-2.8c0-5.6-4.6-11.1-11.1-11.1s-11.1 5.4-11.1 11.1v2c0 6.4 2.9 8.9 7.7 11.7 4.8 2.8 7.7 4.9 7.7 8.4v1.3c0 2.3-2 4.1-4.2 4.1-2.3 0-4.2-1.8-4.2-4.1v-3.2H121v3.2c0 5.6 4.6 11.1 11.1 11.1s11.1-5.4 11.1-11.1v-2.1c0-6.3-3.2-9.3-7.9-12m11-13.5h7.3v38h7V25h7.3v-6.4h-21.6V25zm41 27.5c0 2.3-1.8 4.1-4.1 4.1s-4.1-1.8-4.1-4.1V18.6h-7v33.8c0 6.1 5 11.1 11.1 11.1s11.1-5 11.1-11.1V18.6h-7v33.9zM211 18.6h-10.8v44.2H211c7 0 11.4-4.1 11.4-11.7V30.3c-.1-7.6-4.4-11.7-11.4-11.7m4.3 32.6c0 3.3-2 5.3-5 5.3h-3.2V25h3.2c3 0 5 2 5 5.3v20.9zM228.2 63h7.1V18.6h-7.1V63zm24-44.9c-6.1 0-11.1 5-11.1 11.1v23.3c0 6.1 5 11.1 11.1 11.1s11.1-5 11.1-11.1V29.2c0-6.2-5-11.1-11.1-11.1m4.1 34.4c0 2.3-1.8 4.1-4.1 4.1s-4.1-1.8-4.1-4.1V29.2c0-2.3 1.8-4.1 4.1-4.1s4.1 1.8 4.1 4.1v23.3z" class="st1" style="fill:#fff"/></svg>