<svg xmlns="http://www.w3.org/2000/svg" width="342.03998" height="35.810001" viewBox="0 0 90.498076 9.474729"><path d="M142.424 329.178h-3.447c.27-.312.619-.703.95-1.108a.307.307 0 0 0-.004-.291c-.61-.77-.545-1.707-.558-2.58-.018-1.283.124-2.572.199-3.858a.416.416 0 0 1 .02-.185c.22-.33.427-.902.678-.923a.986.986 0 0 1 .953.722c.164.51.632.94.73 1.45a36.433 36.433 0 0 1 .45 3.678c.02.264-.193.548-.286.828-.135.394-.389.81-.344 1.188.042.36.402.685.659 1.08zm-2.043-4.114c-.206 1.003.077 1.884.76 2.704l.249-1.145c-.617.195-.768-.13-.837-.572-.05-.328-.119-.653-.177-.982a1.535 1.535 0 0 0 .056-.304c-.021-.987.024-1.942.59-2.823.214-.333.042-.717-.548-.95-.095.86-.227 1.654-.257 2.45a11.346 11.346 0 0 0 .165 1.622zm1.128-1.026c-.109.003-.215.003-.32.005-.593.613.153 1.196.32 1.793zm29.662.986.283 1.276h-1.082v-2.744l-1.355 2.678c-.076.003-.153.003-.23.005l-1.283-2.384c-.066.883-.124 1.65-.188 2.458h-.63c.403-1.268.794-2.516.35-3.874h1.084c-.43.654.122 2.027 1.122 2.646.381-.847 1.035-1.59.865-2.656h1.247c-.376.846-.14 1.74-.172 2.614l-.196-2.294c-.037.003-.074.003-.111.005q.071 1.571.148 3.138c.047-.003.098-.003.148-.005zm-18.645-.31h.976c-.137.266-.338.493-.352.729-.01.211.183.433.3.68-1.31.793-3.107.267-3.586-1.128-.516-1.51.693-2.823 2.376-2.58.328.048.659.083 1.043.13v.95a4.34 4.34 0 0 0-.844-.7c-.498-.236-1.625.311-1.921.859a1.608 1.608 0 0 0 .42 1.918.779.779 0 0 0 .175.175c.42.122.85.227 1.275.336.045-.434.088-.868.138-1.368zm55.507 1.652c.085-1.347.174-2.627-.087-3.982h2.563c-.018.183-.045.429-.071.675-.042.005-.085.01-.127.013-.04-.109-.08-.22-.106-.296l-1.286.087c.058.383.024.976.18 1.032.363.124.818-.01 1.32-.045l.077.624-1.643-.18v-1.304c-.048 0-.093-.003-.14-.005v2.786c.648.124 1.362.526 2.045-.307-.09.4-.153.664-.206.902zm-15.957-.053h-1.315c.328-.952.22-3.463-.201-3.921h2.76c-.017.26-.035.558-.043.709l-1.53-.392c.03.511-.042 1.125.088 1.17.386.135.852.047 1.363.047l.074.575c-.527-.061-1.05-.125-1.614-.19v-1.295c-.05 0-.1-.003-.151-.003 0 .974-.016 1.948.024 2.919.005.121.32.23.545.38zm9.691-.283c-.031-.72-.177-1.344-.955-1.678.178-.11.32-.185.445-.28.402-.307.77-.688.569-1.21-.178-.467-.635-.565-1.143-.528-.649.047-1.305.013-1.86.013.389 1.347.222 2.648.087 3.96h1.087a4.815 4.815 0 0 1-.148-.782c-.021-.688.008-1.379-.016-2.067a2.934 2.934 0 0 0-.18-.688c.003.016 0 .035.003.053q.088 1.54.18 3.077c-.06.003-.119.005-.18.005v-3.082c-.003-.021-.003-.045-.005-.066h.003c.138-.032.278-.053.413-.096.445-.137.797-.047.982.408.193.466-.03.762-.44.955a3.577 3.577 0 0 1-.505.172l1.122 1.873a4.654 4.654 0 0 0 .495.794c.423.45.958.386 1.204-.1-.75.351-1.114.14-1.157-.733zm26.39-1.17c-.063.207-.1.336-.135.453-.26-.54.005-1.376-.95-1.387l1.567-1.404c-.032-.043-.067-.082-.098-.122h-1.101c.204.524-.209 1.095-1.183 1.595l.127-1.587h-1.137c.34 1.32.227 2.62.087 3.926h1.294c-.611-.58-.286-1.265-.339-1.897.545-.18.757.143.942.482.24.439.444.9.704 1.328.19.312.473.495 1.01.27-.984-.262-.703-.98-.788-1.657zm-2.003 1.18h-.103v-3.31l.103-.004zm-63.952.233c-.8-1.161-1.077-2.54-1.643-3.918-.593.005-.582.008-.8.608-.407 1.12-.828 2.233-1.238 3.334h1.162c-.146-.18-.35-.32-.341-.452.01-.252.079-.656.232-.717.995-.384 1.59.11 1.485 1.145zm-2.712-1.64.526-1.49c.045.003.093.005.138.01.177.475.352.948.547 1.48zm59.89 1.005a27.69 27.69 0 0 1-.904-2.212 1.7 1.7 0 0 1-.064-.714c.027-.344-.097-.508-.42-.352a1.103 1.103 0 0 0-.54.484c-.455 1.135-.865 2.286-1.296 3.445h1.15c-.14-.174-.346-.317-.338-.45.01-.248.11-.68.238-.703.397-.074.92-.133 1.21.066.248.172.242.706.351 1.087h1.249c-.249-.246-.521-.413-.635-.65zm-2.248-1.002c.174-.527.333-.993.49-1.458l.18.008.513 1.45zm-38.764 1.209a3.334 3.334 0 0 1-.008-1.429c.042-.212 1.114-.053 1.455.222v-2.273h-2.469c.048.696.122 1.342.13 1.99.008.648-.05 1.297-.082 2.006h2.524c.04-.212.09-.466.151-.791-.622.41-1.627.563-1.701.275zm1.328-3.075c-.069.373-.019.844-.233 1.056-.185.185-.68.145-1.008.071-.111-.026-.132-.442-.193-.688a2.49 2.49 0 0 1 .58-.38 3.828 3.828 0 0 1 .854-.059zm-1.646 3.024v-2.796l.122-.016c.026.08.053.156.077.235l.01-.018a847.08 847.08 0 0 1-.148 2.598.468.468 0 0 1-.06-.003z" class="cls-1" style="fill-rule:evenodd;stroke-width:.26458332" transform="translate(-138.712 -319.968)"/></svg>