<svg xmlns="http://www.w3.org/2000/svg" xml:space="preserve" width="1620px" height="201.162px" x="0px" y="0px" viewBox="0 189.419 1620 201.162"><path d="M1507.99 189.419c-34.02 0-63.414 10.75-85.012 31.113a97.361 97.361 0 0 0-31.187 71.38c0 56.247 48.426 98.669 112.639 98.669 66.949 0 115.545-43.221 115.545-102.761.024-61.598-56.755-98.401-111.671-98.401h-.314zm-67.578 94.843c0-21.792 6.488-40 18.74-52.494a58.26 58.26 0 0 1 42.059-17.119h.314a67.025 67.025 0 0 1 47.894 19.371c14.383 14.237 22.01 35.423 22.01 61.162 0 51.791-32.397 70.218-60.17 70.218-41.066-.049-70.847-34.141-70.847-81.138zm-139.879-90.751h3.68l.872 1.453c.46.774 4.843 8.208 5.472 9.249l1.211 1.84s-1.09 1.09-1.816 1.864c-.726.775-25.714 29.686-25.714 29.686s-94.431 114.722-100.823 122.566c10.049.436 23.607-.267 37.99.121 30.121.823 48.887 0 56.393-3.946 9.201-4.988 23.85-24.214 24.673-25.352s1.308-2.01 1.308-2.01.969.291 2.154.557l15.158 3.245 2.833.557s-.509 1.478-.969 2.736-16.514 42.954-17.869 47.046c-.484 1.622-.872 3.269-.872 3.269H1131.163l-1.187-1.864c-.896-1.429-4.987-8.16-5.521-8.91-.532-.751-1.113-1.646-1.113-1.646l2.784-3.293 31.114-37.216s80.097-98.596 92.009-114.843h-42.566c-30.436 0-35.133 1.599-40.799 8.402-4.431 5.327-12.252 16.126-13.051 17.506l-2.131 3.729-3.269-.558c-3.1-.508-10.823-1.646-12.64-1.864a34.39 34.39 0 0 1-3.438-.532s.848-3.172 1.187-4.189c.339-1.017 11.962-44.31 12.349-46.005a24.66 24.66 0 0 1 .63-2.421s12.106.848 17.555.848c30.193.047 135.834-.074 137.457-.025zm-272.01 0h3.68l.872 1.453c.46.774 4.843 8.208 5.472 9.249l1.211 1.84s-1.09 1.09-1.816 1.864c-.726.775-25.714 29.686-25.714 29.686s-94.431 114.722-100.823 122.566c10.049.436 23.607-.267 38.015.121 30.121.823 48.886 0 56.393-3.946 9.2-4.988 23.85-24.214 24.673-25.352s1.308-2.01 1.308-2.01.968.291 2.155.557l15.157 3.245 2.833.557s-.509 1.478-.969 2.736-16.538 42.954-17.772 47.046a86.608 86.608 0 0 0-.896 3.269H859.249l-1.187-1.864c-.92-1.404-5.108-8.039-5.762-8.668-.654-.63-1.114-1.646-1.114-1.646l2.784-3.293 31.114-37.216s80.097-98.596 92.01-114.843h-42.47c-30.437 0-35.134 1.599-40.799 8.402-4.432 5.327-12.252 16.126-13.052 17.506l-2.13 3.729-3.27-.557c-3.099-.508-10.823-1.646-12.639-1.864a34.344 34.344 0 0 1-3.438-.532s.848-3.172 1.187-4.189c.339-1.017 11.961-44.31 12.349-46.005.388-1.694.63-2.421.63-2.421s12.105.848 17.554.848c30.267-.194 135.884-.315 137.53-.267h-.023zM586.319 386.465l.751-4.165c.799-4.455 1.646-10.267 2.179-14.067.17-1.308.581-4.093.581-4.093s2.155-.242 3.729-.339c2.179-.146 5.205-.484 8.475-1.017 3.269-.533 4.987-3.511 5.472-8.838.436-4.673.993-37.095.92-68.547 0-29.25-.799-57.651-.896-62.131s-1.622-5.642-5.254-6.077l-6.901-.848c-2.421-.267-3.147-.412-3.147-.412l-.509-2.833c-.678-3.777-2.421-14.527-2.809-16.344-.387-1.815-.532-3.486-.532-3.486s6.271.218 8.692.218h139.661c2.293.085 4.589.036 6.876-.146 0 0 .146 1.139.509 2.954.363 1.816 7.506 36.32 7.869 37.748.363 1.429.605 2.422.605 2.422s-1.525.387-2.833.581c-1.308.193-10.412 1.84-11.961 2.421-.487.213-1 .359-1.525.437 0 0-.605-1.065-1.574-2.422a95.667 95.667 0 0 0-10.848-12.542c-5.593-5.255-9.927-6.465-30.193-6.465h-36.562l-2.882.145V273.849h22.64c15.714 0 21.065.218 23.269-1.622 1.308-1.114 1.477-3.1 2.155-5.908l1.138-5.956H727.288v40.023c0 5.715.17 13.995.17 13.995h-23.995s-.291-2.421-.461-3.414a78.58 78.58 0 0 0-1.21-6.053c-.388-1.574-.678-3.438-1.962-4.02-1.283-.581-5.472-.872-12.227-.872h-33.438v48.983c0 7.434.169 11.138 1.21 11.646a15.696 15.696 0 0 0 6.707 1.187h23.608c4.6 0 29.782.75 36.997-3.802 11.525-7.264 22.543-24.625 23.148-25.666.402-.723.766-1.466 1.089-2.228.608.248 1.23.458 1.864.63 1.065.29 13.293 3.342 14.818 3.681l2.785.678s-.727 1.792-.944 2.421c0 0-15.957 45.642-16.224 46.804-.169.727-.314 1.841-.314 1.841h-162.59v.268zM386.392 217.917c14.77 0 39.541 4.237 39.541 32.736 0 12.761-4.262 20.969-14.238 27.482-6.586 4.455-15.787 6.344-30.775 6.344h-7.603v-59.492c-.063-2.074.076-4.15.411-6.198 4.17-.807 8.423-1.1 12.664-.872zm-13.099 136.005v-45.036h2.421c15.061 0 17.772 2.761 21.283 7.651 0 0 28.935 37.021 37.917 47.894 14.213 17.216 28.427 21.792 50.848 24.455 6.665.59 13.358.809 20.049.653 0 0 .218-1.041.581-3.22.363-2.18 2.712-14.02 3.002-15.859 0-.679.218-1.938.436-2.833 0 0-2.421-.17-3.607-.412a46.87 46.87 0 0 1-24.648-12.445 328.29 328.29 0 0 1-32.252-34.601 148.105 148.105 0 0 0-20.121-21.792c1.187-.557 7.409-3.292 8.547-3.85 22.422-11.38 33.898-27.506 33.898-48.063a46.782 46.782 0 0 0-25.278-42.664c-12.93-7.264-29.516-10.29-55.448-10.29h-67.796l-11.55-.218s.315 1.84.702 3.874c.291 1.501 2.712 15.157 2.93 16.295.218 1.139.46 2.615.46 2.615h2.058c1.235 0 4.479.509 7.482.92 3.632.509 5.544 1.55 5.544 6.126v130.751c0 5.326-.702 7.917-6.417 8.837l-8.329 1.09c-1.864.218-2.93.291-2.93.291s0 .774-.267 2.421c-.266 1.646-2.082 13.584-2.421 15.109-.339 1.525-1.065 4.843-1.065 4.843h84.648s-.46-2.422-.823-4.964c-.193-1.26-1.67-12.519-1.937-14.964-.121-1.283-.267-2.422-.267-2.422s-1.768-.193-2.639-.314c-1.332-.218-8.596-1.041-8.596-1.041-5.713-.919-6.415-3.485-6.415-8.837zM0 291.38c0-32.494 14.31-59.322 41.404-77.481 23.39-15.812 55.23-24.479 89.686-24.479 23.462 0 53.922 6.925 57.288 7.457 1.759.303 3.541.457 5.327.46 0 0 .46 1.478.654 2.543s11.453 52.203 11.453 52.881c0 .679.169.679-.847 1.018 0 0-17.603 4.842-18.668 4.987s-.629.678-1.138-.629a117.559 117.559 0 0 0-13.486-23.705c-9.468-11.864-22.519-19.807-46.005-19.807-46.78 0-77.07 28.838-77.07 73.438v-.411c0 37.36 25.593 77.481 81.768 77.481a67.806 67.806 0 0 0 24.601-4.092c4.116-1.913 5.835-2.712 5.835-10.823V319.2c0-3.777.17-5.763-.653-6.658s-3.027-1.065-5.86-1.187-9.976-.412-11.525-.509a14.575 14.575 0 0 0-2.131 0s-.242-1.187-.412-2.688c-.169-1.501-2.712-17.288-2.93-18.377a7.68 7.68 0 0 1-.145-1.308h81.983s-.218 1.477-.388 2.76-2.276 14.044-2.421 16.077c-.145 2.034-.46 3.511-.46 3.511h-2.155c-1.259 0-4.02.291-5.932.582-1.913.29-3.293.362-3.535.968a19.347 19.347 0 0 0-.436 4.553c-.242 5.108-.412 29.879-.412 29.879 0 9.685.267 20.581.46 23.777.068 1.687.328 3.359.775 4.987.291.872.944 2.422.944 2.422s-1.792.702-3.026 1.041-4.31 1.308-8.087 2.203-44.043 9.152-68.377 9.152C50.702 390.169 0 350.29 0 290.945v.435z"/></svg>