<svg xmlns="http://www.w3.org/2000/svg" width="532.93871" height="187.638837" viewBox="0 0 541.86669 190.77022"><clipPath id="a"><path d="M21 21h651.974v510.235H21z"/></clipPath><clipPath id="b"><path d="M21 21h651.974v510.235H21z"/></clipPath><clipPath id="c"><path d="M21 21h651.974v510.235H21z"/></clipPath><g clip-path="url(#a)" transform="matrix(9.361 0 0 -9.361 -2380.274 809.24)"><path fill="#002d6a" d="M266.682 85.823c-.255.196-.508.352-.761.422-.86.297-1.846.267-2.972-.083-1.071-.339-2.171-.945-3.326-1.806-1.845-1.38-3.24-2.942-4.17-4.69-1.086-2.014-1.423-3.989-1.001-5.918.396-1.86 1.409-3.227 3.056-4.1 1.635-.888 3.341-.972 5.116-.268 1.846.733 3.311 2.1 4.381 4.1.957 1.788 1.508 3.761 1.635 5.903.071 1.326-.056 2.58-.394 3.734-.352 1.212-.875 2.1-1.55 2.692zM259.158 68.11c-1.27.017-2.353-.08-3.254-.293-.902-.196-1.354-.438-1.354-.731 0-.27.452-.523 1.354-.72.9-.198 1.985-.297 3.254-.297.874 0 1.677.056 2.41.156-1.297.085-1.945.269-1.945.535 0 .169.282.309.846.407.548.129 1.225.185 2.028.185.338 0 .733-.027 1.183-.056-.211.239-.746.435-1.577.59-.86.155-1.832.225-2.945.225"/><path fill="#fff" d="M265.963 85.612c-.182.224-.295.366-.352.407-.788.269-1.705.226-2.761-.11-.987-.311-2.015-.862-3.072-1.635-1.79-1.311-3.127-2.806-4.015-4.454-.747-1.396-1.127-2.731-1.142-4.03-.013-1.195.268-2.281.874-3.24.55-.886 1.31-1.578 2.269-2.085 1.55-.831 3.127-.971 4.719-.422 1.705.592 3.1 1.916 4.185 3.93.915 1.705 1.409 3.593 1.522 5.635a10.59 10.59 0 0 1-.367 3.355c-.31 1.142-.79 2.014-1.423 2.593a.4.4 0 0 0 .099-.24.896.896 0 0 0 .014-.325c-.03-.211-.183-.394-.465-.536a2.348 2.348 0 0 0-1.014-.237c-.057 0-.085 0-.113.013-.142 0-.24.014-.31.014-1.142.072-2.325-.352-3.564-1.295-1.27-.973-2.297-2.255-3.072-3.848-1.113-2.24-1.55-4.255-1.311-6.031.184-1.367.762-2.296 1.734-2.774.07-.028.14-.071.196-.085-.141.057-.282.113-.394.184-.917.492-1.522 1.337-1.802 2.52-.424 1.76.069 3.933 1.477 6.525.748 1.365 1.664 2.479 2.735 3.367 1.042.859 2.085 1.366 3.112 1.509.142.028.283.04.424.04.085.015.14.028.183.028l.45.03c.114 0 .255.029.452.083.732.239.987.563.788 1.015-.027.043-.043.085-.056.099m-4.916-13.88c.282.353.662.679 1.126.96.423.253.832.422 1.254.506.394.1.733.1 1 0a.648.648 0 0 0 .366-.267c.17-.267.1-.635-.182-1.055-.282-.438-.705-.82-1.268-1.155-.551-.325-1.1-.522-1.607-.565-.507-.057-.845.07-1 .339a.437.437 0 0 0-.084.28c-.03.282.112.592.395.958"/><path fill="#fff" d="M263.243 71.27c.452.266.776.575 1.015.9.225.337.282.606.154.803-.125.198-.38.253-.788.198-.394-.058-.818-.226-1.268-.495-.437-.28-.774-.592-1-.915-.226-.338-.282-.605-.17-.8.128-.2.396-.257.79-.2.395.056.816.226 1.267.508"/><path fill="#cfe0f3" d="M268.19 79.608c.07 1.536-.141 2.918-.634 4.156l-.014-.083c.198-1.211.182-2.493-.057-3.847-.395-2.1-1.141-3.972-2.24-5.58a13.5 13.5 0 0 0-.818-1.056.644.644 0 0 0 .366-.267c.17-.282.1-.635-.182-1.055-.282-.438-.705-.82-1.268-1.155-.551-.325-1.085-.522-1.606-.565-.508-.057-.846.055-1 .339a.437.437 0 0 0-.085.28 5.057 5.057 0 0 0-3.212.296c.267-.34.592-.592.958-.774.07-.043.14-.054.197-.086a15.14 15.14 0 0 0-.395.169 3.855 3.855 0 0 0-.916.76 6.35 6.35 0 0 0-1.1.663c-.167.14-.31.269-.435.367a6.324 6.324 0 0 1 2.015-1.72c1.536-.816 3.113-.956 4.719-.407 1.705.606 3.1 1.916 4.185 3.93.915 1.704 1.423 3.58 1.522 5.635"/></g><g fill="#002d6a"><path d="M526.693 77.47V53.73h-9.773v31.5h24.947v-7.76zM503.098 78.124H486.21v-6.197h15.165v-6.45H486.21v-5.036h16.354V53.73h-26.117v31.5h26.65zM464.582 53.727h-9.904l-6.992 22.681-7.105-22.681h-10.166l12.01 31.509h10.55zM419.07 60.445v-6.721h-26.117v31.509h26.65v-7.105h-16.746V71.93h15.034v-6.45h-15.034v-5.036zM364.871 77.47V53.73h-9.763v31.5h24.937v-7.76zM289.036 53.727v7.779h9.886v23.73h9.773v-23.73h9.885v-7.78zM246.175 53.727l9.886 15.174-10.943 16.335h10.943l6.206-10.12 6.188 10.12h10.952l-10.69-16.214 9.763-15.295h-10.55l-5.401 9.754-5.673-9.754zM234.435 78.124H217.68v-6.197h15.043v-6.45H217.68v-5.036h16.232V53.73h-25.995v31.5h26.52zM192.751 53.727h-9.23v17.411l-11.86-17.411h-9.099v31.509h9.23V67.965l11.73 17.27h9.23z"/></g><g clip-path="url(#b)" transform="matrix(9.361 0 0 -9.361 -2380.274 809.24)"><path fill="#002d6a" d="M309.315 75.579a.358.358 0 0 0 .226-.07c.042-.03.084-.097.1-.21l.35.027c0 .183-.056.326-.183.409a.728.728 0 0 1-.479.154.816.816 0 0 1-.353-.07.459.459 0 0 1-.225-.184.432.432 0 0 1-.085-.266c0-.085.03-.17.071-.24a.426.426 0 0 1 .168-.183c.071-.043.185-.083.325-.126.183-.042.282-.07.324-.1.056-.013.086-.043.1-.07a.16.16 0 0 0 .041-.112c0-.07-.028-.127-.098-.184a.469.469 0 0 0-.254-.07c-.226 0-.35.127-.394.366l-.338-.043c.042-.421.281-.634.718-.634.254 0 .423.059.55.17a.51.51 0 0 1 .168.395.563.563 0 0 1-.056.282.841.841 0 0 1-.183.196 1.975 1.975 0 0 1-.395.14c-.168.043-.28.07-.323.113-.057.03-.072.073-.072.127 0 .043.03.1.072.129.056.043.126.054.225.054"/></g><path fill="#002d6a" d="M438.98 102.137v-2.902h-12.253v17.28h12.534v-2.92h-9.24v-4.737h8.323v-2.911h-8.322v-3.81zM351.02 99.234l-2.902 11.73-3.033-11.73h-5.008v17.28h3.023v-13.722l3.305 13.723h3.304l3.295-13.723v13.723h3.024v-17.28zM268.325 116.512h3.557l-6.599-17.28h-3.548l-6.459 17.28h3.557l1.32-3.95h6.73zm-4.867-13.33 2.228 6.478h-4.466z"/><g clip-path="url(#c)" transform="matrix(9.361 0 0 -9.361 -2380.274 809.24)"><path fill="#002d6a" d="M272.754 75.453a1.022 1.022 0 0 1-.126-.52c0-.199.042-.368.126-.522a.712.712 0 0 1 .31-.325.98.98 0 0 1 .464-.113c.141 0 .283.029.438.085a.997.997 0 0 1 .323.197v.748h-.773v-.326h.406v-.226a.427.427 0 0 0-.196-.109.55.55 0 0 0-.21-.044.483.483 0 0 0-.367.141.806.806 0 0 0-.156.506c0 .212.058.368.141.467a.528.528 0 0 0 .634.084.418.418 0 0 0 .141-.227l.352.072a.641.641 0 0 1-.239.408.905.905 0 0 1-.506.14.905.905 0 0 1-.452-.11.661.661 0 0 1-.31-.326"/></g><path fill="#002d6a" d="M529.33 93.305h1.582v5.542h1.058v-5.542h1.713V92.23h-4.353zM537.384 92.231h-1.713v6.609h1.049v-5.28l1.058 5.28h1.048l1.058-5.28v5.28h1.048v-6.609h-1.563l-1.058 4.484z"/></svg>