<svg xmlns="http://www.w3.org/2000/svg" width="1400mm" height="120mm" viewBox="0 0 1400 120"><path d="M308.542 227.12c-12.505-1.054-22.323-6.585-27.883-15.71-1.728-2.835-3.036-6.176-3.852-9.844l-.423-1.901-.046-28.704-.046-28.705.35-.692c.629-1.247.605-1.243 6.993-1.196l5.567.041.411.385c.227.212.492.524.59.693.132.228.2 6.838.263 25.549.078 23.547.103 25.319.36 26.396 1.133 4.75 3.099 8.486 6.111 11.613 4.431 4.6 10.224 6.856 17.608 6.856 11.84 0 19.598-5.82 22.362-16.776l.408-1.616.081-25.55.082-25.549.342-.64c.189-.353.57-.804.847-1.001.503-.359.513-.36 6.121-.4 6.44-.048 6.416-.052 7.042 1.189l.346.687v27.71c0 30.06.037 28.654-.842 31.909-2.011 7.451-7.6 14.594-15.016 19.192-4.407 2.732-10.37 4.86-15.924 5.684-3.614.536-8.236.684-11.85.38zm208.703-.44c-17.43-1.102-28.506-8.788-31.357-21.76-.325-1.48-.343-1.908-.346-8.19l-.003-6.63.413-.624c.27-.407.695-.764 1.223-1.028l.81-.403 5.087.002c5.054.002 5.093.004 5.886.373.554.258.93.572 1.231 1.027.415.628.432.726.394 2.282-.22 9.16 3.24 15.897 9.767 19.023 5.012 2.4 12.598 2.893 18.515 1.204 1.777-.508 4.43-1.83 5.949-2.964 4.52-3.376 7.376-9.042 8.47-16.808.2-1.416.27-2.958.274-5.986l.005-4.078-.405-.865c-.515-1.097-1.354-2.03-2.193-2.435-.649-.315-.794-.317-19.063-.317-12.262 0-18.806-.055-19.597-.165-1.835-.256-3.665-.843-5.684-1.825-7.092-3.45-12.82-10.743-14.634-18.634-.222-.967-.276-2.219-.33-7.714-.045-4.49-.012-6.757.104-7.188.24-.888 1.047-1.891 1.85-2.298.67-.339.796-.346 5.94-.346 5.595 0 5.96.04 6.742.752.834.758.917 1.167 1.03 5.097.065 2.21.205 4.185.362 5.079 1.345 7.68 5.055 12.147 11.326 13.637 1.059.251 2.452.279 16.93.33 11.067.04 15.946.008 16.346-.11.694-.204 1.427-.8 1.782-1.447.24-.438.271-1.436.34-10.794l.078-10.312.385-.77c.216-.432.614-.921.907-1.116.517-.342.59-.346 5.662-.346 5.694 0 5.779.013 6.627.978 1.033 1.177.975-.713.924 29.816l-.046 27.615-.412 1.847c-1.052 4.708-3.084 9.224-5.775 12.83-2.04 2.734-5.705 6.031-8.734 7.86-4.39 2.65-10.23 4.494-16.338 5.159-2.696.293-7.777.411-10.442.243zm-714.926-1.217c-.26-.16-.606-.557-.767-.885-.284-.577-.293-1.297-.296-23.605v-23.01l.342-1.923c1.884-10.628 8.001-20.172 17.387-27.127 5.79-4.291 12.078-6.936 19.545-8.221 1.315-.227 3.183-.269 14.363-.322 8.857-.042 13.45-.007 14.776.114 8.088.737 16.194 4.086 23.086 9.539 2.062 1.63 6.078 5.654 7.535 7.547 4.305 5.596 6.937 11.155 8.157 17.224.623 3.103.638 3.77.591 26.872-.045 22.079-.049 22.323-.357 22.855-.184.32-.59.68-.994.885-.68.345-.726.347-7.771.347-7.989 0-7.82.023-8.505-1.17l-.344-.6-.002-22.113-.002-22.114-.912-1.82c-1.027-2.048-2.58-4.452-4.059-6.283-1.34-1.658-4.643-4.85-6.32-6.104-4.063-3.04-9.436-5.126-14.064-5.459l-1.422-.102-.04 32.074c-.038 30.544-.053 32.099-.317 32.582a2.554 2.554 0 0 1-.77.807c-.467.286-.817.3-6.959.301-7.296 0-7.22.012-7.84-1.168-.314-.6-.315-.675-.355-32.599l-.04-31.997-1.345.088c-4.072.266-9.174 2.057-12.795 4.492-4.81 3.233-9.044 8.06-11.669 13.3l-.968 1.933v22.08c0 21.688-.005 22.093-.305 22.71-.582 1.204-.269 1.162-8.646 1.161-7.008 0-7.468-.017-7.914-.29zm804.085.14a2.758 2.758 0 0 1-1.648-1.439c-.299-.617-.32-.926-.32-4.457 0-3.46.027-3.868.318-4.645.427-1.142 1.592-2.402 2.64-2.857l.812-.352 23.702-.106c25.774-.116 24.165-.058 26.182-.945 4.003-1.76 7.091-5.945 8.149-11.044 1.883-9.08-2.147-17.341-9.705-19.891l-1.078-.364-19.546-.077-19.547-.077-1.163-.472c-3.733-1.516-6.807-5.098-7.992-9.312-.65-2.318-.77-3.772-.77-9.378 0-5.765.114-7.325.692-9.51 1.355-5.114 4.95-8.823 9.744-10.05 1.117-.285 2.037-.294 28.116-.294h26.963l.95.474c.546.274 1.129.71 1.371 1.027l.421.552V151.977l-.462.745c-.303.49-.694.869-1.14 1.104l-.678.358h-23.67c-16.904 0-23.904.05-24.486.173-1.589.336-2.62 1.094-3.369 2.475-.498.92-.525 1.048-.525 2.512 0 1.437.035 1.613.513 2.584.365.743.73 1.214 1.267 1.638 1.42 1.124.533 1.065 17.15 1.132 16.012.064 15.931.06 20.01.897 2.108.433 5.664 1.623 7.653 2.561 7.867 3.712 13.056 9.829 15.187 17.903 1.618 6.134 1.594 13.587-.067 20.092-.962 3.768-2.349 6.766-4.383 9.476-3.984 5.305-9.583 8.364-17.775 9.71-1.98.326-2.259.33-27.55.362-14.052.017-25.737-.026-25.966-.096zm451.513-.161c-.263-.168-.606-.592-.764-.942-.275-.61-.287-1.535-.292-23.509-.01-18.217.034-23.124.196-24.105 1.496-9.084 5.374-16.504 12.187-23.317 7.05-7.05 15.036-11.182 24.884-12.877 1.316-.227 3.183-.269 14.364-.322 8.857-.042 13.45-.007 14.775.114 6.828.622 13.748 3.126 19.777 7.156 1.186.792 2.744 1.91 3.463 2.484 1.843 1.47 5.884 5.537 7.356 7.401 4.457 5.645 7.234 11.753 8.454 18.592.255 1.432.274 3.153.274 24.702 0 22.971 0 23.168-.311 23.702-.185.32-.59.68-.995.885-.679.345-.726.347-7.771.347-8.07 0-7.857.03-8.507-1.237l-.347-.675v-43.337l-.67-1.523c-1.932-4.39-5.698-9.278-9.55-12.394-4.5-3.64-10.243-6.065-15.398-6.5l-1.162-.1-.01 31.921c-.01 31.144-.01 31.937-.299 32.572-.17.376-.51.782-.804.961-.49.298-.763.31-6.976.311-7.297 0-7.22.012-7.84-1.168-.314-.6-.315-.675-.355-32.597l-.04-31.996-1.191.106c-4.69.418-10.045 2.523-14.116 5.55-4.253 3.163-7.954 7.64-10.37 12.547l-1.024 2.078-.077 22.01c-.084 24.121-.016 22.555-1.006 23.167-.472.292-.79.304-7.939.301-7.163-.002-7.464-.014-7.923-.308zm-1079.897-.015c-10.059-1.148-19.568-7.038-25.689-15.912-3.242-4.7-5.42-10.43-6.007-15.808-.217-1.983-.218-19.62-.002-21.365 1.247-10.049 7.323-19.464 16.537-25.626 4.602-3.077 9.29-4.983 14.622-5.945l2-.362H.492c20.94 0 21.01.001 21.624.319 1.149.594 1.166.692 1.119 6.404-.04 4.839-.054 5.046-.366 5.464a3.42 3.42 0 0 1-.846.742c-.514.302-.877.31-20.762.391-18.204.075-20.332.109-21.163.338-3.556.982-5.92 2.402-8.507 5.108-1.234 1.291-3.267 4.034-3.267 4.408 0 .089 10.167.144 26.48.144 29.222 0 27.088-.075 27.656.964.246.45.271 1.039.271 6.193s-.025 5.742-.271 6.192c-.57 1.041 1.824.965-30.129.965h-28.954l.06 6.271c.06 6.168.067 6.298.462 7.811 2.278 8.73 10.342 16.255 19.816 18.489 1.058.25 2.664.279 19.239.357l18.084.085.616.33c.758.406 1.072.745 1.383 1.488.367.88.363 9.934-.006 10.855-.311.778-1.095 1.492-1.873 1.709-.714.198-41.396.19-43.138-.01zm864.13.073c-4.878-.556-8.324-1.552-12.313-3.557-3.384-1.702-6.227-3.748-9.138-6.576-6.582-6.395-10.46-14.33-11.097-22.705-.205-2.7-.205-17.283 0-19.448.62-6.533 3.323-12.94 7.8-18.491 1.429-1.77 4.332-4.651 6.124-6.077 4.21-3.349 9.56-6.01 14.698-7.313 3.793-.961 2.42-.909 25.208-.962 15.028-.035 21 0 21.461.124.353.095.87.402 1.15.682l.51.51v5.071c0 5.02 0 5.078-.35 5.595-.736 1.1.25 1.048-19.83 1.055-15.07.006-18.157.043-19.24.233-3.675.643-7.086 2.556-10.071 5.648-1.215 1.258-2.839 3.3-2.839 3.57 0 .052 11.342.112 25.203.134 23.419.038 25.237.06 25.682.304.98.537.998.674.95 7.417-.042 5.89-.053 6.086-.367 6.507-.177.24-.489.52-.692.625-.29.149-6.658.19-29.36.192l-28.99.002.076 6.041c.081 6.55.122 6.93 1.05 9.718 2.344 7.052 9.131 13.532 16.845 16.083 3.414 1.13 2.723 1.095 21.79 1.095 12.093 0 17.287.05 17.865.174 1.004.214 1.999 1.12 2.26 2.058.106.385.17 2.287.17 5.09 0 4.875-.074 5.425-.87 6.283-.223.24-.689.565-1.036.723-.607.276-1.445.286-21.41.267-11.428-.01-20.985-.043-21.24-.072zm-768.475-.338c-.254-.155-.687-.538-.962-.851l-.5-.57v-31.827c0-35.064-.053-33.03.946-36.114 2.182-6.73 7.603-12.266 14.16-14.46 2.946-.985 3.28-1.007 15.6-1.005 8.497.001 11.168.046 11.457.192.207.105.519.433.693.73.303.515.314.73.271 5.232-.049 5.148-.09 5.4-1.005 6.07-.422.308-.655.32-8.542.394l-8.108.077-1.117.409c-4.19 1.53-7.85 5.854-9.31 10.995l-.345 1.217-.078 29.089c-.063 23.714-.115 29.155-.28 29.445-.113.197-.524.56-.916.808l-.712.452h-5.395c-4.956-.001-5.433-.024-5.857-.283zm114.125.179c-10.503-.767-19.201-4.59-25.532-11.22-5.84-6.117-9.363-14.013-10.742-24.076-.338-2.468-.383-9.81-.074-12.005 1.16-8.23 4.057-15.35 8.858-21.778 1.816-2.431 5.897-6.516 8.25-8.258 5.173-3.829 10.265-6.042 16.643-7.233l1.904-.356 19.932-.046c15.697-.037 20.007-.006 20.29.145.197.106.526.478.731.827l.372.635v5.604c0 5.283-.018 5.632-.3 6.096-.165.27-.491.617-.724.77-.401.262-1.46.282-19.67.361-17.705.077-19.337.106-20.4.357-9.1 2.15-16.005 9.015-18.674 18.567-1.312 4.693-1.6 11.024-.712 15.622 2.073 10.73 9.85 18.684 20.205 20.662 1.086.207 3.827.248 20.02.3 20.835.068 19.367-.014 19.946 1.121.294.577.31.9.31 6.63 0 5.4-.028 6.07-.264 6.468-.57.966.635.914-20.461.884-10.569-.015-19.527-.05-19.908-.077zm211.283-.363c-.388-.256-.833-.655-.989-.885-.273-.403-.284-1.57-.284-32.278 0-30.216.015-31.93.28-33.239.95-4.668 3.046-8.565 6.417-11.933 3.254-3.25 7.317-5.388 11.542-6.072 2.122-.344 23.335-.357 23.997-.014.88.455.936.813.936 5.955 0 5.139-.035 5.357-.973 6.045-.423.31-.646.321-8.542.396l-8.107.077-1.125.41c-3.366 1.23-6.231 4.017-8.116 7.893-.455.936-.986 2.255-1.18 2.932l-.352 1.232-.077 29.166c-.076 28.287-.087 29.179-.37 29.595-.16.237-.581.6-.936.808l-.646.379h-10.771l-.704-.467zm337.663.306c-2.864-.481-5.26-1.765-7.354-3.942-1.735-1.802-2.765-3.61-3.655-6.412-.916-2.884-.867-.734-.867-38.132v-34.41l.434-.657c.309-.466.674-.766 1.26-1.034.824-.378.828-.378 5.337-.333 4.401.044 4.524.054 5 .393.267.19.648.676.846 1.077l.36.73.076 9.927c.058 7.413.125 10.01.265 10.255.103.18.468.44.811.578.559.223 2.09.249 14.8.249 10.723 0 14.332.046 14.811.188.385.114.918.47 1.356.907 1.127 1.122 1.232 1.671 1.173 6.109l-.048 3.67-.466.912c-.37.725-.63 1.01-1.267 1.391-.44.264-1.062.523-1.381.576-.319.052-6.765.096-14.324.097-14.971.002-14.233-.04-14.947.866-.32.406-.321.473-.32 12.277.003 10.977.024 11.973.29 13.254.768 3.71 2.8 6.965 5.104 8.178l.838.441 13.852.077c15.28.085 14.412.026 15.13 1.037.603.847.67 1.474.619 5.735l-.05 4.08-.421.715c-.292.498-.625.815-1.088 1.04-.665.321-.697.322-18.048.304-9.56-.01-17.717-.075-18.126-.143zm213.833-.226c-.126-.026-.75-.131-1.385-.234-3.602-.583-6.79-2.284-9.627-5.135-3.153-3.17-5.288-7.302-6.41-12.406-.347-1.585-.354-1.786-.354-10.62v-9.003l.413-1.625c1.263-4.967 4.09-9.497 8.283-13.27 4.034-3.63 8.804-5.901 14.698-6.998 1.234-.23 3.316-.264 19.053-.308l17.667-.05-.104-.572c-.216-1.194-.736-2.626-1.493-4.111-.664-1.304-1.009-1.765-2.254-3.01-1.26-1.26-1.681-1.574-2.933-2.185-2.799-1.367-.635-1.248-24.318-1.341-19.533-.077-21.043-.101-21.495-.349-.61-.333-1.04-.874-1.358-1.706-.21-.552-.24-1.325-.202-5.29.043-4.412.061-4.665.363-5.068.174-.234.508-.568.742-.742.424-.317.463-.318 24-.36 20.255-.038 23.782-.012 25.038.185 4.311.675 8.286 2.624 11.407 5.594 2.588 2.463 4.335 5.238 5.43 8.627 1.173 3.625 1.099 1.443 1.051 31.04-.026 15.855-.103 27.003-.193 27.796-.421 3.723-1.985 6.99-4.197 8.773-.925.745-2.822 1.671-4.263 2.08-.951.27-2.146.286-24.164.31-12.74.014-23.268.004-23.395-.022zm42.297-12.464c.967-.814.925-.145 1.042-16.335.119-16.313.127-16.125-.785-17.12l-.512-.56h-33.5l-1.148.361c-5.602 1.759-10.027 7.097-11.348 13.69-.41 2.046-.367 6.213.088 8.331.681 3.18 1.896 5.56 3.91 7.656 1.365 1.423 2.73 2.406 4.347 3.131 1.006.452 2.86.993 3.844 1.123.254.034 7.92.071 17.034.084l16.572.023z" style="fill:#000;fill-opacity:1;stroke-width:.15391" transform="translate(220.058 -123.178)"/></svg>