<svg xmlns="http://www.w3.org/2000/svg" width="808" height="96" viewBox="0 0 213.78333 25.400001"><path d="M40.217 4.233v16.934h2.116V6.35h2.117v14.817h6.35V4.233h-2.117V19.05h-2.116V4.233Z" style="fill:#000;stroke:none;stroke-width:.529165"/><path d="M62.442 4.233v16.934h6.35V4.233Zm2.116 2.117h2.117v12.7h-2.117zM80.433 4.233v16.934h6.35V19.05H82.55V4.233ZM22.225 4.233v16.934h6.35V4.233Zm2.117 2.117h2.116v12.7h-2.116zM0 4.233v16.934h2.117V6.35h2.116v14.817H6.35V9.525h2.117v11.642h2.116V7.408H6.35V4.233z" style="fill:#000;stroke:none;stroke-width:1.05833"/><path d="M116.946 4.233V6.35h2.646v14.817h2.116V6.35h2.646V4.233Z" style="fill:#000;stroke:none;stroke-width:1.13141"/><path d="M135.467 4.233v16.934h2.116v-9.525h2.117v9.525h2.117V4.233H139.7v5.292h-2.117V4.233ZM153.458 4.233v7.409h4.234v7.408h-4.234v2.117h6.35V9.525h-4.233V6.35h4.233V4.233ZM171.45 4.233v16.934h6.35V4.233Zm2.117 2.117h2.116v12.7h-2.116zM188.912 4.233v16.934h2.117v-9.525h2.646V9.525h-2.646V6.35h3.704V4.233Z" style="fill:#000;stroke:none;stroke-width:1.05833"/><path d="M206.375 4.233V6.35h2.646v14.817h2.117V6.35h2.645V4.233Z" style="fill:#000;stroke:none;stroke-width:1.13141"/><path d="m102.658 0-5.82 6.35 5.556-5.292h.264l-5.82 6.35 5.556-5.291h.264l-5.82 6.35 5.556-5.292h.264l-5.82 6.35 5.556-5.292h.264l-5.82 6.35 5.556-5.291h.264l-5.82 6.35 5.556-5.292h.264l-5.82 6.35 5.556-5.292h.264l-5.82 6.35 5.556-5.291h.264l-5.82 6.35 5.556-5.292h.264l-5.82 6.35 5.556-5.292h.264l-5.82 6.35 5.556-5.291h.264l-5.82 6.35 5.556-5.292h.264l-5.82 6.35 5.556-5.292h.264l-5.82 6.35 5.556-5.291h.264l-5.82 6.35 5.556-5.292h.264l-5.82 6.35 5.556-5.292h.264l-5.82 6.35 5.556-5.291h.264l-5.82 6.35 5.556-5.292h.264l-5.82 6.35 5.556-5.292h.264l2.117 2.117V2.117Z" style="fill:#000;stroke:none;stroke-width:1.05833"/></svg>