<svg xmlns="http://www.w3.org/2000/svg" width="71" height="18.83" version="1.0"><path d="M169.427 219.455c-1.066 0-1.627-.11-2.137-.25-.513-.14-.88-.609-.644-.99.283-.456 2.014-2.678 2.781-2.693.77-.013 2.498 2.237 2.782 2.693.236.381-.13.85-.644.99-.51.14-1.073.249-2.138.25" style="fill:#a81f23;fill-opacity:1;fill-rule:nonzero;stroke:none" transform="translate(-158.929 -213.52)"/><path d="M172.824 223.02c-.003-1.064.108-1.625.247-2.138.143-.51.61-.878.991-.641.457.283 2.678 2.011 2.693 2.779.015.771-2.236 2.499-2.693 2.781-.38.238-.848-.13-.99-.642-.14-.51-.248-1.074-.248-2.14" style="fill:#015f91;fill-opacity:1;fill-rule:nonzero;stroke:none" transform="translate(-158.929 -213.52)"/><path d="M169.257 226.416c1.064 0 1.627.11 2.138.251.512.14.879.609.642.99-.28.455-2.012 2.677-2.78 2.693-.77.012-2.5-2.238-2.78-2.693-.238-.381.13-.85.642-.99.51-.141 1.072-.248 2.138-.251" style="fill:#da8a27;fill-opacity:1;fill-rule:nonzero;stroke:none" transform="translate(-158.929 -213.52)"/><path d="M165.861 222.851c.001 1.065-.109 1.626-.251 2.139-.141.51-.608.879-.989.641-.455-.282-2.677-2.011-2.692-2.78-.015-.77 2.237-2.499 2.692-2.781.381-.238.848.131.989.644.142.51.25 1.073.251 2.137" style="fill:#0d7c42;fill-opacity:1;fill-rule:nonzero;stroke:none" transform="translate(-158.929 -213.52)"/><path d="M215.724 223.954h-2.727v-1.125c0-1.344-.616-2.013-1.847-2.013h-.936v8.201h-4.075v-9.666h6.332c2.169 0 3.253 1.161 3.253 3.478v1.125zM198.582 218.839c-4.013 0-6.03 2.106-6.03 5.3 0 3.197 2.017 5.3 6.03 5.3 4.014 0 6.032-2.103 6.032-5.3 0-3.194-2.018-5.3-6.032-5.3m-.676 9.063c-1.491 0-2.697-1.203-2.697-3.762 0-2.56 1.206-3.76 2.697-3.76 1.594 0 2.696 1.2 2.696 3.76 0 2.561-1.102 3.762-2.696 3.762M187.462 229.262a3.92 3.92 0 0 0 3.92-3.921c0-2.164-1.755-3.894-3.92-3.894h-2.778c-1.017 0-1.842-.795-1.842-1.81 0-1.018.825-1.865 1.842-1.865h5.566v-1.562l-6.88-.013a3.542 3.542 0 0 0-3.541 3.543 3.527 3.527 0 0 0 3.54 3.525h1.548c1.155 0 2.093.92 2.093 2.076 0 1.156-.938 2.01-2.093 2.01h-4.836v1.893l7.381.018zM225.727 220.44c-.787-.723-1.927-1.089-3.418-1.089h-5.107v1.465h3.752c1.232 0 1.847.669 1.847 2.013l-.016.25h-3.058c-.727 0-1.398.192-2.015.57-.86.536-1.292 1.33-1.292 2.39 0 1.072.431 1.872 1.292 2.407a3.756 3.756 0 0 0 2.015.571h7.202v-5.545c0-1.31-.4-2.318-1.202-3.032m-2.925 7.136h-1.852c-.456 0-.851-.116-1.183-.342-.407-.273-.61-.672-.61-1.195 0-.51.203-.903.61-1.178.332-.225.727-.336 1.183-.336h1.852v3.051z" style="fill:#1c1312;fill-opacity:1;fill-rule:nonzero;stroke:none" transform="translate(-158.929 -213.52)"/></svg>