<svg xmlns="http://www.w3.org/2000/svg" width="1084.2523pt" height="225pt" viewBox="0 0 1084.2523 225"><path fill="#a51108" d="M-145.962 643.7c11.151 0 20.237-9.07 20.237-20.26 0-11.173-9.086-20.228-20.237-20.228-11.173 0-20.251 9.055-20.251 20.228 0 11.19 9.078 20.26 20.251 20.26" style="stroke-width:7.53958" transform="translate(221.44 -540.973)"/><path fill="#a51108" d="M45.25 741.096s-46.346-73.27-48.54-77.439c-2.202-4.177-4.622-5.934-7.706-5.934h-68.052v-63.619c0-5.504 4.494-5.715 6.703-1.545 2.186 4.192 21.435 37.81 21.435 37.81h33.86l-43.88-76.903a24.989 24.989 0 0 0-21.662-12.493c-13.842 0-25.061 11.211-25.061 25.046 0 0-.189 113.9-.189 116.54 0 2.639 1.071 4.026 2.828 4.026h72.485c7.412 0 10.322 2.375 13.406 7.193 2.608 4.063 21.495 30.821 23.832 34.486 2.375 3.71.174 7.396-5.64 7.396h-175.724c-3.521 0-5.293-4.584-2.82-8.452 2.473-3.875 37.766-69.206 37.766-69.206h-32.443l-45.66 83.697a14.106 14.106 0 0 0-1.628 6.582c0 7.924 6.423 14.333 14.325 14.333h240c7.901 0 14.31-6.409 14.31-14.333 0-2.616-.701-5.074-1.945-7.185" style="stroke-width:7.53958" transform="translate(221.44 -540.973)"/><path fill="#5f605c" d="M96.451 654.999H76.207v-81.217h20.244zM130.364 573.782l36.876 49.173v-49.173h20.236v81.216h-18.23l-37.284-49.535v49.535H111.72v-81.216zM685.368 573.782l36.876 49.173v-49.173h20.236v81.216h-18.23l-37.276-49.535v49.535H666.73v-81.216zM265.338 573.782v14.355h-25.401v66.861h-20.26v-66.86H194.27v-14.356zM822.106 573.782v14.355H796.69v66.861h-20.237v-66.86h-25.415v-14.356zM328.919 573.782v14.355h-35.534v17.62h34.177v14.363h-34.177v20.53h36.348v14.348h-56.577v-81.216zM360.472 573.782v66.868h38.301v14.348h-58.56v-81.216zM428.856 573.782v66.868h38.309v14.348h-58.56v-81.216zM496.637 654.999h-20.251v-81.217h20.25zM587.64 613.365v40.065c-2.843.739-6.854 1.432-12.094 1.938-5.225.603-10.17.836-15.14.836-8.315 0-15.674-.965-22.4-2.895-6.687-1.937-12.44-4.591-17.152-8.21-4.554-3.62-8.165-7.962-10.586-13.157-2.405-5.067-3.619-10.857-3.619-17.371 0-6.145 1.214-11.694 3.62-16.881 2.54-5.195 6.031-9.659 10.457-13.406 4.561-3.747 9.914-6.627 16.225-8.693 6.16-2.043 13.013-3.129 20.372-3.129 3.483 0 6.846.234 10.058.724 3.091.362 6.175.965 9.25 1.689 2.949.844 5.897 1.81 8.702 3.008v16.173c-5.361-2.051-9.907-3.499-13.798-4.449-4.01-.86-8.045-1.221-12.335-1.221-6.167 0-11.535 1.093-16.225 3.25-4.69 2.073-8.316 5.074-10.977 8.941-2.7 3.981-3.898 8.332-3.898 13.39 0 3.997.686 7.6 2.156 10.865 1.598 3.25 3.74 6.153 6.695 8.437 2.812 2.307 6.303 4.102 10.473 5.436 3.98 1.206 8.557 1.817 13.518 1.817 1.885 0 4.034 0 6.439-.128V627.35h-9.116v-13.986ZM654.418 573.782v14.355h-35.52v17.62h34.17v14.363h-34.17v20.53h36.311v14.348h-56.57v-81.216zM335.983 676.125v14.363h-25.408v66.861h-20.251v-66.86h-25.416v-14.364zM123.805 696.153c-6.032-3.981-12.064-5.919-18.36-5.919-3.762 0-6.71.731-8.85 2.179-2.285 1.568-3.356 3.74-3.356 6.273 0 1.696.264 3.136 1.07 4.222.672 1.206 1.878 2.3 3.755 3.498 1.742 1.214 4.547 2.64 8.452 4.479 4.833 2.292 8.709 4.697 11.664 7.11 2.948 2.277 5.09 4.825 6.431 7.479 1.478 2.782 2.142 5.79 2.142 9.168 0 4.584-1.47 8.678-4.155 12.305-2.797 3.634-6.567 6.521-11.4 8.572-4.682 2.051-10.314 3.009-16.481 3.009-6.974 0-14.348-1.44-22.114-4.336V736.21a63.904 63.904 0 0 0 11.114 5.308c3.49 1.093 6.574 1.802 9.522 1.802 3.612 0 6.567-.83 8.972-2.518 2.42-1.704 3.627-3.747 3.627-6.401 0-1.448-.392-2.775-1.063-3.853-.671-1.086-2.02-2.292-4.026-3.498a90.157 90.157 0 0 0-8.46-4.464c-4.946-2.42-8.836-4.704-11.784-6.89-2.948-2.285-5.09-4.706-6.296-7.352-1.214-2.54-1.885-5.549-1.885-9.055 0-4.833 1.35-9.055 3.89-12.795 2.542-3.732 6.16-6.514 10.865-8.565 4.682-2.05 10.043-3.136 16.09-3.136 3.49 0 6.695.362 9.65.98 3.084.588 6.703 1.787 10.986 3.483zM168.642 701.58l19.43-25.455h23.87l-33.121 42.961v38.256h-20.372v-38.256l-32.714-42.96h23.72zM259.057 696.153c-6.04-3.981-12.086-5.919-18.374-5.919-3.755 0-6.71.731-8.844 2.179-2.284 1.568-3.362 3.74-3.362 6.273 0 1.696.263 3.136 1.078 4.222.663 1.206 1.877 2.3 3.754 3.498 1.735 1.214 4.554 2.64 8.46 4.479 4.825 2.292 8.693 4.697 11.656 7.11 2.948 2.277 5.097 4.825 6.424 7.479 1.485 2.782 2.164 5.79 2.164 9.168 0 4.584-1.486 8.678-4.17 12.305-2.812 3.634-6.56 6.521-11.385 8.572-4.69 2.051-10.329 3.009-16.504 3.009-6.974 0-14.347-1.44-22.128-4.336V736.21a64.045 64.045 0 0 0 11.136 5.308c3.49 1.093 6.56 1.802 9.515 1.802 3.626 0 6.567-.83 8.987-2.518 2.42-1.704 3.634-3.747 3.634-6.401a7.228 7.228 0 0 0-1.093-3.853c-.664-1.086-2.006-2.292-4.027-3.498a89.575 89.575 0 0 0-8.444-4.464c-4.946-2.42-8.844-4.704-11.792-6.89-2.955-2.285-5.097-4.706-6.295-7.352-1.207-2.54-1.878-5.549-1.878-9.055 0-4.833 1.327-9.055 3.883-12.795 2.541-3.732 6.168-6.514 10.85-8.565 4.704-2.05 10.065-3.136 16.104-3.136 3.491 0 6.71.362 9.636.98 3.083.588 6.718 1.787 11.015 3.483zM397.921 676.125v14.348h-35.519v17.62h34.17v14.356h-34.17v20.522h36.318v14.363h-56.562v-81.209zM426.308 676.125l24.488 31.606 24.625-31.606h17.454v81.21H472.6v-50.448l-20.184 26.916h-3.22l-20.364-26.916v50.447h-20.228v-81.209zM552.437 696.153c-6.024-3.981-12.063-5.919-18.359-5.919-3.747 0-6.702.731-8.843 2.179-2.292 1.568-3.363 3.74-3.363 6.273 0 1.696.271 3.136 1.07 4.222.672 1.206 1.885 2.3 3.763 3.498 1.741 1.214 4.561 2.64 8.444 4.479 4.833 2.292 8.708 4.697 11.664 7.11 2.948 2.277 5.09 4.825 6.424 7.479 1.477 2.782 2.148 5.79 2.148 9.168 0 4.584-1.462 8.678-4.154 12.305-2.797 3.634-6.574 6.521-11.385 8.572-4.697 2.051-10.329 3.009-16.496 3.009-6.974 0-14.34-1.44-22.121-4.336V736.21a63.74 63.74 0 0 0 11.128 5.308c3.483 1.093 6.582 1.802 9.515 1.802 3.619 0 6.574-.83 8.987-2.518 2.42-1.704 3.612-3.747 3.612-6.401 0-1.448-.393-2.775-1.086-3.853-.656-1.086-1.998-2.292-3.996-3.498a90.542 90.542 0 0 0-8.444-4.464c-4.984-2.42-8.867-4.704-11.823-6.89-2.932-2.285-5.081-4.706-6.288-7.352-1.206-2.54-1.87-5.549-1.87-9.055 0-4.833 1.343-9.055 3.891-12.795 2.526-3.732 6.167-6.514 10.85-8.565 4.697-2.05 10.072-3.136 16.104-3.136 3.476 0 6.695.362 9.643.98 3.084.588 6.71 1.787 10.985 3.483zM609.293 725.015c-4.35-2.103-8.617-3.136-12.824-3.136-3.046 0-5.851.633-8.34 1.862-2.472 1.206-4.463 2.888-5.835 4.991-1.432 2.119-2.141 4.562-2.141 7.246 0 2.578.709 4.938 2.141 7.064 1.372 2.036 3.363 3.717 5.836 4.863 2.488 1.146 5.33 1.734 8.406 1.734 2.632 0 5.142-.377 7.555-1.168 2.42-.814 4.78-1.976 7.2-3.634v9.22c-1.907 1.147-4.418 2.134-7.426 2.82-2.978.702-5.828 1.094-8.595 1.094-3.785 0-7.344-.588-10.578-1.667-3.182-1.1-5.949-2.563-8.377-4.546-2.42-1.99-4.282-4.358-5.549-6.997-1.29-2.699-1.915-5.564-1.915-8.783 0-3.137.626-6.092 1.968-8.852 1.282-2.744 3.227-5.18 5.557-7.162 2.42-2.059 5.285-3.59 8.557-4.75 3.28-1.146 6.838-1.734 10.616-1.734 2.767 0 5.172.256 7.343.776a23.402 23.402 0 0 1 6.401 2.375zM632.81 723.675c-2.074 1.153-3.71 2.82-4.871 4.923-1.199 2.186-1.757 4.561-1.757 7.246 0 2.646.558 5.006 1.757 7.132a12.753 12.753 0 0 0 4.87 4.87c2.059 1.2 4.336 1.787 6.9 1.787 2.653 0 4.983-.588 7.056-1.786a12.343 12.343 0 0 0 4.848-4.946c1.184-2.051 1.84-4.411 1.84-6.982 0-2.05-.34-3.92-1.063-5.647-.649-1.72-1.561-3.197-2.775-4.418a13.393 13.393 0 0 0-4.418-2.948c-1.629-.702-3.491-1.026-5.346-1.026-2.623 0-4.983.566-7.042 1.795m19.731-7.306c3.838 1.915 6.907 4.546 9.04 7.939 2.15 3.4 3.197 7.185 3.197 11.415 0 3.151-.55 6.145-1.847 8.844-1.206 2.76-3 5.066-5.263 7.125-2.284 1.99-4.983 3.513-8.052 4.614-3.053 1.078-6.416 1.666-9.96 1.666-4.652 0-8.851-.957-12.606-2.955-3.8-1.923-6.793-4.615-8.912-8.007-2.209-3.4-3.294-7.186-3.294-11.287 0-4.162 1.085-7.887 3.211-11.28 2.202-3.392 5.195-6.084 8.995-8.014 3.755-1.923 7.954-2.955 12.606-2.955 4.75 0 9.033.972 12.885 2.895M675.174 747.398c.928.505 1.727 1.221 2.277 2.043.505.912.77 1.795.77 2.767 0 .965-.265 1.923-.77 2.752-.55.89-1.35 1.53-2.277 2.05-.995.506-2.005.762-3.076.762-1.055 0-2.043-.256-3.046-.761-.927-.52-1.696-1.161-2.201-2.05a4.679 4.679 0 0 1-.875-2.753c0-.972.279-1.855.875-2.767.505-.822 1.274-1.538 2.201-2.043 1.003-.52 1.99-.762 3.046-.762 1.07 0 2.081.242 3.076.762M683.596 764.186c.988-.897 1.84-1.99 2.405-3.204.656-1.222.92-2.36.92-3.4 0-.31 0-.566-.06-.898-1.282-.83-2.202-1.598-2.692-2.375-.573-.693-.792-1.59-.792-2.548 0-1.41.573-2.714 1.697-3.74 1.093-.95 2.427-1.38 4.071-1.38 1.206 0 2.352.234 3.363.875.98.64 1.756 1.53 2.337 2.639a8.286 8.286 0 0 1 .86 3.717c0 2.036-.581 3.958-1.712 5.813-1.063 1.877-2.563 3.363-4.418 4.501a11.864 11.864 0 0 1-5.979 1.787zM711.138 714.184v35.52h22.099v7.637h-32.85v-43.157zM764.194 714.184v7.645H748.09v35.512h-10.76v-35.512h-16.089v-7.645zM782.576 749.703c3.264 0 6.122-.58 8.617-1.681 2.428-1.146 4.29-2.745 5.632-4.863 1.275-2.18 1.915-4.607 1.915-7.434 0-2.76-.64-5.127-1.915-7.23-1.342-2.134-3.151-3.778-5.496-4.954-2.42-1.154-5.074-1.712-8.037-1.712h-4.856v27.874zm2.352-35.519c3.619 0 6.967.52 10.095 1.614 3.077 1.093 5.776 2.684 7.992 4.667 2.27 2.05 4.064 4.365 5.278 6.996a21.102 21.102 0 0 1 1.855 8.716c0 3.084-.573 5.881-1.772 8.46a20.28 20.28 0 0 1-5.217 6.732c-2.202 1.923-4.84 3.393-7.91 4.426-3.068 1.018-6.408 1.546-9.982 1.546H767.67v-43.157zM819.045 747.398c.92.505 1.719 1.221 2.269 2.043.505.912.792 1.795.792 2.767 0 .965-.287 1.923-.792 2.752-.55.89-1.35 1.53-2.27 2.05-1.017.506-1.997.762-3.068.762-1.078 0-2.066-.256-3.069-.761-.927-.52-1.689-1.161-2.201-2.05a4.826 4.826 0 0 1-.86-2.753c0-.972.287-1.855.86-2.767a5.942 5.942 0 0 1 2.201-2.043 6.467 6.467 0 0 1 3.069-.762c1.07 0 2.05.242 3.069.762M858.318 587.477a12.604 12.604 0 0 1-4.637 4.72c-1.93 1.116-4.04 1.749-6.333 1.749-2.292 0-4.403-.633-6.34-1.75-1.976-1.168-3.507-2.736-4.675-4.772a12.962 12.962 0 0 1-1.712-6.469c0-1.749.317-3.46.996-5.036.678-1.568 1.568-2.963 2.744-4.177 1.169-1.169 2.518-2.104 4.049-2.737 1.568-.678 3.189-.995 4.938-.995 1.757 0 3.37.317 4.893.995a12.362 12.362 0 0 1 4.05 2.737c1.175 1.214 2.118 2.609 2.744 4.23.67 1.575.995 3.234.995 4.983 0 2.338-.588 4.494-1.712 6.522m2.42-14.34c-1.38-2.383-3.226-4.32-5.609-5.708a15.186 15.186 0 0 0-7.78-2.11c-2.112 0-4.087.399-5.972 1.206-1.893.814-3.559 1.892-4.991 3.37a14.546 14.546 0 0 0-3.333 5.044 15.159 15.159 0 0 0-1.214 6.016c0 2.066.407 4.094 1.169 5.987.807 1.93 1.93 3.634 3.378 5.081a15.704 15.704 0 0 0 4.99 3.363 15.291 15.291 0 0 0 5.972 1.214c2.79 0 5.399-.679 7.781-2.111 2.383-1.395 4.267-3.28 5.61-5.708 1.402-2.427 2.073-5.036 2.073-7.826 0-2.827-.671-5.39-2.074-7.818" style="stroke-width:7.53958" transform="translate(221.44 -540.973)"/><path fill="#5f605c" d="M848.26 578.825c-.407.354-.95.49-1.666.49h-1.62v-3.95h1.62c1.523 0 2.292.67 2.292 2.02 0 .633-.173 1.078-.626 1.44m5.836 8.135c-.626-1.576-1.214-2.744-1.696-3.513a7.542 7.542 0 0 0-1.667-1.885c.943-.49 1.667-1.124 2.074-1.795.437-.678.626-1.53.626-2.518 0-1.086-.234-2.028-.77-2.835-.49-.806-1.213-1.432-2.156-1.84-.95-.452-2.073-.723-3.377-.723h-6.47v18.208h4.313v-7.374h.272c.67 0 1.304.226 1.84.679.497.445.95 1.123 1.394 2.066l2.156 4.629h5.09c-.498-.679-1.086-1.704-1.629-3.099" style="stroke-width:7.53958" transform="translate(221.44 -540.973)"/></svg>