<svg xmlns="http://www.w3.org/2000/svg" width="379.85983" height="300" viewBox="0 0 593.81836 468.94734"><path d="M142.529 185.369c-.352.547-.763 1.134-1.577 1.47-3.047.995-4.427-.707-5.047-2.444-.2-.618-.868-.884-1.556-.743-.848.301-1.521 1.205-1.31 2.269.351 1.486 1.184 2.676 2.55 3.419 1.787 1.009 4.267 1.134 6.605.351 1.521-.512 3.49-2.48 3.49-3.896 0-.672-.252-1.134-.87-1.38-1.365-.512-1.786.2-2.283.974M173.61 192.258c1.877-.567 3.915-2.355 3.915-4.021 0-.834-.402-1.346-1.044-1.702a1.956 1.956 0 0 0-2.018.567l-.653.834c-.798 1.064-1.541 2.053-3.384 1.4-1.38-.351-1.772-1.26-2.108-1.983l-.452-.813c-.452-.618-1.506-.547-2.214-.1-.672.502-1.184 1.4-.567 2.675 1.009 1.893 3.95 4.73 8.519 3.153M379.574 69.263c.904.201 1.416.352 2.41.568-.2.728-.547 2.675-.994 4.729.904.622 1.807 1.184 2.746 1.857.763-3.65 1.576-7.42 1.576-7.42.05-.15.05-.251.05-.352 0-.728-.567-1.4-1.24-1.506l-5.188-1.24c-.778-.2-1.486.251-1.772.94 0 0-.693 1.7-1.717 4.11.883.618 1.787 1.17 2.676 1.753.727-1.752 1.26-3.048 1.435-3.454" style="fill:#1a253b" transform="matrix(1.32516 0 0 1.32516 -61.722 -56.869)"/><path d="M493.802 208.161s-6.623-2.27-11.51-3.966l6.87-1.591c.673-.15 1.135-.778 1.135-1.541l-.05-3.364c0-.868-.728-1.591-1.557-1.591 0 0-3.84.1-5.207.1-.512-.903-2.64-4.162-4.553-7.155 3.7.94 8.695 2.265 8.695 2.265.92.2 1.612-.302 1.878-1.115l1.38-4.905v-.451c0-.618-.451-1.205-1.134-1.451 0 0-7.28-2.003-12.521-3.434 2.746-.728 5.508-1.556 5.508-1.556l9.758-2.816c.301-.1.693-.302.974-.638.2-.301.351-.673.351-1.03 0-.602-.25-1.134-.401-1.857l-.548-2.158c-.2-.869-1.044-1.702-1.877-1.521 0 0-5.526.974-7.155 1.33-.728-1.33-3.418-5.968-4.638-8.022 2.46-.869 9.35-3.454 9.35-3.454.548-.25.955-.813.955-1.4v-.1l-.618-5.863c0-.351-.301-.728-.673-1.029a1.552 1.552 0 0 0-1.24-.251s-11.316 2.62-13.087 3.027c-.673-.868-1.772-2.425-3.027-4.071 3.454-.763 14.416-3.118 14.416-3.118.637-.15 1.204-.778 1.204-1.506v-.25l-.903-4.78c-.1-.728-.813-1.275-1.612-1.24 0 0-13.034.567-16.169.693.351-1.807.763-4.322.763-4.322.05-.15.05-.251.05-.352 0-.502-.2-.994-.743-1.255 0 0-2.284-1.4-2.565-1.54 4.478-2.762 9.351-5.703 9.351-5.703.351-.201.658-.673.693-1.15 0-.035.017-.1.017-.15 0-.352-.2-.834-.512-1.135l-4.819-4.177a1.328 1.328 0 0 0-1.596-.2s-6.624 2.87-12.096 5.365c4.056-4.764 8.146-10.112 8.394-10.466.201-.15.302-.617.302-.919 0-.401-.251-.778-.502-1.17l-3.384-3.062c-.602-.512-1.416-.512-2.038-.1 0 0-11.67 8.979-13.53 10.378h-.05c1.008-1.842 10.218-19.003 10.218-19.003.1-.25.25-.502.25-.692 0-.532-.25-.884-.511-1.24l-2.656-2.214c-.25-.301-.693-.452-1.15-.402-.451.036-.833.201-1.079.568 0 0-1.415 1.982-2.374 3.027a1094.6 1094.6 0 0 0-5.366-2.53 775.564 775.564 0 0 0 5.189-6.234c.25-.302.401-.658.401-.954 0-.352-.15-.798-.502-1.15l-2.922-2.977c-.617-.512-1.485-.617-2.053-.15 0 0-2.319 1.787-4.197 3.348-.502-3.81-1.54-13.017-1.54-13.017-.05-.833-.638-1.45-1.597-1.38l-4.056.1c-.884.035-1.577.672-1.577 1.54 0 0-.3 13.797-.3 16.719-1.914-.301-4.198-.778-5.951-1.08.672-2.319 2.655-9.315 2.655-9.315.151-.1.151-.3.151-.401 0-.302-.2-.603-.351-.919a1.793 1.793 0 0 0-1.275-.547l-4.217.035c-.402.05-.92.251-1.22.673 0 0-4.71 7.155-5.756 8.554-1.185-.301-4.357-1.03-6.854-1.597 2.375-2.796 8.89-10.501 8.89-10.501.202-.301.352-.638.352-.939 0-.15-.035-.351-.1-.452-.15-.512-.502-.938-.974-1.064l-4.182-1.416c-.452-.15-1.029-.15-1.486.201l-10.678 7.438a748.534 748.534 0 0 1-1.702-7.863c-.1-.653-.673-1.275-1.416-1.275l-2.726-.1c-.778 0-1.45.582-1.596 1.29 0 0-.798 4.442-1.627 8.553.959.708 1.878 1.33 2.796 2.144.658-3.63 1.401-7.615 1.682-8.802h.1c.402 1.858 1.913 9.014 1.913 9.014.036.512.502.919.869 1.135.502.15 1.079.15 1.56-.15 0 0 10.821-7.527 12.043-8.449.352.201.638.302 1.295.513-2.158 2.585-8.996 10.696-8.996 10.696-.251.302-.402.638-.402.994 0 .201 0 .352.05.502.201.512.603.954 1.115.99l10.413 2.424c.673.15 1.366-.2 1.667-.638 0 0 5.065-7.509 5.861-8.748h1.22l-2.5 8.926c0 .1-.05.25-.05.401 0 .301.05.603.25.814.202.3.638.617 1.03.707l9.369 1.612c.451.2.903 0 1.295-.251.351-.251.532-.728.532-1.15 0 0 .401-14.61.401-17.125h1.22c.251 2.319 1.627 14.309 1.627 14.309.15.602.401 1.08.959 1.275.532.2 1.114.1 1.556-.2 0 0 3.84-3.048 5.383-4.107.352.452.502.547.904 1.029-1.345 1.486-5.526 6.623-5.526 6.623-.25.302-.3.673-.3.994v.352c.05.401.35.848.777 1.044l8.36 4.021c.657.2 1.485.1 1.912-.502 0 0 1.15-1.486 2.053-2.71.201.2.201.2.452.35-1.03 1.913-10.236 18.897-10.236 18.897-.05.2-.201.502-.201.693 0 .451.1.778.502 1.079l1.702 1.857c.502.583 1.45.693 2.088.201 0 0 11.847-9.032 13.654-10.414.567.512.708.763 1.345 1.33-2.213 2.797-8.482 10.715-12.078 14.381-.25.302-.452.618-.452 1.065 0 .351.036.582.201.833.502.617 1.31.883 2.018.567 0 0 16.081-7.119 17.693-7.863.672.547 1.295 1.17 2.46 2.038-3.153 1.878-21.253 12.734-21.253 12.734a1.617 1.617 0 0 0-.778 1.365l.1 3.098c.101.833.799 1.54 1.702 1.45l5.455-.25c.452-.05.848-.251 1.079-.548 0 0 5.667-6.02 7.013-7.456.402.201.452.302.833.452-.3 1.521-1.029 5.242-1.029 5.242v.251c0 .352.15.708.352 1.065.351.351.813.512 1.31.512 0 0 14.433-.708 16.754-.763.15.763.25 1.134.401 1.912a11490.1 11490.1 0 0 1-15.266 3.278c-.512.1-.939.512-1.134.94-.05.2-.201.35-.201.617 0 .25.2.617.351.868l5.082 6.907c.352.452.994.728 1.612.618 0 0 9.67-2.27 12.29-2.907.1 1.15.251 1.807.301 2.726-1.787.693-9.811 3.685-9.811 3.685-.402.2-.763.502-.939.954-.035.15-.035.35-.035.502 0 .35.017.567.1.763l6.163 10.554c.251.618.904.904 1.556.814 0 0 4.835-.94 6.943-1.38.017.672.2 1.33.2 1.33-1.877.567-8.536 2.424-8.536 2.424l-10.856 3.173c-.672.1-1.134.743-1.134 1.47 0 .653.452 1.331 1.134 1.522 0 0 13.885 3.755 16.435 4.443-.2.848-.351 1.114-.547 1.892-2.375-.617-11.05-2.781-11.05-2.781-.623-.251-1.311.05-1.647.567-.402.502-.402 1.24-.1 1.737l7.295 11.193c.251.401.743.743 1.31.743 0 0 2.727-.1 4.443-.1 0 .3.1.3.1.602-2.072.502-10.962 2.495-10.962 2.495-.657.25-1.17.763-1.204 1.485v.151c0 .618.351 1.205 1.064 1.436 0 0 9.652 3.363 13.672 4.659-1.15.868-1.823 1.275-2.27 1.631-1.345-.402-18.612-4.744-18.612-4.744-.502-.2-.924 0-1.31.251-.402.351-.603.708-.603 1.185l.05 6.606c0 .918.744 1.591 1.542 1.591 0 0 4.372-.05 8.128-.05-3.915.582-8.624 1.29-8.624 1.29-.618.1-1.115.502-1.255 1.08l-2.887 9.935c-.035.15-.035.3-.035.502 0 .351.035.728.351.883 0 0 6.907 9.404 8.076 10.856a38.39 38.39 0 0 0-1.486 2.124 3611.426 3611.426 0 0 1-8.394-11.335c-.301-.451-.743-.652-1.24-.652-.603.035-.994.2-1.275.652 0 0-3.806 5.562-4.554 6.801-1.134-.15-3.348-.351-3.348-.351a1.749 1.749 0 0 0-1.647.883c-.035.15-.05.452-.05.653 0 .401.05.743.352 1.029 0 0 6.251 6.712 7.42 7.987-.15.352-.251.502-.452.99-2.46-1.612-15.16-9.546-15.16-9.546a1.67 1.67 0 0 0-1.275-.2c-.452.1-.728.4-.974.742l-.958 1.878c-.151.301-.151.452-.151.763 0 .502.15.919.602 1.22 0 0 2.018 1.47 2.942 2.269 0 .2-.1.2-.1.512-1.346-.301-2.887-.708-2.887-.708-.401-.05-.833 0-1.31.251-.402.251-.618.813-.618 1.24l.1 3.84c0 .728.533 1.401 1.311 1.557 0 0 7.03.918 8.997 1.114v.658c-1.205.3-3.098.939-3.098.939-.567.2-.974.637-1.044 1.33v.05c0 .567.251 1.064.673 1.38 0 0 12.272 7.51 14.327 8.838-.512.798-.673 1.205-1.065 2.179-2.515-1.185-23.094-10.821-23.094-10.821-.502-.251-1.17-.201-1.556.05-.452.351-.693.778-.693 1.345l.583 10.325c0 .452.25.834.502 1.185 0 0 5.03 4.322 6.535 5.667-.251.352-.251.452-.587.813-1.401-1.114-3.756-2.816-3.756-2.816-.401-.401-1.064-.401-1.626-.2a1.494 1.494 0 0 0-.813 1.345c0 .05.547 8.695.798 11.954a84.752 84.752 0 0 0-3.293-1.045c-.1-1.737-1.933-15.744-1.933-15.744a1.39 1.39 0 0 0-.582-1.009l-7.421-5.614c-.618-.502-1.436-.401-2.018.05l-8.678 7.616c-.351.3-.502.798-.502 1.15v.35c.15.533.567.995 1.08 1.185 0 0 8.96 2.57 11.245 3.243-.402 1.22-.602 2.284-1.064 3.399-2.41-.402-29.735-4.855-29.735-4.855-.693-.2-1.345.1-1.646.884-.1.2-.1.402-.1.617 0 .503.2.869.501 1.17 0 0 9.174 7.828 11.05 9.421-.883 1.185-1.912 2.34-2.795 3.525-2.074-1.702-12.238-10.095-12.238-10.095-.567-.402-1.38-.402-1.983 0l-11.263 8.554c-.401.25-.587.763-.587 1.22 0 .15.05.3.05.351.1.618.638 1.15 1.22 1.205.693.1 5.56 1.591 10.396 3.117-.502 1.03-.708 1.597-1.08 2.375-1.772-.1-12.964-.833-12.964-.833-.351-.035-.868.05-1.205.532-.3.2-.401.602-.401 1.009v.15s.452 6.145.728 8.395c-1.044 0-1.506.05-2.41.1-.567-1.877-3.082-9.758-3.082-9.758-.201-.582-.583-.938-1.22-1.029l-7.881-1.506c-.402-.05-.833.201-1.22.502-.402.201-.532.708-.618 1.115 0 0-.502 6.552-.707 8.5-.548.101-.618.101-1.22.201-.547-2.088-2.711-10.555-2.711-10.555-.15-.547-.512-.868-1.01-1.08l-7.49-2.409c-.548-.15-1.08-.035-1.542.301a1.688 1.688 0 0 0-.502 1.17c0 .05.035.15.035.15s1.416 12.008 1.562 13.992c-.548.2-.799.25-1.451.567-.974-2.354-5.95-14.31-5.95-14.31-.201-.4-.638-.692-1.15-.868-.502-.15-1.03 0-1.4.301-.453.352-3.4 2.16-6.04 3.685-.512.251-.763.813-.763 1.38 0 .151.018.302.2.603 0 0 2.566 5.526 3.47 7.527-.568.25-.693.301-1.24.602-3.188-5.33-3.81-5.968-3.931-6.216a1.693 1.693 0 0 0-1.612-.251c-.602.1-.953.617-1.044 1.185 0 0-1.556 12.343-1.892 14.716-1.08-.018-2.089-.15-3.278-.15 0-2.64-.302-24.44-.302-24.44 0-.617-.25-1.134-.743-1.345-.502-.301-1.079-.2-1.59.035 0 0-3.967 2.375-5.615 3.243-.25-.401-.351-.567-.708-.868 1.878-1.451 7.934-6.234 7.934-6.234.351-.25.658-.798.658-1.22l-.1-5.135c0-.452-.202-.849-.402-1.1-.352-.351-.763-.547-1.205-.547l-6.995.251c-.567 0-1.064.301-1.38.849l-7.988 14.752c-.1.2-.2.452-.2.728 0 .351.2.728.401 1.099 0 0 7.03 7.244 8.323 8.571-.15.201-.15.302-.401.638-1.787-1.255-5.42-3.825-5.42-3.825-.582-.302-1.365-.302-1.912.05-.402.401-.602.778-.602 1.275 0 .2.05.351.2.637 0 0 5.083 11.671 6.145 14.292-1.17.352-1.752.532-2.71.743-1.08-2.088-9.989-20.703-9.989-20.703a2.212 2.212 0 0 0-1.009-.778c-.452-.1-.939-.05-1.295.2l-9.156 5.916a1.465 1.465 0 0 0-.708 1.275c0 .05 0 .15.036.251 0 0 1.31 8.164 1.54 9.457-.4.402-.868.884-1.771 1.787-.728-3.594-2.34-10.802-2.34-10.802l-.813-3.86c-.1-.654-.658-1.065-1.22-1.22-.652-.101-1.325.2-1.646.707-1.612 2.445-2.676 4.021-3.258 5.065-.583-.452-.834-.692-1.15-1.044.2-1.47 2.073-13.424 2.073-13.424v-.3c0-.302-.15-.729-.502-1.03-.301-.351-.883-.532-1.345-.402l-9.758 1.737c-.778.151-1.205.834-1.205 1.557v.3s2.69 16.382 2.992 18.366c-.658.2-1.612.452-2.64.567-.568-2.354-3.58-15.018-3.58-15.018-.036-.617-.502-.954-1.03-1.114-.45-.201-1.114 0-1.45.25l-13.991 11.6a1.16 1.16 0 0 0-.532.994s-.848 9.05-.994 11.423c-1.115-.017-1.807-.15-2.761-.25-.251-1.858-1.33-9.263-1.33-9.263-.036-.402-.201-.673-.452-.939l-11.405-11.068c-.452-.452-.959-.502-1.521-.452-.512.1-.919.603-1.1 1.08 0 0-2.354 8.465-3.152 11.05-.833-.351-1.15-.532-1.752-.868.05-1.717.512-13.743.512-13.796 0-.352-.2-.884-.638-1.185-.351-.251-.923-.251-1.38-.251l-3.469 1.064-7.314 2.124c-.582.1-1.029.727-1.044 1.38 0 0-.547 8.944-.658 10.555-.547.251-.868.352-1.626.618a1373.97 1373.97 0 0 0-.939-9.475c-.05-.452-.301-.919-.673-1.135-.35-.25-.883-.3-1.255-.2l-6.818 1.967c-.708.151-1.08.653-1.08 1.276 0 0-.692 5.472-.953 7.42h-1.933c-.1-1.948-.351-6.429-.351-6.429 0-.919-.673-1.486-1.612-1.486 0 0-9.58.251-11.777.301a24.18 24.18 0 0 1-.301-2.073c1.667-.2 4.162-.351 4.162-.351.622-.05 1.114-.402 1.31-.994.1-.151.15-.302.15-.603s-.2-.743-.451-1.08l-10.45-11.333c-.511-.618-1.415-.779-1.982-.251l-3.88 2.62c-.352.301-.688.618-.729 1.135 0 0-.512 9.616-.532 11.228-.778.512-2.249 1.24-3.95 2.178-.251-3.097-.96-10.165-.96-10.165-.1-.351-.3-.848-.582-.974-.401-.351-.778-.452-1.22-.351 0 0-4.02.502-5.773.743v-.251c1.808-.728 6.092-2.159 6.092-2.159a1.564 1.564 0 0 0 1.01-1.47v-.252l-.503-4.638c-.05-.352-.25-.814-.637-1.03-.352-.3-.834-.35-1.255-.25 0 0-19.039 4.568-21.5 5.188-.401-1.08-.673-2.053-1.114-3.293 2.726-.778 22.58-6.535 22.58-6.535.707-.2 1.184-.848 1.184-1.486 0-.036-.868-17.02-.868-17.02a1.38 1.38 0 0 0-.833-1.254c-.533-.251-1.15-.251-1.612.05l-11.865 8.182c-.352.401-.623.833-.623 1.33 0 .251.05.502.1.763 0 0 2.054 3.93 2.942 5.791-.693.302-.883.452-1.436.763-1.009-1.591-3.152-4.744-3.152-4.744-.251-.451-.582-.657-1.03-.763-.451-.1-.833.1-1.184.251l-7.845 5.844c-.352.251-.548.618-.583 1.1l-.401 4.729s-.452 9.227-.452 10.66c-.502.302-1.044.709-1.968 1.346-.1-2.179-.251-12.52-.251-12.52 0-.603-.351-1.08-.798-1.346-.583-.25-1.22-.2-1.717.15 0 0-5.845 4.162-7.208 5.137-.2-.452-.251-.547-.402-.904 1.451-1.205 9.368-8.04 9.368-8.04.352-.302.533-.708.533-1.135l-.05-3.082c0-.402-.302-.884-.533-1.185-.301-.201-.833-.402-1.275-.251 0 0-21.8 3.082-25.82 3.614.451-1.486.777-2.585.993-3.348 1.682-.251 12.556-2.159 12.556-2.159.673-.1 1.115-.617 1.276-1.24l.657-3.895v-.302c0-.3-.1-.617-.351-.953-.301-.352-.693-.583-1.115-.583 0 0-4.071-.05-5.95-.05v-.401c1.842-.513 11.706-3.7 11.706-3.7.618-.15 1.08-.778 1.08-1.471 0-.728-.502-1.346-1.205-1.521 0 0-2.073-.452-3.56-.904.402-1.611.954-4.498.954-4.498v-.301c0-.512-.25-.989-.637-1.24-.402-.351-1.17-.502-1.737-.1 0 0-16.293 9.262-17.852 10.059-.567-.352-.918-.618-1.646-1.185 2.374-1.752 9.209-6.659 9.209-6.659.351-.3.567-.743.567-1.255 0-.3-.035-.582-.2-.798l-5.243-8.11c-.25-.302-.582-.638-.954-.694-.401-.05-.938 0-1.24.251l-7.685 4.975c-.452.302-.638.919-.638 1.33 0 0-.05 4.338-.05 6.394h-2.445v-3.098c0-.567-.351-1.114-.813-1.415-.502-.301-1.115-.251-1.632.05 0 0-1.983 1.22-3.398 2.159-.251-.352-.251-.502-.452-.799 1.345-1.184 5.507-5.242 5.507-5.242.352-.2.568-.618.568-1.115l-.301-15.195a1.622 1.622 0 0 0-1.381-1.506s-5.224-.813-8.465-1.31c3.348-.251 8.518-.532 8.518-.532.798-.15 1.451-.763 1.451-1.577l-.1-5.844c0-.451-.251-.973-.638-1.24-.351-.25-.904-.401-1.345-.2 0 0-15.691 4.673-16.966 5.01-.502-.301-1.205-.778-2.445-1.451 3.72-1.556 12.22-5.03 12.22-5.03.582-.2.974-.743.974-1.415 0-.618-.352-1.135-.954-1.416 0 0-8.731-3.825-11.724-5.207.833-.813 1.205-1.275 1.807-1.807 1.346.582 4.373 2.073 4.373 2.073.708.352 1.631.1 2.003-.617l9.527-16.063a1.61 1.61 0 0 0 .018-1.486c-.2-.452-.617-.743-1.15-.884l-3.489-.672-2.992-.603c-.763-.2-1.45.251-1.736 1.01 0 0-1.17 3.152-1.752 4.743-.693-.1-.94-.15-1.773-.3.548-1.808 1.276-4.393 1.276-4.393.1-.201.15-.201.15-.402 0-.251-.15-.567-.301-.833-.15-.352-.567-.603-.939-.743 0 0-4.091-.778-5.455-1.03-.3-.742-.512-1.807-1.044-3.258 2.796.402 7.438 1.03 7.438 1.03.743.1 1.451-.251 1.682-1.03l3.49-10.395c.05-.15.05-.301.05-.452 0-.301-.05-.502-.151-.778-.201-.301-.568-.638-.939-.728 0 0-8.607-2.515-11.086-3.243.547-1.345 1.064-2.425 1.45-3.454 2.039.352 11.706 2.053 11.706 2.053.568.151 1.17-.05 1.556-.547l6.464-8.36c.201-.2.302-.567.302-.903 0-.2-.05-.401-.151-.673-.2-.401-.708-.833-1.325-.848 0 0-14.009-1.114-16.4-1.31 0-.834-.05-1.29-.05-2.124 2.249-.401 14.734-2.726 14.734-2.726l11.653-2.249v-.05c.583.15.834-.15 1.135-.693.05-.2.2-.743.2-.813 0-.301-.1-.602-.25-.833-.1-.1-.502-.402-.547-.452l-6.872-3.86c-.512-.352-1.17-.302-1.717.1 0 0-3.559 2.761-4.658 3.65-.512-.201-.799-.302-1.486-.673 1.486-1.486 3.63-3.56 3.63-3.56.3-.25.531-.617.531-1.029 0-.035-.05-.1-.05-.2 0-.452-.301-.919-.763-1.1 0 0-3.79-2.445-6.252-3.915 1.045-.603 1.667-.974 2.16-1.255 1.204.401 8.287 2.921 8.287 2.921.568.201 1.22.036 1.682-.351l5.224-5.349c.302-.351.513-.727.513-1.184 0-.302-.151-.618-.352-.94 0 0-5.33-7.243-6.27-8.535.252-.502.402-.728.799-1.436 2.053 1.752 8.093 6.996 8.093 6.996.567.512 1.541.451 2.124-.05l3.027-3.028c.351-.301.512-.728.512-1.114 0-.251-.05-.568-.201-.834 0 0-4.588-7.35-5.809-9.227.547-.502.708-.512 1.22-.868.673.693 1.541 1.822 1.541 1.822l1.471 1.787c.251.251.452.302.693.452.05.201.2.402.301.568l2.816 3.398 1.647 2.073c.402.512 1.03.708 1.647.512.567-.1 1.064-.617 1.134-1.275l1.346-7.827c.05-.533-.151-1.135-.548-1.436a1.696 1.696 0 0 0-1.611-.201l-4.82 1.968c-.25-.954-.727-3.293-1.044-4.659 2.003-.617 8.554-2.957 8.554-2.957.402-.2.834-.587.974-1.099 0 0 2.41-12.698 2.605-14.044.402-.2.728-.301 1.401-.778-.351 3.81-1.325 12.45-1.325 12.45v.2c0 .453.15.92.502 1.17.351.302.848.352 1.38.352l5.738-1.185c.653-.2 1.03-.637 1.15-1.29 0 0 .743-4.071 1.114-6.145.834.2 1.15.25 1.682.351.2 1.33.673 4.373.673 4.373.05.401.351.833.728 1.044.3.25.798.301 1.205.25l7.49-1.841c.503-.1.92-.533 1.045-.994.05-.151.15-.302.15-.603 0-.2-.1-.532-.25-.778 0 0-2.355-3.56-3.952-5.968h.302c.708.512 4.854 3.54 4.854 3.54.402.3.974.451 1.471.2.502-.2.869-.693.939-1.17 0 0 1.646-9.315 2.053-11.546.301.05.301.05.502.05-.018 1.913-.15 5.49-.15 8.607 0 2.088.1 3.895.2 5.01.018.351.301.798.618 1.044.351.301.903.352 1.295.251l2.866-.693 3.86-.953c.694-.1 1.135-.779 1.135-1.451 0 0-.2-4.323-.3-7.757 1.114 3.082 2.494 6.836 2.494 6.836.352.918 1.185 1.22 2.053.973l3.329-1.184c1.47-1.451 3.082-2.942 4.709-4.428.743-3.278 2.038-8.96 2.39-10.325h.848c-.05 1.521-.151 4.267-.251 7.456.35-.301.617-.618 1.064-.939v-.035c.708-.533 1.45-1.03 2.143-1.612.201-3.84.201-6.482.201-6.517 0-.402-.2-.833-.502-1.135a1.755 1.755 0 0 0-1.134-.401l-3.665.05c-.693.1-1.31.547-1.486 1.22 0 0-2.676 11.511-2.992 12.964-.919.301-2.761.994-4.267 1.436-.813-2.109-3.384-9.085-3.384-9.085-.2-.583-.798-1.045-1.45-1.045h-1.843c-.401 0-.883.252-1.114.513-.301.25-.452.617-.452 1.114 0 .05.351 8.678.351 10.732-1.064.251-2.48.617-2.48.617s-.547.036-1.17.251v-2.871c0-4.337.252-9.971.252-10.077v-.05c0-.778-.638-1.45-1.506-1.541l-3.47-.301c-.692-.05-1.52.502-1.596 1.31 0 0-1.275 7.208-1.842 10.43-1.556-1.114-3.223-2.269-3.223-2.269-.301-.25-.637-.401-.919-.401l-3.72.15c-.501 0-1.044.352-1.33.834-.1.2-.15.452-.15.672 0 .352.1.618.2.869 0 0 2.872 4.217 4.373 6.375-1.556.452-2.41.618-3.735.94-.2-1.557-.532-3.65-.532-3.65-.15-.638-.547-1.1-1.185-1.255l-4.322-1.115c-.402-.05-.743 0-1.15.301-.452.151-.637.618-.728.974 0 0-.938 5.243-1.17 6.854-.813.1-1.38.201-2.605.502.301-3.167 1.38-13.176 1.38-13.176l.036-.15c0-.503-.301-.954-.673-1.256a1.78 1.78 0 0 0-1.667-.1l-4.603 2.425c-.452.25-.728.602-.798 1.064 0 0-2.32 12.237-2.62 13.884-1.436.452-8.909 3.063-8.909 3.063-.658.25-1.029.798-1.029 1.415v.402s.05.301.1.351c-.05-.017-.2-.15-.2-.15-.502-.638-1.17-.512-1.843-.1l-3.58 2.48c-.4.3-.692.762-.692 1.254 0 .251.1.583.301.834 0 0 4.89 7.863 5.897 9.51-.451.452-.707.617-1.17 1.134-1.771-1.52-8.535-7.35-8.535-7.35-.352-.35-.799-.4-1.31-.4-.503.15-.85.451-1.08.883l-2.108 4.091c-.201.1-.201.402-.201.693 0 .251.05.567.25.868 0 0 4.925 6.677 6.146 8.324-1.044 1.1-2.887 2.886-3.755 3.77-1.451-.567-8.005-2.872-8.005-2.872-.502-.1-1.03-.1-1.366.05l-4.94 3.133c-.501.301-.692.708-.692 1.255 0 .567.25 1.08.693 1.4 0 0 4.568 2.692 6.711 4.022-1.435 1.541-3.7 3.614-3.7 3.614-.25.302-.451.653-.451 1.115v.25c.05.453.401.94.848 1.1 0 0 1.667.939 2.907 1.577-3.399.582-13.566 2.48-13.566 2.48-.693.1-1.365.778-1.365 1.54 0 .05.1 4.835.1 4.835 0 .778.617 1.47 1.416 1.47 0 0 11.033.955 15.053 1.22-1.612 2.16-3.454 4.484-4.162 5.385-1.631-.251-12.06-2.23-12.06-2.23-.653-.05-1.401.352-1.667.975l-2.64 6.305c-.101.1-.151.401-.151.567 0 .25.05.512.15.637.201.402.532.673 1.01.814 0 0 8.748 2.515 11.174 3.207a1018.2 1018.2 0 0 0-2.55 7.704c-1.928-.3-8.607-1.22-8.607-1.22-.547 0-1.064.201-1.38.548-.202.3-.352.672-.352.994 0 .15 0 .3.05.502l2.073 6.428c.201.618.638.974 1.22 1.045 0 0 2.781.602 4.604.868-.532 1.772-1.31 4.373-1.31 4.373-.018.2-.018.35-.018.512 0 .2.035.567.1.813.301.401.673.582 1.135.637l4.729.904c.672.1 1.52-.301 1.752-1.03 0 0 1.134-3.132 1.737-4.673.778.201 1.52.301 1.52.301s.85.151 1.542.251c-1.591 2.656-6.552 11.14-7.633 13.052-1.506-.728-4.126-2.038-4.126-2.038-.653-.251-1.31-.1-1.807.402l-4.217 4.196c-.301.302-.502.638-.502 1.08 0 .05 0 .15.05.25.05.568.402.94.868 1.135 0 0 6.713 2.922 10.556 4.639-4.092 1.591-11.6 4.638-11.6 4.638-.568.302-.954.814-.954 1.366v.05c0 .547.301 1.08.708 1.345l5.56 3.54c.352.2.849.25 1.276.1 0 0 3.047-.848 5.224-1.521-.638.301-1.1.763-1.1 1.436l.036 2.424c0 .743.512 1.366 1.275 1.521 0 0 8.147 1.24 10.183 1.592.05 1.913.301 12.043.301 13.247-.883.763-5.967 5.507-5.967 5.507-.302.352-.513.743-.513 1.185 0 .251.1.512.251.798l1.878 3.153c.2.351.582.602.954.708.452.1.868.05 1.185-.2 0 0 1.204-.744 2.495-1.437v1.823c0 .351.1.868.401 1.204.251.201.693.352 1.135.352h5.56c.849 0 1.612-.708 1.612-1.576v-7.067c.904-.708 4-2.62 5.578-3.664 1.044 1.506 2.656 4.126 3.615 5.56a9807.749 9807.749 0 0 1-9.758 7.067c-.402.25-.638.672-.638 1.184 0 .452.251 1.03.638 1.275l4.252 3.098c.451.301 1.15.301 1.717.1 0 0 11.6-6.588 15.832-8.996-.3 1.33-.617 2.71-.617 2.71v.302c0 .672.351 1.08 1.009 1.345l-7.757 2.425c-.638.2-1.064.778-1.064 1.521l.035 3.027c.05.849.708 1.521 1.576 1.521 0 0 3.56.05 5.596.05-.1.568-.1.568-.1 1.03-1.913.3-12.485 2.143-12.485 2.143-.583.05-1.08.502-1.185 1.044l-2.073 6.677c-.05.05-.05.251-.05.351 0 .402.15.693.401.994.301.452.883.653 1.38.568 0 0 23.484-3.314 26.53-3.775v.512c-1.01.883-9.705 8.412-9.705 8.412-.352.351-.582.693-.582 1.134 0 .251.1.502.15.638l1.682 3.665c.25.401.637.707 1.08.813.501.1.938.05 1.31-.352 0 0 5.472-3.77 6.41-4.392 0 2.234.201 12.361.201 12.361 0 .603.302 1.185.799 1.436.502.301 1.114.2 1.646-.1l4.975-3.434c.352-.251.623-.763.638-1.29 0 0 .15-2.074.2-4.112.151.452.502 1.346.502 1.346.251.708 1.045 1.114 1.808.918 0 0 18.152-4.372 21.128-5.1.1.813.1 1.009.2 1.631-1.61.638-6.375 2.375-6.375 2.375-.637.301-1.044.884-1.044 1.506 0 .1 0 .351.035.452l1.009 2.922c.2.637.884 1.079 1.632.993 0 0 3.579-.502 5.454-.727.25 2.41 1.114 10.82 1.114 10.82.05.452.352.919.814 1.185a1.6 1.6 0 0 0 1.506 0l6.676-3.63c.452-.301.763-.798.814-1.38 0 0 .502-9.918.567-11.228.567-.452 1.24-.869 2.088-1.486 1.22 1.435 4.995 5.525 7.474 8.181-1.4.151-2.761.201-2.761.201-.452.05-.814.301-1.115.603-.2.3-.351.567-.351 1.029 0 .05 0 .1.035.25l.849 5.066c.1.763.798 1.29 1.611 1.29 0 0 9.227-.25 11.618-.351.1 1.968.251 6.429.251 6.429.05.848.814 1.556 1.612 1.556l4.819-.15c.868-.036 1.47-.618 1.596-1.401 0 0 .673-6.057.884-7.651a88.63 88.63 0 0 1 4.021-1.115c.251 2.621.959 9.617.959 9.617.017.512.301 1.009.708 1.17.452.3.938.351 1.4.15l4.498-1.702c.583-.2.919-.707.994-1.365 0 0 .512-8.643.583-10.449 1.596-.512 6.977-2.053 7.615-2.32-.1 3.244-.402 12.664-.402 12.664 0 .602.301 1.22.869 1.47l4.322 2.039c.452.1.903.1 1.31 0 .402-.201.693-.583.919-1.1 0 0 1.897-6.925 2.906-10.165 2.48 2.444 8.518 8.305 9.103 8.872.1.939 1.471 10.06 1.471 10.06.05.707.708 1.274 1.38 1.31l5.509.502c.452.05.868-.05 1.134-.352.352-.25.532-.567.532-1.08 0 0 1.065-11.138 1.115-12.343.798-.727 8.749-7.26 11.547-9.528.813 3.56 3.278 14.009 3.278 14.009.2.833 1.044 1.436 1.822 1.22 6.146-1.01 6.818-1.752 6.818-3.063v-.05c0-.15-2.213-13.725-2.941-18.17 1.556-.251 3.95-.763 6.092-1.135-.567 3.118-1.928 12.096-1.928 12.096v.251c0 .402.1.814.452 1.08l3.133 3.012c.351.301.868.351 1.31.301.452-.05.959-.351 1.17-.833 0 0 1.044-1.647 2.193-3.278l3.012 13.69c.05.547.568.918 1.135 1.079.532.25 1.064-.05 1.486-.402l4.302-4.232a1.88 1.88 0 0 0 .402-1.08v-.3s-1.205-7.615-1.471-9.174c1.134-.813 4.925-3.223 6.854-4.427 1.26 2.746 9.811 20.348 9.811 20.348.301.708 1.135.974 1.822.904l5.686-1.807c.401-.201.763-.452.974-.849.1-.15.15-.401.15-.708 0-.15-.05-.351-.15-.547 0 0-2.676-6.305-4.73-10.997 1.17.833 2.53 1.701 2.53 1.701.352.352.814.352 1.296.352.351-.201.693-.402.959-.869l1.611-3.132c.201-.251.201-.512.201-.778 0-.352-.1-.763-.402-1.03 0 0-6.977-7.243-8.323-8.606.919-1.592 6.446-11.69 7.102-12.946 1.044-.1 2.941-.1 4.588-.15 0 1.219 0 2.108.05 2.835-1.15.814-8.59 6.642-8.59 6.642-.35.351-.567.798-.567 1.17 0 .4.05.707.251 1.028l2.53 3.294c.503.582 1.381.763 2.074.351 0 0 2.46-1.436 4.483-2.656 0 4.358.2 23.253.2 23.253 0 .813.673 1.506 1.436 1.506l6.447.251c.833.05 1.345-.582 1.47-1.255 0 0 .92-7.279 1.542-11.866.602 1.115 1.24 2.27 1.948 3.49.401.617 1.4.883 2.073.511l3.966-1.947c.512-.251.848-.728.848-1.38 0-.202-.05-.402-.15-.674 0 0-2.691-5.667-3.595-7.58 1.366-.798 2.57-1.435 3.615-2.158 1.17 2.831 5.897 14.026 5.897 14.026.25.798 1.114 1.1 1.912.813l4.092-1.506c.637-.3.918-.883.918-1.486v-.2s-1.079-9.369-1.435-12.734c1.857.618 3.504 1.08 4.337 1.38.402 1.472 2.816 10.963 2.816 10.963.251.638.884 1.185 1.682 1.1l3.896-.352c.728-.1 1.33-.587 1.435-1.4 0 0 .402-5.721.618-8.183 1.807.301 4.197.728 5.242.939.402 1.521 3.208 9.97 3.208 9.97.251.693.834 1.15 1.592 1.08l5.118-.201c.401-.035.883-.201 1.079-.502.301-.301.402-.673.402-.99v-.2s-.503-5.79-.673-8.182c2.726.1 12.326.743 12.326.743a1.512 1.512 0 0 0 1.506-.938l2.193-4.96c.018-.201.05-.352.05-.568 0-.25-.035-.451-.05-.687-.25-.352-.547-.693-.973-.799-4.624-1.415-7.492-2.319-9.351-2.871 2.71-2.003 6.57-5.083 7.863-5.915 1.597 1.345 12.468 10.147 12.468 10.147.3.352.778.452 1.064.452.502-.1.848-.25 1.15-.617l4.763-5.809c.201-.351.352-.708.352-1.064 0-.352-.251-.849-.582-1.205 0 0-4.323-3.685-7.935-6.73 7.385 1.185 25.644 4.182 25.644 4.182.764.2 1.557-.352 1.788-1.065l1.752-6.269c.05-.15.05-.2.05-.401 0-.603-.452-1.295-1.08-1.436 0 0-6.658-1.913-9.988-2.922 2.053-1.857 4.463-3.986 5.615-4.96 1.4 1.045 5.153 3.776 5.861 4.393.1 1.205 2.038 16.098 2.038 16.098 0 .653.452 1.135 1.044 1.276l6.411 2.108c.402.05 1.044.05 1.38-.251.352-.351.603-.708.603-1.24 0-.05-.502-6.8-.693-10.803 1.135.883 2.194 1.752 2.194 1.752.301.25.778.351 1.22.25a1.403 1.403 0 0 0 1.029-.566l2.374-3.314c.201-.301.302-.652.302-.954 0-.351-.251-.778-.588-1.044 0 0-6.162-5.596-7.03-6.34-.1-.798-.251-4.302-.402-7.03 3.88 1.857 22.084 10.395 22.084 10.395.814.401 1.788 0 2.109-.728l2.34-4.905c.05-.3.1-.452.1-.657 0-.512-.251-1.065-.728-1.33 0 0-8.696-5.402-12.557-7.669.402-.2 1.045-.401 1.045-.401.657-.151 1.114-.779 1.114-1.416l-.15-3.118c0-.672-.548-1.345-1.33-1.45 0 0-6.996-.954-9.015-1.24v-.452c1.22.301 2.55.602 2.55.602.352.05.814.05 1.17-.2.351-.201.617-.583.728-.995l.602-3.223c.05 0 .05-.05.05-.25 0-.036-.1-.05-.1-.1a2310.532 2310.532 0 0 0 11.653 7.26c.402.251.884.301 1.275.15.402-.1.834-.451.974-.883l1.557-3.539c.05-.2.1-.351.1-.567 0-.402-.1-.778-.402-1.044 0 0-2.906-3.083-5.312-5.738h.15c.582.2 1.205-.201 1.521-.588 0 0 2.39-3.65 3.81-5.72 1.968 2.676 8.342 11.335 8.342 11.335.351.401.813.672 1.295.512.582 0 1.044-.1 1.31-.567l3.278-4.8c.201-.3.302-.567.302-.954 0-.2-.1-.532-.302-.868 0 0-7.509-10.006-8.288-11.122.301-1.1 1.928-6.8 2.375-8.253 1.737-.25 12.432-1.842 12.432-1.842.798-.15 1.366-.778 1.366-1.506v-2.495c-.05-.778-.693-1.345-1.451-1.45 2.229.617 5.49 1.4 5.49 1.4.401.15.848.05 1.22-.201l5.472-3.7c.351-.301.602-.778.602-1.29v-.2c-.035-.548-.451-1.08-.953-1.276m-38.147-69.227c-.693 0-1.898.1-3.313.15 0-.3 0-.35-.036-.547.582-.351 4.372-2.605 8.377-5.01-2.144 2.305-4.478 4.8-5.03 5.402m-379.769 2.018c.814.452 1.597.833 2.32 1.275-2.41.402-3.364.532-5.154.833 1.295-.833 2.143-1.59 2.831-2.108m19.87-30.46c-.1.763-.1.848-.3 1.737-.302-.352-.533-.618-1.03-1.276.533-.2.708-.25 1.31-.451M71.542 219.534c0 1.03.036 1.381.05 2.305-2.194.1-9.492.532-9.935.582 4.392-1.275 7.916-2.374 9.882-2.887m50.88 63.49s.201-3.062.352-4.036c.728-.638 4.709-3.509 5.826-4.408 1.135 1.667 2.942 4.534 2.942 4.534.402.727 1.366.903 2.053.587l4.092-2.003c.567-.301.848-.833.848-1.45 0-.202-.05-.403-.15-.659 0 0-2.16-4.392-2.957-6.074 1.4-.974 5.702-3.986 8.412-5.774.15 3.51.502 11.104.532 12.822-1.968.658-20.207 5.898-21.924 6.465m347.625-69.405c-.036-1.185-.036-1.822-.036-3.098 2.18.568 6.784 1.667 11.565 2.907-.05 0-9.156.1-11.529.2" style="fill:#1a253b" transform="matrix(1.32516 0 0 1.32516 -61.722 -56.869)"/><path d="m74.346 194.01-9.422 11.867c-.402.401-.512 1.08-.2 1.591.2.452.727.884 1.33.884l9.315.502c.401 0 .848-.201 1.114-.502.301-.301.512-.728.512-1.135l.15-12.237c0-.673-.4-1.24-1.043-1.506-.618-.251-1.346 0-1.772.532m-.402 11.582c-1.345-.05-2.605-.1-4.659-.2 1.542-1.893 2.691-3.454 4.764-5.915-.1 2.851-.1 4.693-.1 6.092M73.336 183.137c.352-.351.502-.708.502-1.17l-.1-10.36c-.05-.652-.583-1.31-1.295-1.521l-2.214-.301c-.693-.15-1.486.25-1.702.939l-4.056 10.342c-.201.452-.1.884.2 1.38.201.503.693.673 1.205.728l6.376.352c.351 0 .778-.15 1.114-.402m-5.17-2.921a210.463 210.463 0 0 0 2.424-6.216c.018 2.143.05 4.603.1 6.375-.994-.1-1.436-.1-2.55-.15M84.387 174.813c.352-.35.502-.883.302-1.485-.251-.503-.653-.849-1.115-.974l-5.26-1.31c-.452-.101-.939 0-1.31.25-.352.352-.603.743-.603 1.205l-.672 8.394a1.683 1.683 0 0 0 .994 1.557c.657.15 1.365.035 1.752-.452zm-5.047-.25c.502.1.587.1 1.044.25-.402.513-.567.673-1.17 1.451.1-.868.1-1.08.1-1.702M94.925 216.91c.25-.351.25-.798.1-1.255l-1.702-5.898a1.26 1.26 0 0 0-.798-.918c-.351-.301-.848-.301-1.22-.05l-6.287 2.515-5.01 2.073c-.602.25-.953.813-.953 1.38l-.452 7.881c0 .351.15.868.502 1.135.301.3.708.502 1.205.451l9.368-.512c.512 0 1.01-.25 1.24-.728zm-6.164 3.755c-1.044.1-4.854.251-6.977.351.1-1.807.251-4.036.301-5.118 1.275-.512 4.127-1.736 4.127-1.736s2.906-1.185 4.638-1.878c.452 1.416.798 2.887 1.065 3.614-.603.884-2.53 3.77-3.153 4.744M131.283 255.252c-.568-.302-1.135-.1-1.597.25-.452.252-.728.849-.617 1.366l.798 5.614c.05.653.452 1.15 1.03 1.31.511.15 1.078.018 1.54-.301l3.966-3.313c.402-.352.693-.974.547-1.486-.05-.512-.401-.939-.903-1.185zM157.865 276.804l8.997-4.161c.451-.201.848-.638.868-1.1a1.6 1.6 0 0 0-.502-1.47l-4.674-4.182c-.451-.402-.938-.402-1.45-.302l-3.243.954a1.55 1.55 0 0 0-1.15 1.205l-1.064 7.403c-.1.602.15 1.17.587 1.486.452.3 1.064.351 1.627.15m1.787-7.58c.637-.2.918-.25 1.47-.401.533.401 1.17 1.064 2.27 2.038-1.541.728-2.495 1.135-4.232 1.928.25-1.752.401-2.746.502-3.58M226.1 289.343l-6.003-.251c-.532 0-1.1.301-1.38.743-.352.502-.402 1.01-.1 1.576l3.453 6.163 3.755 6.73c.352.693 1.135 1.044 1.823.798a1.583 1.583 0 0 0 1.204-1.506c-.2-3.65-.567-9.28-1.17-13.017-.05-.868-.798-1.255-1.56-1.255m-1.296 6.8s-1.08-2.053-2.179-3.95c1.1.1 1.381.1 2.109.1.2 1.4.351 2.921.502 4.483-.1-.05-.402-.638-.402-.638M236.019 298.074c-.583.2-1.03.974-1.03 1.576l-.401 5.083c-.05.693.301 1.31.868 1.612.653.25 1.366.15 1.808-.352l6.605-7.26c.452-.533.513-1.256.1-1.858-.35-.653-1.134-.728-1.821-.653zM247.122 288.528h-2.143l-8.377.301c-.848 0-1.506.728-1.506 1.522l-.05 5.17c0 .618.2 1.03.653 1.256.401.351.903.452 1.38.301l8.66-2.942c.251-.05.587-.15.708-.452l2.194-3.117c.3-.502.25-1.01-.018-1.47-.301-.513-.869-.583-1.506-.583m-8.943 4.94v-1.542c1.556-.1 3.418-.2 5.118-.2-1.38.451-3.223 1.079-5.118 1.752M251.16 277.424l-9.315-1.345c-.618-.1-1.346.301-1.647.833l-1.822 3.047c-2.284 3.434-2.354 3.595-2.445 4.057-.1.401 0 .903.301 1.33.302.351.763.512 1.275.512l13.3-.763c.743 0 1.346-.582 1.366-1.345l.3-4.694c.101-.763-.581-1.521-1.33-1.627m-2.017 4.73c-1.632.05-5.703.25-8.838.501.301-.502.653-1.029.653-1.029s.743-1.31 1.4-2.374c1.31.2 5.154.778 6.925 1.064-.05.2-.05 1.205-.15 1.857M282.861 288.263l-7.952 1.626c-.743.201-1.295.96-1.17 1.682l1.1 8.5c.018.603.547 1.065 1.1 1.276.602.15 1.22 0 1.646-.533l7.261-8.518c.402-.352.502-.869.351-1.45l-.502-1.507c-.25-.813-1.009-1.17-1.822-1.08m-5.384 7.9c-.2-1.773-.301-2.571-.512-3.56 1.31-.25 2.605-.452 4.357-.883-1.184 1.26-3.258 3.72-3.845 4.442M459.906 219l-4.659.35c-.547.101-.994.302-1.255.779-.25.452-.25.939-.05 1.486l2.27 4.518c.25.512.797.833 1.31.833.652 0 1.204-.3 1.45-.833l2.46-4.925a1.54 1.54 0 0 0-.1-1.54c-.302-.503-.834-.694-1.416-.694M460.242 203.982l-8.129-2.726c-.778-.251-1.54.017-1.877.708l-2.726 4.764c-.352.502-.352 1.064 0 1.47l4.408 7.917c.3.502.883.798 1.435.798l6.624-.05c.798-.05 1.52-.743 1.52-1.592l-.2-9.828c0-.638-.502-1.24-1.044-1.451m-5.986 9.829c-.708-1.17-2.992-5.296-3.58-6.34.402-.743.974-1.878 1.632-2.907 1.576.567 4.89 1.702 5.862 1.983 0 1.486.1 6.128.2 7.173-1.47.1-3.097.1-4.09.1M456.683 165.392c-.151.603-.1 1.185.3 1.486l1.01 1.135 6.712 7.048c.351.251.848.502 1.295.402l9.422-1.436 3.966-.708c.451-.018.953-.351 1.184-.848.15-.512.15-1.08-.2-1.486l-6.712-9.652c-.352-.582-1.01-.939-1.647-.728l-1.913.452c-.708.25-1.184.868-1.184 1.506v.2l.617 6.093c-.301 0-.301 0-.512-.05-.452-1.541-1.416-5.402-1.416-5.402-.1-.502-.351-.883-.743-.989-.351-.3-.743-.3-1.24-.15l-7.827 2.123c-.502.1-.954.512-1.15 1.03m19.817 5.312c-.813.15-1.596.301-1.596.301s-1.471.201-2.39.352c.201-.251.352-.568.352-.869v-.15s-.352-3.384-.532-5.668c1.184 1.788 2.76 4.127 4.161 6.04m-11.529-5.154c.452 1.842 1.29 5.136 1.29 5.136.201.582.778 1.15 1.38 1.205 0 0 .764.035 1.22.05-1.079.1-2.108.251-2.424.301-.848-.848-4.217-4.427-5.295-5.525 1.702-.548 2.64-.728 3.825-1.17M466.015 185.21c-.602.2-.994.812-.958 1.52l.602 12.203c.1.401.301.813.602 1.044.302.351.658.452 1.135.452 11.76-.673 11.76-.673 11.76-2.144 0-.402-.201-.778-.402-1.08l-10.998-11.634c-.402-.452-1.185-.708-1.717-.352m8.112 11.742c-2.355.1-3.966.201-5.402.251-.05-1.436-.2-3.454-.301-6.428a433.52 433.52 0 0 0 5.703 6.18M106.507 122.304c.402.201.959.201 1.45 0 .302-.25.694-.637.799-1.134l2.866-16.878c.151-.567-.15-1.08-.512-1.486-.401-.351-.974-.452-1.54-.25l-5.332 1.751c-.617.1-.994.618-1.15 1.185l-1.857 13.14c-.05.708.302 1.416.919 1.632zm-.402-15.372c.568-.2.994-.351 1.983-.673-.502 3.153-1.666 9.776-2.143 12.362-.693-.251-.904-.402-1.436-.728.251-1.647 1.38-9.457 1.596-10.962M119.08 109.854c.402.151.94.151 1.331 0l4.533-2.193c.502-.251.849-.693.919-1.15l.778-6.004c.1-.512-.1-1.134-.502-1.486-.351-.25-.994-.35-1.486-.2l-6.623 1.892a1.642 1.642 0 0 0-1.045 1.807l1.17 6.217c.2.512.512.954.919 1.134m4.106-7.385c-.1 1.366-.25 2.144-.301 2.781-.617.251-1.064.568-2.003.92-.251-1.256-.402-1.878-.582-2.907 1.009-.302 1.596-.452 2.871-.799M139.854 95.491c-.401-.502-.973-.602-1.54-.3l-5.01 1.485c-.653.15-1.08.728-1.08 1.345l-.402 5.066c0 .502.201 1.044.618 1.295a1.63 1.63 0 0 0 1.436.251l2.213-.673c1.01-1.486 2.32-2.921 3.47-4.372l.762-2.606c.201-.502 0-1.15-.451-1.52m-3.951 5.206c-.201.05-.352.1-.814.251.05-.833.05-1.044.151-1.611.452-.201.618-.201 1.205-.352a23.771 23.771 0 0 1-.532 1.702M77.994 166.578l6.18 1.542c.779.25 1.612-.1 1.878-.869l4.056-10.254c.15-.452.1-.959-.1-1.38-.251-.352-.693-.653-1.135-.779l-9.917-1.4c-.452-.1-.849.05-1.17.25-.402.352-.547.694-.602 1.135l-.352 10.184c0 .692.452 1.435 1.185 1.556m2.229-9.829c1.822.251 4.252.567 6.199.884-.763 2.108-2.18 5.614-2.761 7.19-1.255-.352-2.515-.708-3.65-.919.05-1.506.15-5.135.2-7.154M100.379 231.255c-.452-.251-1.044-.2-1.506.1l-8.182 5.827c-.708.402-.883 1.33-.502 2.003l4.73 8.554c.25.402.601.708 1.008.763.402.1.974 0 1.31-.251l4.393-3.56c.512-.25.658-.797.658-1.365l-.96-10.874c-.05-.452-.451-1.029-.953-1.184m-3.665 13.37c-.959-1.737-2.34-4.322-3.117-5.702 1.15-.869 2.977-2.109 4.854-3.454.251 2.781.502 6.287.673 7.279-.582.567-1.31 1.064-2.41 1.877M123.756 261.15c-.502-.051-.919.05-1.26.4l-2.41 2.124a1.82 1.82 0 0 0-.502 1.24l.05 7.102c.05.652.402 1.29 1.045 1.486.637.15 1.295.035 1.666-.502l4.925-5.703c.402-.512.402-1.115.036-1.632l-2.425-3.88a1.466 1.466 0 0 0-1.135-.673m-1.029 6.712v-2.375c.201-.05.251-.2.452-.401.452.637.532.743.869 1.255-.352.401-.728.763-1.33 1.541M161.797 279.053l-5.402 2.074c-.582.15-.939.833-.939 1.38l-.2 4.127c-.15.617.3 1.17.868 1.435.638.251 1.366.1 1.787-.351l5.561-6.11c.502-.582.587-1.365.1-1.983-.401-.602-1.15-.848-1.822-.567M169.961 283.658c-.502-.401-1.114-.502-1.667-.25l-1.255.657c-.351.2-.728.452-.868.919-.1.451-.05.883.2 1.29l9.05 14.15c.402.512 1.065.728 1.702.617l2.053-.512c.673-.1 1.24-.848 1.24-1.486l.1-6.056c0-.402-.15-.834-.501-1.24zm7.314 13.814c-.778-1.31-2.816-4.373-5.1-7.97 2.515 2.073 4.659 3.72 5.277 4.197-.1.848-.2 2.445-.2 3.77M191.78 281.391c-.402-.301-.849-.351-1.296-.301l-4.141.848c-.708.1-1.26.658-1.31 1.276l-1.065 14.575c0 .452.2.919.693 1.24.301.351.813.401 1.416.301l5.56-1.541c.708-.251 1.185-.849 1.15-1.592l-.452-13.707c0-.401-.25-.904-.547-1.114m-4.483 14.362c.2-2.886.673-9.421.778-11.086.532-.1.582-.1 1.135-.251.15 2.495.351 8.979.451 10.767-.743.151-1.295.302-2.354.583M201.785 281.798c-.401-.401-1.029-.652-1.646-.512-.582.201-1.064.673-1.185 1.22l-2.018 11.83c-.15.512.1 1.08.502 1.47.402.352 1.044.403 1.521.352l9.067-3.293c.502-.25.834-.657.994-1.064.1-.532 0-.939-.3-1.436zm-1.345 10.396c.351-1.968.618-3.399 1.03-5.809 1.47 1.878 2.374 2.957 3.418 4.302-1.561.512-2.69.884-4.443 1.506M324.072 280.506c-.352-.548-1.03-.869-1.612-.728-.728.05-1.255.693-1.295 1.33l-1.627 12.733c-.1.547.151 1.17.658 1.486.452.351 1.01.402 1.576.1l6.996-3.489c.351-.2.653-.502.798-.973.1-.402.1-.869-.15-1.33zm-1.15 10.927c.301-1.933.452-2.957.798-5.384 1.03 1.877 1.577 2.796 2.089 3.81-.869.502-1.471.743-2.887 1.576M344.65 276.91c-.707-.1-1.38.252-1.666.87l-4.498 10.696c-.15.402-.15.919.1 1.26.15.452.512.708.954.849l5.933 1.716c.547.151 1.08.05 1.47-.2.402-.402.673-.954.513-1.436l-1.541-12.45c-.05-.728-.618-1.295-1.276-1.33m-2.605 11.263c.402-1.03.693-1.913 1.556-3.77.251 2.229.352 2.992.502 4.232-.959-.251-1.184-.302-2.038-.452M375.2 271.65c-.352-.25-.728-.511-1.255-.451-.502 0-.939.301-1.255.602l-7.315 10.874c-.35.502-.35 1.255 0 1.717l3.243 4.94c.251.25.673.547 1.045.617.512.1.918-.05 1.22-.351l10.767-7.828c.352-.201.582-.653.582-1.044.05-.452-.1-.849-.35-1.135zm-4.89 14.611c-.693-1.08-1.205-1.912-1.752-2.71.798-1.26 4.127-6.04 5.597-8.306a144.392 144.392 0 0 0 4.287 5.047c-1.807 1.31-6.393 4.623-8.13 5.968M356.356 281.604c-.763.1-1.255.657-1.38 1.33l-1.366 8.908c-.1.351.036.763.201 1.135a1.74 1.74 0 0 0 1.08.617l5.26.798c.547.15 1.134-.2 1.45-.547.402-.452.502-1.044.251-1.556l-3.86-9.67c-.2-.658-.904-1.009-1.612-1.009m.502 9.192c.1-.567.201-.939.302-1.807.351.974.502 1.24.743 1.912-.512-.05-.603-.05-1.065-.1M413.382 262.034l-16.984 6.447a1.577 1.577 0 0 0-1.064 1.486c.05.708.512 1.33 1.22 1.436l7.49 2.108c.513.15 1.115 0 1.507-.301l9.44-8.642a1.447 1.447 0 0 0 .3-1.913c-.451-.602-1.24-.903-1.912-.602m-9.334 8.27c-.401-.1-1.1-.351-2.143-.567 1.857-.763 2.424-.904 4.799-1.933a49.37 49.37 0 0 1-2.656 2.495M423.406 241.261c-.673-.05-1.31.2-1.682.688l-5.278 8.518c-.25.302-.3.763-.15 1.26.1.352.401.728.743.884l7.58 3.916c.582.2 1.134.2 1.646-.201.452-.301.743-.849.638-1.506l-2.284-12.29c-.1-.588-.568-1.1-1.205-1.276m-3.434 9.387c.638-.974 1.15-1.898 2.304-3.63.352 2.32.568 3.293.974 5.33-1.52-.813-2.199-1.134-3.278-1.701M458.542 195.552c.567.15 1.1.1 1.541-.2.402-.302.603-.799.603-1.256l-.05-8.554c-.036-.707-.513-1.33-1.185-1.45l-7.137-1.542c-.533-.1-1.045.018-1.416.402-.402.301-.502.884-.402 1.4l1.541 7.864c.1.512.452.958.96 1.134zm-1.03-8.66v4.94c-1.184-.452-1.927-.799-2.62-1.01-.15-.918-.547-2.78-.903-4.693 1.486.301 2.55.532 3.524.763M452.468 158.716c.351.451 1.009.602 1.52.451l9.404-2.41c.402-.2.743-.582.954-.973.201-.352.201-.939-.017-1.38l-2.53-5.101c-.302-.743-1.115-1.044-1.788-.884l-11.457 2.535a1.56 1.56 0 0 0-1.15 1.08c-.251.502 0 1.114.301 1.486zm6.995-7.014c.452.763.673 1.401 1.22 2.46-2.038.512-5.437 1.451-6.57 1.823-.567-.638-1.22-1.366-2.34-2.55 2.746-.623 6.234-1.416 7.687-1.738M442.055 109.34c.567.05 1.099-.25 1.435-.708l2.746-3.72c.251-.451.301-.868.201-1.365-.15-.452-.567-.848-1.044-.939l-5.366-1.912c-.658-.201-1.26-.036-1.737.401-.402.512-.502 1.135-.251 1.702l2.71 5.667c.302.452.779.814 1.296.869M426.523 104.364c.351 0 .918-.05 1.22-.502l3.579-3.84c.452-.302.502-.92.351-1.436-.1-.532-.547-.974-1.134-1.08l-6.394-1.666c-.582-.15-1.24 0-1.611.532-.402.502-.512 1.134-.1 1.737l2.85 5.419c.202.502.674.743 1.256.813m.743-4.442c-.2.1-.2.1-.251.2l-.2-.3c.2.05.25.05.501.1M90.48 136.419c.451-.502.451-1.275 0-1.808l-3.665-4.995c-.548-.763-1.521-.923-2.18-.451l-3.488 2.515c-.532.401-.708.974-.638 1.54.036.513.502 1.065 1.01 1.186l7.242 2.57c.618.251 1.346 0 1.717-.567M79.8 228.173c-.692.15-1.184.778-1.184 1.506l-.352 9.51c-.05.603.352 1.115.849 1.451.622.251 1.26.15 1.682-.351l3.93-3.329c.547-.502.728-1.24.352-1.947l-3.58-6.181c-.3-.568-1.079-.813-1.717-.673m1.717 7.562v-.602c.1.2.201.25.201.351-.05.1-.1.1-.2.251M282.436 286.775c.401 0 .939-.301 1.185-.728.25-.402.25-.869.15-1.31l-1.365-3.88c-.201-.618-.763-1.08-1.436-1.08l-7.332-.251c-.512-.1-.868.1-1.205.401-.3.352-.502.904-.401 1.275l.778 5.03c.1.743.919 1.45 1.682 1.255zm-2.64-3.896c.1.301.15.452.35 1.03-1.59.15-3.062.3-4.532.451 0-.688-.1-.954-.201-1.717 1.737.05 3.278.201 4.372.251M444.533 233.044l3.399 3.93c.351.402.763.568 1.31.568.512-.05.994-.302 1.22-.728l4.78-7.474c.25-.547.25-1.22-.101-1.737l-4.393-5.88c-.3-.451-.883-.797-1.45-.692-.583.05-1.08.502-1.26 1.064l-3.79 9.316c-.202.567-.05 1.184.3 1.631m5.402-7.243c.959 1.33 1.576 2.108 1.983 2.78-.637.99-1.842 3.048-2.922 4.835-.798-.813-1.064-1.22-1.486-1.631.402-1.135 1.486-3.615 2.425-5.986" style="fill:#1a253b" transform="matrix(1.32516 0 0 1.32516 -61.722 -56.869)"/><path d="M442.284 131.85c-3.594-11.016-9.332-20.278-15.39-24.776-6.924-5.136-12.84-8.058-17.054-10.13-3.062-1.521-5.525-2.62-6.747-3.951a112.587 112.587 0 0 0-10.715-9.953c-.919-.813-1.842-1.436-2.796-2.144-1.948-1.486-3.916-3.047-5.844-4.478-.94-.672-1.843-1.24-2.746-1.857-.974-.728-1.878-1.22-2.852-1.842-.883-.583-1.787-1.135-2.676-1.752-4.372-2.62-8.607-5.083-12.237-6.89-11.883-6.074-20.632-8.926-21.217-9.12-21.605-8.217-47.48-12.29-76.842-12.043h-.1c-20.597.568-39.83 3.86-57.15 9.74-17.32 5.845-33.17 14.593-47.339 25.662-.692.582-1.435 1.08-2.143 1.612v.035c-.452.301-.693.638-1.064.939-1.1 1.009-1.933 1.948-2.992 2.871-1.632 1.486-3.243 2.977-4.71 4.428-3.86 3.86-7.207 7.615-10.13 11.423-1.149 1.45-2.46 2.886-3.468 4.372-5.224 7.615-8.607 15.178-9.97 22.562l-.151 1.436c-.251 2.816-.834 8.536-2.124 10.041-9.226 2.852-12.68 14.274-15.248 22.722-.778 2.535-1.45 4.8-2.158 6.322l-1.702 3.364c-2.746 5.402-5.738 11.352-5.738 16.31 0 1.843.401 3.51 1.38 5.083 2.656 4.232 6.465 4.905 9.847 5.119 3.916.1 6.517-1.577 8.43-2.797.728-.451 1.576-1.009 2.003-1.064.582 1.03 1.33 4.518 1.893 7.403 2.354 10.945 6.198 29.31 20.03 33.436 4.553 1.486 9.209 2.159 12.84 1.807 1.666.1 3.117-.3 4.407-.652.763-.201 2.445-.532 2.445-.532 7.88-2.25 18.577-10.697 24.492-38.448l.201-1.01c.402-1.556.974-2.339 1.24-2.585.05.05.251.15.502.402 0 .1.728.833.728.833 2.48 2.726 5.915 6.5 11.033 7.261 4.337.869 8.27-1.29 11.6-6.446l.1-.2.05-.151a15.966 15.966 0 0 0 1.03-5.72c0-4.092-1.38-7.917-2.711-11.672-.813-2.249-1.627-4.407-2.053-6.517-.251-2.178-.778-4.302-1.346-6.464-.1-.351-.2-.708-.3-1.135.35 1.1.812 2.039 1.274 2.907 1.913 3.594 5.083 6.535 8.27 7.668 11.53 4.483 19.003 2.977 27.203.301 4.127 4.694 11.6 6.801 21.34 5.862 6.128-.727 14.47-4.056 19.003-9.988 2.159.728 6.588 1.948 10.006 2.073 4.94.1 11.423-1.912 13.07-3.243l.05-.05.019-.018c.35-.35 1.506-.657 1.967-.602 1.416 8.837 5.455 17.126 11.583 23.98 5.703 6.269 13.016 11.104 20.738 13.44 6.092 1.934 11.635 3.013 19.091 3.811 11.618 1.135 23.82-2.284 35.207-9.9 10.307-6.889 19.322-16.913 25.325-28.14l.1-.101c5.225-12.29 4.022-23.732 3.153-32.055-.2-1.737-.502-5.03-.502-5.03s-.05-.798-.05-.903c.974 1.772 2.495 6.534 3.243 13.123.25 1.928.502 4.694.502 7.792 0 4.87-.582 10.697-2.55 16.098-.201.587-.352 1.24-.352 1.807 0 1.275.568 2.41 1.577 3.153 2.249 1.892 6.428 1.717 9.793-.352 4.142-2.46 6.075-6.269 8.289-12.857.958-2.942 1.435-6.41 1.435-10.29 0-5.879-1.114-12.502-3.313-19.338M152.72 229.574c-5.03 0-7.845-1.4-7.899-3.097.673-1.22 2.039-3.49 7.032-3.544 5.082-.1 7.95 2.655 8.695 3.86.035 1.752-2.816 2.656-7.828 2.781m88.053-61.86c-8.447 4.533-18.312 3.328-25.307-1.717-4.232-2.922-4.624-8.128-3.595-12.963 1.521-4.71 5.313-7.492 10.254-7.917 8.253-1.556 14.61 3.208 19.48 8.944-1.114 4.267-2.087 9.174-.832 13.654m37.952-1.893c-2.374 3.223-9.988 9.564-24.67 7.084-4.924-.833-9.191-6.623-8.908-11.316.452-7.721 6.429-11.423 10.82-12.202 8.572-1.45 17.038 1.893 21.518 8.2 1.33 1.892 4.036 4.708 1.24 8.234m28.3-4.427c-2.851 2.264-10.467 6.056-22.19 2.143 0 0 .707-2.515-1.01-5.95-1.857-3.665-4.372-5.667-7.58-8.695 0 0 1.472-2.34 2.039-3.314l19.002-3.398c4.905 2.234 9.156 5.118 11.671 9.723 1.38 2.57 1.556 6.64-1.928 9.492m104.718 10.856c-8.341 14.186-25.697 27.008-36.871 29.31-11.07 2.284-30.25.15-42.008-8.465-10.661-8.235-18.17-18.135-17.214-32.374.1-2.39.25-6.535 1.591-9.528 1.366-3.097 3.293-11.954 11.99-15.018 7.402-2.64 13.902 0 21.145 1.858 2.586.451 2.074-1.823 1.045-3.314-5.349-5.88-17.356-6.34-22.704-4.463-3.544 1.416-7.545 4.303-10.821 7.917-17.922-5.933-45.656 4.071-54.475 4.322-3.56.15-5.154.351-6.057.2-17.338-1.4-39.971-8.287-55.024 3.384-4.413.583-12.025-6.056-12.167-.813-.1 2.816 8.908 5.437 9.687 11.299 2.018 9.882 3.133 19.268 7.491 28.017 1.255 4.056-.502 7.101-1.807 8.5-1.255 1.33-4.89 2.32-7.58.708-8.554-5.755-10.236-21.836-12.75-24.917-1.115-1.436-3.881-1.135-3.259 1.807 3.419 18.258-7.314 44.327-11.05 50.472-1.045 1.717-3.329 4.8-6.553 3.931-3.399-5.56-12.54-8.43-17.87-5.809-5.224 2.495-5.047 7.332-9.173 3.7-6.713-6.96-8.678-21.27-9.387-26.033-.637-4.694.588-17.515 2.977-21.075 2.144-3.398 3.58-7.403 1.33-9.138-2.605-1.185-3.72-.15-4.904 3.348-1.115 3.63-9.652 21.66-17.728 21.234-3.258-.2-3.93-2.319-3.93-3.805.25-9.475 5.79-14.416 7.845-22.013 2.57-8.023 5.685-20.845 13.513-22.35 4.181-.763 7.97-1.737 9.032-3.328 1.064-1.556 0-3.51-1.702-3.208-1.717.301-1.752.351-2.761-.512-1.26-1.064.778-15.744 10.892-30.85 10.289-15.39 52.42-53.75 118.124-55.13 65.632-1.452 109.57 14.858 144.175 55.059 12.91 17.71 18.4 45.531 6.96 67.067m22.19-3.86c-1.17.918-1.681.4-1.275-.729 5.154-12.627-.15-35.756-4.728-40.697-4.443-4.784-7.616-3.454-9.086-7.952-1.541-4.553-3.132-7.951-5.685-11.759 1.983 0 7.084 2.159 11.016 5.668 4.322 3.7 14.858 18.772 15.177 36.375.1 3.966-1.1 15.638-5.419 19.092" style="fill:#1a253b" transform="matrix(1.32516 0 0 1.32516 -61.722 -56.869)"/><path fill="#d0b263" d="M38.84 129.915c-.918.679-2.043 1.69-3.732 2.768 2.348-.4 3.638-.599 6.782-1.078-.938-.599-1.97-1.15-3.054-1.69M33.301 233.904c-2.607.751-7.299 2.208-13.119 3.898.599-.067 10.256-.665 13.166-.845-.023-1.15-.047-1.643-.047-3.053M147.17 40.43h-1.124c-.466 1.764-2.182 9.365-3.167 13.59 1.41-1.152 2.508-2.396 3.965-3.686.133-4.251.266-7.909.332-9.904M537.706 127.38c1.876 0 3.472-.132 4.39-.132.725-.798 3.825-4.105 6.665-7.158-5.302 3.193-10.325 6.147-11.124 6.619.067.266.067.333.067.678"/><path fill="#d0b263" d="M481.382 71.526c5.588 2.814 13.424 6.64 22.6 13.448 8.026 6.007 15.63 18.282 20.394 32.855 2.913 9.083 4.39 17.813 4.39 25.604 0 5.162-.599 9.74-1.902 13.682-2.934 8.73-5.489 13.776-10.984 17.038-4.457 2.721-9.998 2.954-12.978.466-1.337-.984-2.089-2.488-2.089-4.178 0-.771.266-1.616.466-2.394 2.608-7.158 3.406-14.88 3.406-21.333 0-4.104-.333-7.791-.665-10.373-.985-8.683-3.027-15.02-4.318-17.343 0 .067.067 1.124.067 1.124s.399 4.364.678 6.689c1.125 11.077 2.721 26.238-4.204 42.478l-.133.2c-7.956 14.855-19.9 28.162-33.536 37.29-15.114 10.092-31.26 14.621-46.678 13.049-9.88-1.031-17.226-2.415-25.3-4.976-10.208-3.1-19.924-9.505-27.48-17.813-8.144-9.082-13.471-20.112-15.35-31.8-.598-.046-2.115.333-2.607.773l-.024.047-.067.023c-2.182 1.783-10.772 4.484-17.32 4.344-4.503-.133-10.396-1.81-13.259-2.72-6.007 7.861-17.038 12.274-25.181 13.188-12.908 1.264-22.811-1.523-28.28-7.744-10.866 3.52-20.77 5.535-36.047-.399-4.225-1.57-8.426-5.468-10.96-10.161-.599-1.151-1.218-2.462-1.717-3.852.134.532.267 1.03.4 1.503.751 2.768 1.476 5.681 1.782 8.567.6 2.794 1.644 5.634 2.721 8.636 1.763 4.976 3.593 10.02 3.593 15.465 0 2.349-.333 4.857-1.384 7.534l-.067.266-.133.266c-4.41 6.83-9.622 9.622-15.371 8.519-6.783-.985-11.312-5.987-14.621-9.646 0 0-.965-.964-.965-1.057-.332-.333-.532-.466-.665-.532-.333.266-1.078 1.363-1.643 3.426l-.266 1.337c-7.839 36.775-21.99 47.946-32.434 50.95 0 0-2.255.399-3.26.705-1.716.465-3.612.984-5.82.864-4.836.466-10.983-.399-17.038-2.395-18.352-5.468-23.422-29.804-26.543-44.331-.725-3.799-1.736-8.426-2.508-9.787-.532.047-1.69.725-2.628 1.364-2.554 1.617-6.007 3.918-11.17 3.732-4.504-.266-9.552-1.264-13.05-6.805-1.29-2.043-1.855-4.251-1.855-6.689 0-6.572 3.965-14.456 7.604-21.614 0 0 2.255-4.457 2.301-4.457.892-2.043 1.783-5.07 2.814-8.426 3.4-11.241 7.98-26.33 20.206-30.063 1.717-2.015 2.488-9.621 2.814-13.33l.2-1.948c1.81-9.716 6.287-19.785 13.236-29.829l-2.953.892c-.666.2-1.384 0-1.903-.4-.532-.332-.818-1.077-.818-1.662l.532-6.736c0-.798.599-1.55 1.43-1.763l6.64-1.996c.751-.399 1.523-.266 2.062.333.598.599.818 1.41.598 2.089l-1.01 3.426c3.871-4.996 8.307-9.974 13.423-15.09l-4.41 1.504c-1.125.399-2.276-.048-2.721-1.218 0 0-1.83-4.976-3.306-9.082.133 4.577.399 10.256.399 10.303 0 .891-.6 1.71-1.504 1.923l-5.116 1.263-3.798.845c-.532.2-1.217.067-1.716-.332-.466-.333-.799-.918-.799-1.41-.2-1.43-.266-3.872-.266-6.62 0-4.15.133-8.848.133-11.405-.266 0-.266 0-.665-.133-.532 3.006-2.72 15.278-2.72 15.278-.067.705-.533 1.363-1.218 1.616-.679.333-1.384.133-1.97-.266 0 0-5.488-4.038-6.432-4.69h-.4c2.116 3.147 5.236 7.885 5.236 7.885.266.333.333.705.333 1.058 0 .4-.133.599-.2.798-.133.599-.752 1.151-1.384 1.317l-9.88 2.369c-.532.133-1.244 0-1.643-.266-.532-.333-.845-.845-.965-1.457 0 0-.598-3.965-.891-5.775-.705-.133-1.124-.266-2.209-.465-.465 2.72-1.503 8.19-1.503 8.19-.133.865-.665 1.43-1.523 1.69l-7.604 1.57c-.705.023-1.364-.067-1.83-.466-.399-.332-.665-1.011-.665-1.55v-.266s1.29-11.453 1.756-16.451c-.864.532-1.29.705-1.856 1.03-.266 1.784-3.452 18.54-3.452 18.54-.133.679-.752 1.244-1.29 1.504 0 0-8.684 3.12-11.36 3.945.467 1.783 1.079 4.856 1.385 6.173l6.406-2.608c.705-.266 1.477-.133 2.135.267.532.399.819 1.197.725 1.876l-1.782 10.372a1.911 1.911 0 0 1-1.504 1.716c-.818.2-1.616 0-2.182-.678l-2.182-2.794-3.732-4.504c-.2-.2-.333-.466-.4-.752-.265-.133-.598-.2-.89-.532L55.124 87s-1.15-1.504-2.062-2.488c-.665.466-.871.532-1.596 1.17a6756.205 6756.205 0 0 1 7.674 12.275c.2.333.332.752.332 1.104 0 .533-.266 1.058-.678 1.43l-4.012 4.012c-.771.725-2.042.818-2.794.133 0 0-7.979-6.947-10.748-9.27-.532.918-.725 1.244-1.058 1.856 1.264 1.763 8.309 11.335 8.309 11.335.266.466.465.892.465 1.29 0 .6-.332 1.032-.678 1.504l-6.947 7.134c-.598.532-1.477.752-2.228.4 0 0-9.388-3.26-10.984-3.806-.665.333-1.43.845-2.86 1.69 3.26 1.922 8.284 5.142 8.284 5.142.665.2 1.011.892 1.011 1.477 0 .067.067.133.067.266 0 .599-.266 1.078-.679 1.41 0 0-2.86 2.721-4.836 4.717.938.466 1.29.665 1.97.891 1.476-1.244 6.173-4.836 6.173-4.836.725-.532 1.596-.665 2.275-.2l9.106 5.163c.066.023.532.399.725.532.2.333.332.725.332 1.104 0 .133-.066.872-.266 1.125-.399.705-.725 1.104-1.477.918v.066l-15.465 2.934s-16.521 3.12-19.502 3.659c0 1.104.067 1.643.067 2.814 3.166.266 21.732 1.736 21.732 1.736a1.991 1.991 0 0 1 1.756 1.124c.133.333.2.666.2.892 0 .465-.133.871-.4 1.197l-8.565 11.054c-.466.678-1.317.891-2.062.752 0 0-12.79-2.256-15.512-2.721-.533 1.363-1.198 2.794-1.903 4.55 3.286.985 14.668 4.317 14.668 4.317.466.067 1.011.466 1.244.938.133.333.2.666.2 1.032 0 .2 0 .399-.067.532l-4.624 13.752c-.266 1.011-1.244 1.55-2.228 1.43 0 0-6.147-.818-9.857-1.363.705 1.922 1.011 3.333 1.384 4.317 1.81.333 7.228 1.364 7.228 1.364.466.2 1.058.466 1.244.985.266.332.4.665.4 1.057 0 .333-.048.333-.2.599 0 0-.985 3.426-1.717 5.794 1.105.2 1.43.266 2.349.333.771-2.042 2.348-6.287 2.348-6.287.333-.984 1.264-1.503 2.275-1.27l3.992.751 4.623.938c.679.2 1.218.533 1.524 1.171.266.666.266 1.29-.048 1.903l-12.625 21.356c-.466.964-1.717 1.27-2.628.818 0 0-4.038-1.97-5.82-2.794-.8.678-1.291 1.29-2.396 2.415 3.965 1.856 15.536 6.923 15.536 6.923.772.332 1.264 1.058 1.264 1.83 0 .937-.532 1.642-1.29 1.922 0 0-11.242 4.597-16.194 6.546 1.644 1.01 2.582 1.616 3.24 2.015 1.69-.465 22.483-6.619 22.483-6.619.598-.332 1.337-.066 1.783.266.532.333.844 1.031.844 1.644l.133 7.673c0 1.124-.871 1.97-1.922 2.116 0 0-6.83.465-11.289.751 4.298.599 11.218 1.737 11.218 1.737.985.133 1.737.964 1.83 1.995l.399 20.137c0 .665-.266 1.124-.725 1.476 0 0-5.535 5.329-7.299 6.948.267.399.267.598.6 1.057 1.855-1.264 4.503-2.86 4.503-2.86.665-.4 1.503-.466 2.135-.067.666.4 1.078 1.124 1.078 1.83v4.13h3.24c0-2.7.066-8.448.066-8.448 0-.532.266-1.364.845-1.81l10.185-6.545c.4-.333 1.104-.4 1.643-.333.466.067.938.466 1.264.918l6.947 10.702c.2.266.266.678.266 1.078 0 .678-.266 1.31-.752 1.643 0 0-9.059 6.526-12.203 8.87.964.726 1.43 1.078 2.182 1.55 2.089-1.103 23.656-13.353 23.656-13.353.751-.399 1.756-.266 2.301.2.533.266.865.865.865 1.643v.4s-.771 3.778-1.29 5.96c1.969.599 4.743 1.197 4.743 1.197.918.2 1.57 1.058 1.57 1.996s-.599 1.783-1.43 1.97c0 0-13.05 4.223-15.513 4.902v.532c2.534 0 7.885.024 7.885.024.532 0 1.104.332 1.477.818.332.465.465.865.465 1.264v.332l-.871 5.236c-.266.818-.798 1.503-1.69 1.643 0 0-14.432 2.461-16.662 2.86-.266 1.012-.725 2.462-1.317 4.438 5.348-.752 34.217-4.837 34.217-4.837.598-.133 1.263.067 1.69.4.332.332.704 1.01.704 1.57l.067 4.038c0 .598-.266 1.15-.725 1.55 0 0-10.49 9.059-12.414 10.655.133.465.266.598.532 1.197 1.81-1.337 9.575-6.806 9.575-6.806.665-.532 1.477-.532 2.255-.2.599.333 1.078.985 1.078 1.783 0 0 .2 13.706.332 16.592 1.218-.845 1.97-1.41 2.608-1.81.023-1.875.599-14.151.599-14.151l.532-6.22c.047-.679.266-1.104.772-1.503l10.396-7.698c.466-.266 1.011-.466 1.57-.333.599.133 1.058.4 1.364.965 0 0 2.84 4.224 4.177 6.333.726-.4.985-.665 1.903-1.078-1.17-2.394-3.872-7.603-3.872-7.603-.133-.4-.2-.679-.2-1.012 0-.665.333-1.31.826-1.762l15.723-10.843c.6-.399 1.43-.399 2.162-.066.666.266 1.105 1.031 1.105 1.643l1.124 22.53c0 .865-.665 1.763-1.57 2.016 0 0-26.284 7.627-29.922 8.66.599 1.643.965 2.933 1.477 4.317 3.26-.778 28.49-6.83 28.49-6.83.599-.132 1.171-.066 1.663.333.533.333.772.819.892 1.364l.599 6.174v.332c0 .845-.466 1.597-1.338 1.923 0 0-5.68 1.902-8.072 2.887v.333c2.348-.333 7.65-.985 7.65-.985.665-.067 1.15 0 1.643.466.4.133.665.818.772 1.29 0 0 .891 9.364 1.217 13.4 2.275-1.17 4.224-2.182 5.256-2.814.023-2.182.705-14.879.705-14.879.047-.678.465-1.124.964-1.503l5.116-3.473c.772-.678 1.97-.465 2.701.2l13.8 15.16c.398.466.598 1.011.598 1.41 0 .333-.067.6-.2.819-.266.751-.918 1.217-1.736 1.29 0 0-3.286.2-5.515.4.133 1.17.266 1.716.4 2.794 2.913-.134 15.606-.4 15.606-.4 1.244 0 2.155.752 2.155 1.95 0 0 .333 5.96.4 8.542h2.56l1.265-9.833c0-.818.465-1.477 1.43-1.69l9.035-2.654c.466-.067 1.218-.067 1.663.333.532.266.845.891.892 1.503 0 0 .918 8.918 1.244 12.556 1.01-.4 1.43-.466 2.155-.818.133-2.182.872-13.988.872-13.988.024-.865.598-1.71 1.383-1.83l9.692-2.86 4.597-1.364c.599-.066 1.364-.066 1.83.333.532.4.844 1.031.844 1.57 0 0-.532 15.959-.678 18.282.798.466 1.244.665 2.321 1.151 1.078-3.472 4.178-14.644 4.178-14.644.266-.665.779-1.29 1.457-1.457.752-.047 1.43 0 2.016.599l15.113 14.62c.332.4.532.726.598 1.265l1.763 12.297c1.291.133 2.182.332 3.66.332.199-3.146 1.316-15.137 1.316-15.137 0-.598.333-1.077.706-1.363l18.54-15.325c.466-.333 1.317-.665 1.95-.333.678.2 1.29.666 1.336 1.477 0 0 3.992 16.78 4.743 19.902 1.384-.2 2.628-.466 3.52-.799-.4-2.58-3.965-24.36-3.965-24.36v-.332c0-.965.532-1.876 1.57-2.062l12.93-2.322c.6-.133 1.364.066 1.764.532.465.4.665.938.665 1.337v.4s-2.488 15.84-2.748 17.788c.4.466.779.752 1.524 1.384.778-1.384 2.182-3.473 4.344-6.713.399-.725 1.29-1.077 2.155-.938.752.2 1.457.752 1.617 1.617l1.077 5.116s2.136 9.551 3.1 14.268c1.198-1.15 1.81-1.829 2.349-2.321-.333-1.763-2.043-12.532-2.043-12.532-.047-.133-.047-.266-.047-.333 0-.665.333-1.363.938-1.716l12.134-7.815c.465-.332 1.104-.332 1.716-.266.532.2 1.078.665 1.337 1.031 0 0 11.828 24.666 13.236 27.412 1.264-.266 2.043-.532 3.593-.965-1.41-3.472-8.143-18.962-8.143-18.962-.133-.4-.267-.599-.267-.871 0-.6.267-1.078.799-1.644.751-.465 1.763-.465 2.534-.133 0 0 4.81 3.453 7.182 5.09.332-.4.332-.533.532-.819a25806.2 25806.2 0 0 1-11.03-11.358c-.333-.466-.532-1.031-.532-1.504 0-.332.133-.705.266-.964l10.584-19.502c.4-.706 1.104-1.125 1.83-1.125l9.293-.332c.532 0 1.104.266 1.57.665.332.333.532.891.532 1.457l.133 6.876c0 .532-.399 1.244-.891 1.55 0 0-8.003 6.406-10.49 8.26.465.466.665.6.937 1.218 2.182-1.217 7.44-4.297 7.44-4.297.678-.333 1.477-.466 2.109-.067.705.266.984.965.984 1.81 0 0 .4 28.89.4 32.386 1.596 0 2.913.2 4.343.2.466-3.214 2.535-19.503 2.535-19.503.067-.752.532-1.457 1.364-1.57.705-.266 1.523-.133 2.135.333.133.332.985 1.15 5.209 8.237.725-.399.891-.465 1.643-.818a3982.556 3982.556 0 0 0-4.597-9.998c-.2-.333-.2-.532-.2-.772 0-.725.333-1.476.985-1.809 3.5-2.016 7.416-4.39 8.027-4.883.465-.4 1.197-.599 1.829-.4.665.267 1.27.533 1.523 1.152 0 0 6.62 15.841 7.885 18.892.865-.4 1.198-.4 1.95-.678-.2-2.655-2.09-18.54-2.09-18.54s-.046-.134-.046-.267c0-.532.266-1.078.666-1.477.598-.465 1.317-.665 2.042-.399l9.927 3.1c.665.333 1.151.798 1.337 1.524 0 0 2.86 11.194 3.593 13.94.798-.067.918-.067 1.616-.2.333-2.608.965-11.265.965-11.265.066-.599.266-1.198.798-1.477.532-.4 1.078-.752 1.617-.665l10.443 1.996c.845.133 1.384.598 1.617 1.363 0 0 3.333 10.444 4.131 12.931 1.15-.066 1.783-.133 3.147-.133-.333-3.007-.965-11.171-.965-11.171v-.133c0-.599.133-1.078.532-1.364.466-.599 1.105-.725 1.597-.679 0 0 14.832.965 17.18 1.105.465-1.031.797-1.783 1.43-3.193-6.407-1.996-12.908-3.919-13.777-4.085-.751-.067-1.456-.772-1.616-1.597 0-.066-.067-.266-.067-.465 0-.599.266-1.29.799-1.617l14.926-11.336a2.362 2.362 0 0 1 2.627 0s13.448 11.125 16.193 13.378c1.171-1.57 2.535-3.147 3.706-4.67-2.488-2.116-14.644-12.485-14.644-12.485-.4-.465-.666-.918-.666-1.55 0-.266 0-.532.133-.871.4-.965 1.271-1.364 2.182-1.125 0 0 36.212 5.868 39.38 6.387.665-1.457.892-2.84 1.43-4.504-3.026-.845-14.902-4.297-14.902-4.297-.678-.2-1.217-.845-1.43-1.524v-.465c0-.6.266-1.125.665-1.524l11.5-10.09c.778-.666 1.856-.706 2.674-.067l9.857 7.439c.399.266.725.725.752 1.337 0 0 2.394 18.564 2.56 20.816 1.125.333 2.369.752 4.365 1.41-.333-4.297-1.058-15.747-1.058-15.817 0-.678.333-1.364 1.078-1.83.751-.265 1.596-.265 2.155.267 0 0 3.12 2.275 5.003 3.705.399-.466.399-.532.771-1.031a8454.387 8454.387 0 0 0-8.683-7.651c-.333-.4-.665-.865-.665-1.43l-.772-13.706c0-.725.333-1.363.938-1.762.466-.4 1.384-.4 2.042-.067 0 0 27.294 12.767 30.604 14.292.532-1.244.725-1.856 1.41-2.907-2.748-1.69-18.986-11.688-18.986-11.688a2.207 2.207 0 0 1-.89-1.783v-.133c.066-.864.664-1.41 1.383-1.736 0 0 2.508-.818 4.104-1.244v-.818c-2.607-.266-11.898-1.504-11.898-1.504-1.058-.2-1.763-1.077-1.763-2.042l-.133-5.089c0-.665.266-1.31.818-1.663.665-.333 1.217-.4 1.736-.333 0 0 2.043.466 3.826.938.047-.465.133-.465.2-.725-1.245-1.031-3.92-2.954-3.92-2.954-.598-.399-.77-.964-.77-1.643 0-.399 0-.598.132-.984l1.29-2.488c.333-.466.68-.818 1.271-.985.533-.2 1.171-.066 1.69.266 0 0 16.827 10.514 20.09 12.65.265-.772.398-.819.598-1.365-1.57-1.643-9.81-10.537-9.81-10.537-.399-.4-.466-.818-.466-1.364 0-.266 0-.665.067-.938.466-.751 1.364-1.217 2.155-1.15 0 0 2.934.332 4.438.532.984-1.644 6.033-9.012 6.033-9.012.4-.6.892-.865 1.69-.865.665 0 1.244.266 1.643.818 0 0 8.52 11.57 11.124 15.066.818-1.244 1.317-1.922 1.995-2.86-1.57-1.876-10.725-14.339-10.725-14.339-.399-.266-.465-.725-.465-1.17 0-.267 0-.466.066-.726l3.805-13.095c.2-.772.845-1.317 1.664-1.43l11.428-1.71c-4.976 0-10.771.067-10.771.067-1.058 0-2.042-.892-2.042-2.09l-.067-8.8c0-.599.266-1.058.798-1.57.532-.332 1.105-.532 1.737-.332 0 0 22.88 5.794 24.664 6.34.599-.466 1.477-1.032 3.007-2.23-5.329-1.662-18.117-6.146-18.117-6.146-.918-.266-1.384-1.078-1.384-1.903v-.133c.023-.938.725-1.69 1.597-1.949 0 0 11.757-2.7 14.503-3.306 0-.4-.133-.4-.133-.845-2.275 0-5.887.066-5.887.066-.752 0-1.43-.399-1.736-.937l-9.646-14.809c-.4-.678-.4-1.643.067-2.302.465-.678 1.363-1.077 2.182-.778 0 0 11.522 2.887 14.644 3.705.266-1.03.465-1.383.725-2.534-3.353-.892-21.779-5.914-21.779-5.914a2.13 2.13 0 0 1-1.503-2.042c0-.892.598-1.737 1.503-1.876l14.386-4.205s8.824-2.534 11.312-3.24c0 0-.266-.864-.266-1.762a1498.7 1498.7 0 0 0-9.176 1.81c-.872.132-1.736-.267-2.089-1.032l-8.167-13.987c-.133-.266-.133-.532-.133-1.011 0-.133 0-.466.047-.665.266-.665.679-1.011 1.244-1.264 0 0 10.631-4.038 13.002-4.883-.133-1.217-.266-2.089-.4-3.659-3.472.892-16.31 3.825-16.31 3.825-.818.2-1.69-.133-2.135-.751l-6.735-9.177c-.266-.332-.466-.798-.466-1.124 0-.333.133-.532.266-.872.266-.532.818-1.104 1.504-1.197 0 0 16.897-3.612 20.23-4.364-.2-1.011-.333-1.503-.533-2.508-3.073.067-22.2 1.011-22.2 1.011-.666 0-1.265-.266-1.737-.752-.266-.399-.466-.891-.466-1.363v-.333s.965-4.976 1.364-6.97c-.532-.266-.532-.4-1.104-.599-1.763 1.903-9.294 9.903-9.294 9.903-.332.4-.845.666-1.43.679l-7.228.333c-1.197.066-2.135-.819-2.255-1.923l-.133-4.104c0-.679.399-1.43 1.031-1.81 0 0 23.985-14.386 28.162-16.874-1.523-1.15-2.368-2.016-3.26-2.7-2.135.984-23.444 10.35-23.444 10.35-.938.465-2.043.066-2.675-.68-.2-.332-.266-.678-.266-1.15 0-.533.266-1.058.599-1.43 4.763-4.79 13.072-15.372 16.006-19.033-.845-.705-1.031-1.078-1.783-1.717-2.395 1.783-18.094 13.777-18.094 13.777-.845.679-2.116.532-2.768-.266l-2.255-2.415c-.465-.466-.665-.818-.665-1.43 0-.266.133-.679.266-.985 0 0 12.204-22.46 13.565-24.97-.333-.2-.333-.2-.599-.465-1.197 1.55-2.747 3.519-2.747 3.519-.532.818-1.643.964-2.488.665l-11.077-5.255c-.532-.266-.985-.819-1.058-1.384v-.466c0-.399.067-.918.4-1.317 0 0 5.514-6.806 7.298-8.848-.532-.532-.705-.751-1.197-1.317-2.042 1.384-7.11 5.442-7.11 5.442-.6.399-1.385.532-2.063.266-.725-.266-1.078-.892-1.29-1.69 0 0-1.81-15.888-2.156-18.962h-1.617c0 3.26-.532 22.694-.532 22.694 0 .532-.266 1.151-.705 1.524-.532.332-1.124.598-1.716.332l-12.392-2.228c-.532-.024-1.124-.4-1.337-.892-.266-.266-.333-.705-.333-1.057 0-.2.134-.466.134-.533 0 0 2.275-8.237 3.286-11.852h-1.617c-1.057 1.57-7.767 11.57-7.767 11.57-.4.679-1.317 1.105-2.209.892l-13.776-3.193c-.705-.047-1.27-.726-1.503-1.311-.067-.266-.067-.466-.067-.665 0-.466.134-.965.533-1.364 0 0 9.058-10.725 11.945-14.128-.892-.267-1.27-.4-1.737-.679-1.616 1.17-15.981 11.124-15.981 11.124-.6.4-1.41.4-2.043.2-.532-.266-1.104-.845-1.124-1.457 0 0-2.042-9.481-2.561-11.945h-.133c-.4 1.57-1.364 6.852-2.229 11.616a150.199 150.199 0 0 1 14.175 13.237c1.643 1.716 4.903 3.213 8.965 5.162m-386.687 5.05 8.777-2.509c.665-.2 1.503-.066 1.969.266.466.466.798 1.264.679 1.95l-1.058 7.931c-.067.665-.599 1.17-1.198 1.55l-6.007 2.934c-.532.133-1.27.133-1.783 0-.532-.266-.964-.818-1.197-1.55l-1.57-8.19c-.2-1.078.466-2.11 1.384-2.396m-19.784 6.34c.2-.751.679-1.477 1.503-1.57l7.065-2.368c.751-.266 1.477-.067 2.042.4.466.531.865 1.17.679 1.968l-3.799 22.366c-.133.665-.665 1.197-1.058 1.503-.665.266-1.364.266-1.922 0l-5.775-2.72c-.818-.267-1.27-1.291-1.217-2.183zm-28.607 38.348c-.706-.2-1.291-.892-1.338-1.57-.066-.845.133-1.57.865-2.043l4.604-3.333c.865-.665 2.155-.399 2.86.533l4.883 6.688c.599.705.599 1.763 0 2.395a1.9 1.9 0 0 1-2.275.752zm-5.748 27.058c.046-.598.266-1.03.772-1.503.465-.266.938-.532 1.55-.4l13.142 1.903c.599.133 1.198.466 1.504 1.011.332.6.399 1.198.133 1.857l-5.376 13.564c-.332 1.032-1.456 1.504-2.488 1.171l-8.19-2.062c-.965-.2-1.55-1.124-1.55-2.089zm-15.02 37.503c-.679 0-1.29-.266-1.597-.892-.399-.665-.465-1.264-.266-1.876l5.375-13.705c.267-.891 1.338-1.457 2.256-1.244l2.933.4c.938.265 1.644 1.123 1.717 1.968l.133 13.776c0 .599-.2 1.078-.666 1.55-.399.333-.964.532-1.456.532zm14.785 31.87c0 .598-.266 1.15-.679 1.503a2.17 2.17 0 0 1-1.476.599l-12.345-.599c-.798 0-1.476-.532-1.736-1.124a1.852 1.852 0 0 1 .266-2.162l12.485-15.677c.533-.752 1.524-1.058 2.349-.752.865.332 1.41 1.078 1.41 2.016zm-.4-32.832a2.173 2.173 0 0 1-1.316-2.042l.891-11.171c0-.532.333-1.151.798-1.55.533-.333 1.151-.4 1.737-.333l6.993 1.67c.666.2 1.151.678 1.457 1.337.266.818.067 1.43-.399 1.97l-7.838 9.504c-.466.665-1.457.818-2.322.599m10.631 72.282-5.189 4.437c-.599.665-1.43.752-2.255.466-.679-.466-1.217-1.125-1.124-1.996l.465-12.532c0-1.031.666-1.783 1.57-1.996.845-.2 1.903.133 2.276.819l4.743 8.26c.465.892.266 1.95-.466 2.555m-5.867-16.874c-.6.047-1.198-.266-1.597-.598-.466-.333-.665-1.032-.665-1.504l.599-10.443c0-.752.465-1.503 1.263-1.83l6.64-2.747 8.307-3.353c.532-.332 1.171-.332 1.643.024.533.266.965.678 1.078 1.264l2.229 7.838c.2.599.133 1.171-.133 1.663l-5.302 8.05c-.333.665-.938.938-1.644.938zm28.278 27.06-5.84 4.763c-.466.333-1.198.466-1.69.333-.532-.067-1.104-.466-1.384-1.032l-6.24-11.382c-.532-.891-.332-2.042.665-2.608l10.843-7.697c.598-.4 1.41-.532 1.995-.2.666.266 1.198.965 1.264 1.617l1.27 14.41c0 .751-.199 1.43-.844 1.762m33.959 30.016-6.526 7.604c-.466.665-1.364.845-2.182.665-.892-.266-1.337-1.104-1.41-1.969l-.067-9.48c0-.533.266-1.152.665-1.57l3.193-2.888a2.177 2.177 0 0 1 1.69-.532c.532 0 1.15.399 1.477.938l3.213 5.142c.466.679.532 1.43-.047 2.109m12.086-9.435-5.255 4.391c-.6.4-1.364.599-2.043.333-.725-.133-1.29-.892-1.364-1.69l-1.057-7.463c-.067-.678.266-1.503.818-1.83.599-.465 1.364-.664 2.115-.265l6.36 2.96c.599.4 1.078.938 1.151 1.57.2.679-.2 1.477-.725 2.016m26.918 10.02c.133-.724.725-1.363 1.524-1.569l4.297-1.264c.679-.2 1.364-.133 1.923.4l6.193 5.54c.532.466.818 1.218.679 1.903-.047.599-.532 1.218-1.171 1.504l-11.922 5.515c-.725.266-1.57.2-2.155-.2-.533-.4-.872-1.17-.779-1.97zm8.988 18.353-7.368 7.98c-.533.751-1.524.871-2.369.532-.751-.333-1.337-1.031-1.15-1.923l.266-5.395c0-.798.465-1.616 1.244-1.83l7.158-2.793a2.127 2.127 0 0 1 2.441.725c.599.818.466 1.922-.2 2.674m22.413 23.117c0 .844-.725 1.763-1.643 1.922l-2.72.679c-.846.2-1.717-.067-2.256-.845l-11.968-18.728c-.4-.466-.4-1.104-.267-1.663.133-.599.6-.985 1.105-1.218l1.663-.871c.752-.266 1.55-.2 2.208.333l13.33 10.7c.466.533.666 1.078.666 1.644zm14.879-1.617-7.346 2.042c-.818.133-1.477.047-1.902-.399-.666-.399-.918-1.03-.918-1.643l1.41-19.315c.133-.818.798-1.55 1.736-1.763l5.489-1.104c.598-.066 1.17 0 1.716.4.399.265.752.937.752 1.476l.598 18.165c.024.984-.598 1.81-1.55 2.108m21.732-6.572-12.016 4.317c-.665.133-1.523.067-2.042-.399-.532-.466-.845-1.244-.665-1.922l2.7-15.677c.134-.798.799-1.364 1.55-1.616.819-.2 1.664.133 2.21.665l9.176 11.359c.399.665.532 1.197.399 1.902-.2.533-.666 1.078-1.29 1.41m25.955 16.264c-.918.333-1.923-.133-2.395-1.058l-4.996-8.918-4.577-8.19c-.399-.726-.332-1.41.133-2.063.4-.598 1.125-1.01 1.856-1.01l7.933.332c1.01 0 1.969.532 2.069 1.663.798 4.95 1.264 12.391 1.55 17.226 0 .964-.706 1.782-1.597 2.015m21.497-8.472-8.754 9.623c-.598.678-1.523.798-2.394.465a2.184 2.184 0 0 1-1.151-2.109l.532-6.735c0-.798.599-1.83 1.364-2.09l8.12-2.46c.918-.134 1.922 0 2.414.818.533.798.466 1.763-.133 2.508m6.387-10.796-2.934 4.131c-.133.4-.599.533-.938.6l-11.475 3.897c-.666.133-1.318.067-1.83-.399-.599-.332-.891-.891-.891-1.663l.066-6.853c0-1.057.872-2.015 1.996-2.015l11.1-.466h2.84c.846 0 1.57.133 2.016.798.4.6.4 1.291.024 1.97m4.67-9.06a1.783 1.783 0 0 1-1.81 1.764l-17.624 1.03c-.679 0-1.29-.199-1.69-.678-.399-.532-.532-1.244-.399-1.782.133-.6.2-.799 3.24-5.35l2.441-4.037c.4-.752 1.337-1.244 2.156-1.151l12.344 1.83c.985.133 1.903 1.15 1.763 2.108zm27.34 3.287-1.031-6.639c-.067-.532.133-1.217.532-1.663.4-.4.918-.679 1.597-.532l9.692.332c.918 0 1.617.533 1.903 1.364l1.81 5.189c.132.532.132 1.17-.2 1.763-.333.532-1.011.965-1.524.965l-10.56.984c-1.012.133-2.09-.705-2.229-1.71m15.911 8.05-9.598 11.241c-.532.752-1.41.965-2.182.752-.725-.266-1.43-.892-1.457-1.69l-1.457-11.264c-.133-.965.533-1.996 1.57-2.229l10.515-2.155c1.077-.266 2.115.332 2.414 1.43l.679 1.996c.2.751.066 1.457-.466 1.922m58.202-.465-9.246 4.623c-.752.4-1.504.333-2.09-.133a2.019 2.019 0 0 1-.87-1.97l2.155-16.92c.047-.818.751-1.616 1.716-1.71.772-.199 1.663.267 2.135.965l7.065 12.086c.332.6.332 1.198.2 1.763-.2.599-.6 1.011-1.079 1.29m24.126.134c-.532.4-1.217.532-1.922.333l-7.886-2.276c-.598-.2-1.057-.532-1.244-1.124-.332-.466-.332-1.124-.133-1.67l5.961-14.175c.4-.818 1.27-1.29 2.229-1.15.844.046 1.596.751 1.663 1.762l2.042 16.498c.2.666-.133 1.364-.679 1.81m19.409 2.368c-.466.466-1.218.872-1.95.725l-6.97-1.057c-.532-.067-.984-.4-1.43-.819-.2-.465-.4-1.03-.2-1.503l1.763-11.805c.2-.891.819-1.643 1.856-1.763.938-.023 1.83.4 2.136 1.337l5.096 12.814c.332.665.2 1.43-.333 2.062m26.59-15.981-14.293 10.396c-.4.333-.938.599-1.617.466-.465-.067-1.03-.532-1.383-.818l-4.298-6.546c-.465-.666-.465-1.617 0-2.302l9.693-14.386c.466-.4 1.031-.818 1.663-.818.705-.067 1.217.266 1.663.598l8.871 10.49c.333.4.532.965.466 1.57 0 .533-.333 1.105-.752 1.364m44.168-22.834-12.509 11.405c-.532.466-1.317.679-1.97.466l-9.95-2.794c-.918-.2-1.55-.965-1.616-1.903 0-.818.465-1.663 1.41-1.969l22.577-8.59c.818-.398 1.876 0 2.461.846a1.949 1.949 0 0 1-.399 2.534m14.926-10.89c-.678.533-1.41.533-2.182.267l-10.02-5.236c-.467-.133-.892-.678-1.012-1.197-.2-.599-.133-1.217.2-1.597l6.993-11.288c.466-.725 1.337-1.058 2.229-.938a2.12 2.12 0 0 1 1.596 1.716l3.027 16.287c.133.818-.266 1.57-.845 1.995m46.608-46.537-3.26 6.546c-.332.678-1.057 1.104-1.922 1.104-.705 0-1.43-.4-1.737-1.104l-3.006-6.007c-.267-.706-.267-1.364.066-1.95.4-.678.938-1.01 1.663-1.03l6.174-.466c.751 0 1.503.266 1.876.844.399.679.465 1.477.133 2.09m22.952-31.824c.266.4.532.872.532 1.364 0 1.969 0 1.969-15.583 2.907-.665 0-1.125-.266-1.504-.599-.399-.332-.665-.845-.771-1.384l-.819-16.263c-.046-.892.466-1.644 1.271-1.923.705-.466 1.763-.133 2.275.466zm-17.32-46.373c.666-.133 1.125-.133 1.617.2.532.2.845.725.984 1.29 0 0 1.264 5.163 1.876 7.229.333.047.333.047.706.047-.267-2.86-.845-8.05-.845-8.05v-.266c0-.918.665-1.643 1.57-2.016l2.534-.598c.845-.266 1.737.2 2.182.984l8.895 12.79c.399.466.465 1.29.266 1.923-.333.665-.965 1.15-1.57 1.15l-5.256.919-12.485 1.902c-.599.133-1.27-.133-1.716-.532L545 165.887l-1.363-1.504c-.533-.4-.6-1.264-.4-2.016a2.293 2.293 0 0 1 1.524-1.337zm-6.619 42.29c0 .598-.266 1.29-.798 1.616-.599.4-1.29.466-2.042.266l-7.393-2.887c-.665-.2-1.124-.798-1.27-1.503l-2.043-10.42c-.047-.666.024-1.43.533-1.83.465-.532 1.17-.705 1.856-.532l9.48 1.996c.892.2 1.524 1.01 1.57 1.969zm-17.602-55.784c.2-.679.752-1.29 1.504-1.43l15.207-3.38c.892-.266 1.97.2 2.369 1.124l3.352 6.83c.267.598.267 1.363.024 1.81a2.729 2.729 0 0 1-1.264 1.217l-12.462 3.286c-.678.133-1.57 0-2.015-.599l-6.34-6.876c-.4-.466-.679-1.318-.4-1.97m.134 72.47 3.612-6.34c.466-.89 1.457-1.216 2.488-.89l10.772 3.565c.726.333 1.384 1.124 1.384 1.97l.266 13.024c0 1.031-.938 2.016-2.015 2.089l-8.778.067c-.725 0-1.523-.4-1.902-1.058l-5.841-10.49c-.466-.533-.466-1.338 0-1.97m.705 20.394c.2-.752.872-1.337 1.643-1.41.752-.133 1.524.332 1.923.918l5.82 7.745c.466.725.466 1.616.134 2.348l-6.333 9.903c-.333.533-.938.892-1.617.938-.725 0-1.244-.2-1.736-.751l-4.504-5.19c-.466-.598-.665-1.41-.4-2.161zM518.785 77.175c.665-.532 1.43-.772 2.302-.532l7.11 2.58c.666.134 1.198.666 1.384 1.218.133.679.067 1.218-.266 1.83l-3.639 4.903c-.466.665-1.15.984-1.902.918-.666-.024-1.338-.533-1.717-1.105l-3.592-7.51c-.333-.751-.2-1.57.333-2.301m-20.887-6.194c.466-.705 1.337-.918 2.135-.705l8.496 2.209c.752.133 1.364.725 1.477 1.43.266.665.133 1.43-.466 1.902l-4.743 5.023c-.399.532-1.124.705-1.616.665-.752-.024-1.384-.399-1.644-1.03l-3.805-7.229c-.532-.725-.399-1.616.133-2.228"/><path fill="#d0b263" d="M561.385 226.112c3.12-.133 15.161-.266 15.255-.266-6.333-1.643-12.438-3.146-15.349-3.898 0 1.69 0 2.515.067 4.131M441.275 34.893c-.266.532-.938 2.275-1.876 4.597 1.264.818 2.461 1.476 3.752 2.394.532-2.72 1.057-5.255 1.317-6.24-1.317-.266-1.996-.465-3.193-.751"/><path fill="#592f1a" d="M140.645 247.35c-6.665 0-10.396-1.855-10.443-4.104.865-1.616 2.674-4.623 9.294-4.696 6.735-.133 10.56 3.519 11.522 5.115.067 2.322-3.732 3.52-10.373 3.686"/><path fill="#af5226" d="M500.368 92.766c5.747 4.902 19.69 24.876 20.112 48.203.133 5.256-1.457 20.722-7.158 25.3-1.55 1.217-2.209.532-1.716-.965 6.829-16.733-.2-47.383-6.267-53.93-5.887-6.34-10.092-4.577-12.04-10.538-2.042-6.033-4.15-10.537-7.533-15.582 2.654 0 9.387 2.86 14.598 7.51M474.67 82.51C428.813 29.237 370.61 7.622 283.614 9.547c-87.044 1.83-142.875 52.663-156.533 73.056-13.4 20.019-16.076 39.475-14.433 40.882 1.337 1.151 1.41 1.058 3.659.679 2.301-.4 3.658 2.182 2.301 4.25-1.457 2.116-6.48 3.407-11.991 4.411-10.398 1.996-14.527 18.986-17.93 29.617-2.722 10.068-10.092 16.616-10.397 29.171 0 1.97.891 4.79 5.209 5.043 10.748.532 22.013-23.327 23.491-28.138 1.57-4.65 3.054-6.008 6.5-4.438 2.98 2.302 1.104 7.604-1.763 12.11-3.167 4.716-4.79 21.708-3.945 27.927.985 6.314 3.546 25.276 12.439 34.499 5.488 4.81 5.235-1.597 12.156-4.903 7.064-3.473 19.173.332 23.68 7.697 4.27 1.151 7.298-2.933 8.683-5.209 4.95-8.143 19.174-42.688 14.644-66.884-.818-3.898 2.84-4.297 4.344-2.395 3.307 4.085 5.542 25.393 16.874 33.02 3.566 2.136 8.378.819 10.045-.938 1.736-1.856 4.058-5.887 2.395-11.264-5.728-11.593-7.252-24.032-9.927-37.128-1.031-7.768-12.955-11.24-12.837-14.972.2-6.947 10.278 1.856 16.122 1.078 19.948-15.466 49.941-6.34 72.916-4.484 1.198.2 3.307-.067 8.027-.266 11.687-.333 48.438-13.588 72.211-5.728 4.318-4.79 9.622-8.613 14.316-10.49 7.088-2.488 22.999-1.876 30.087 5.914 1.363 1.969 2.042 4.976-1.384 4.39-9.599-2.461-18.212-5.96-28.022-2.461-11.523 4.058-14.08 15.794-15.864 19.901-1.83 3.965-1.97 9.458-2.136 12.626-1.27 18.869 8.684 31.988 22.811 42.9 15.583 11.43 41.023 14.246 55.667 11.218 14.809-3.053 37.807-20.042 48.861-38.84 15.16-28.538 7.91-65.406-9.223-88.875M126.702 194.491c-3.1 1.057-6.386.891-8.753-.466-1.81-.985-2.914-2.561-3.353-4.53-.332-1.41.599-2.581 1.717-3.007.918-.2 1.782.133 2.062.984.818 2.302 2.654 4.55 6.688 3.24 1.078-.466 1.643-1.217 2.089-1.95.665-1.03 1.244-1.968 3.053-1.29.799.333 1.125.938 1.125 1.83 0 1.876-2.608 4.483-4.624 5.162m41.633 3.426c-6.054 2.089-9.95-1.663-11.288-4.178-.819-1.69-.133-2.913.751-3.545.965-.6 2.322-.679 2.934.133l.599 1.077c.466.965.964 2.182 2.794 2.628 2.441.865 3.426-.466 4.484-1.856l.891-1.104c.705-.799 1.763-1.012 2.654-.752.845.466 1.384 1.15 1.384 2.255 0 2.209-2.7 4.577-5.189 5.329"/><path fill="#b98653" d="M189.272 199.874s-.965-.964-.965-1.104c-.332-.332-.532-.466-.665-.532-.333.333-1.078 1.364-1.643 3.426l-.266 1.337c-7.839 36.775-21.99 47.97-32.434 50.974 0 0-.266.046-.598.066 2.607.466 5.255.679 7.627.466 2.747.133 5.142-1.058 7.557-1.317 19.478-4.105 26.753-42.618 27.528-44.331.266-.6.666-1.57 1.151-2.442-2.98-1.922-5.375-4.484-7.298-6.546M415.952 219.87c-9.88-1.058-17.226-2.488-25.299-5.05-10.208-3.1-19.924-9.504-27.481-17.812-8.12-9.082-13.47-20.065-15.349-31.776-.598-.067-2.115.333-2.607.798l-.024.023-.067.067c-2.182 1.763-10.772 4.437-17.32 4.297-4.503-.133-10.397-1.782-13.26-2.747-6.006 7.862-17.037 12.274-25.18 13.236-12.908 1.244-22.812-1.55-28.28-7.768-10.843 3.546-20.77 5.542-36.048-.399-4.224-1.503-8.425-5.395-10.96-10.161-.598-1.151-1.217-2.395-1.69-3.852.067.532.267 1.058.4 1.503.751 2.86 1.477 5.681 1.783 8.567.598 2.794 1.643 5.654 2.72 8.636 1.763 4.976 3.593 10.044 3.593 15.465 0 2.349-.333 4.93-1.337 7.58l-.133.2-.133.267c-4.152 6.432-9.013 9.2-14.34 8.59 2.415 2.181 5.07 3.824 8.707 4.65 5.96 1.316 10.044-2.722 11.476-6.593 3.147-8.543-3.36-23.117-4.25-26.05-.919-2.934-.8-1.903-1.784-6.36.705-.266 2.721.066 5.655 1.643 2.934 1.616 2.86 2.302 8.214 5.84 8.143 5.283 22.364 2.395 31.682-.678 5.84 8.143 19.244 7.322 24.031 7.181 8.308-.332 16.757-4.437 21.756-11.992 0 0 6.406 1.903 10.09 2.72 8.801 2.183 12.087-1.383 16.405-3.212 1.57-.865 4.623-1.57 5.82.465 2.322 18.681 18.87 35.578 35.016 41.116 8.589 2.98 15.63 6.546 28.772 5.775 6.48-.4 12.743-1.95 18.728-4.058-3.12.133-6.267.133-9.294-.133"/><path fill="#ede2d9" d="M257.353 165.376c-11.218 6.007-24.266 4.41-33.536-2.275-5.634-3.872-6.147-10.772-4.79-17.178 2.043-6.24 7.04-9.928 13.589-10.49 10.936-2.063 19.361 4.25 25.838 11.85-1.503 5.655-2.794 12.157-1.104 18.095M307.623 162.865c-3.12 4.27-13.237 12.673-32.645 9.387-6.573-1.104-12.227-8.776-11.852-14.996.6-10.232 8.52-15.137 14.34-16.17 11.358-1.922 22.6 2.509 28.513 10.866 1.783 2.508 5.349 6.24 1.644 10.913M345.125 156.998c-3.779 3-13.87 8.026-29.406 2.84 0 0 .938-3.332-1.338-7.884-2.46-4.857-5.794-7.51-10.02-11.523 0 0 1.922-3.1 2.674-4.39l25.181-4.504c6.5 2.96 12.133 6.782 15.466 12.884 1.829 3.406 2.062 8.8-2.555 12.58"/><path fill="#1a253b" d="M0 413.788h14.432v16.287h13.495v-16.287H42.36v46.796H27.927v-18.54H14.432v18.54H0ZM64.726 413.788H78.83l17.014 46.796h-14.95l-1.97-6.736H64.068l-2.089 6.736H47.476Zm11.335 30.134-4.198-14.574h-.133l-4.53 14.574zM101.007 413.788h14.433v34.804h20.747v11.992h-35.18ZM153.929 460.584v-46.702h10.888v39.615h11.828v7.087zM203.751 413.882l6.034 46.702h-10.843l-1.217-11.476h-5.887l-1.783 11.476h-9.177l7.957-46.702zm-6.805 28.162-1.903-20.746h-.133l-1.876 20.746zM215.275 413.882h11.03c9.27 0 16.522.2 16.522 11.382 0 5.163-1.524 9.857-7.722 10.397v.532c6.923 0 7.722 5.096 7.722 11.124 0 12.79-4.996 13.283-16.522 13.283h-11.03zm10.889 39.966c5.847.6 5.794-2.767 5.794-7.65 0-6.546-1.218-6.639-5.794-6.639zm0-21.027c3.406-.133 5.794.965 5.794-6.08 0-4.577-.4-6.48-5.794-6.173zM275.213 447.84c0 10.75-6.573 13.707-13.8 13.707-7.18 0-13.752-2.954-13.752-13.706v-21.239c0-10.608 6.572-13.565 13.752-13.565 7.228 0 13.8 2.96 13.8 13.565zm-16.686 2.442c0 1.996.599 3.752 2.887 3.752 2.322 0 2.907-1.763 2.907-3.752v-26.19c0-1.903-.598-3.66-2.907-3.66-2.275 0-2.887 1.764-2.887 3.66zM281.22 460.584v-46.702h10.937c10.35 0 16.521 1.124 16.521 10.913 0 5.795-2.395 9.646-8.307 10.63v.134c5.255.133 8.307 2.062 8.307 8.8v9.763c0 1.783.333 4.577 1.643 6.48h-10.913c-1.337-1.903-1.57-4.69-1.57-6.48v-9.904c0-3.286-1.996-4.902-3.965-4.902h-1.763V460.6zm10.89-27.95c4.883 0 5.728-1.71 5.728-6.081 0-4.364-.752-5.987-5.728-5.987zM337.216 413.882l6.034 46.702h-10.842l-1.218-11.476h-5.914l-1.763 11.476h-9.176l7.909-46.702zm-6.83 28.162-1.902-20.746h-.133l-1.923 20.746zM345.57 420.946v-7.064h26.098v7.064h-7.58v39.638H353.22v-39.638zM402.88 447.84c0 10.75-6.572 13.707-13.776 13.707-7.181 0-13.776-2.954-13.776-13.706v-21.239c0-10.608 6.593-13.565 13.776-13.565 7.205 0 13.776 2.96 13.776 13.565zm-16.662 2.442c0 1.996.599 3.752 2.887 3.752 2.322 0 2.907-1.763 2.907-3.752v-26.19c0-1.903-.599-3.66-2.907-3.66-2.275 0-2.887 1.764-2.887 3.66zM408.935 460.584v-46.702h10.913c10.35 0 16.545 1.124 16.545 10.913 0 5.795-2.441 9.646-8.355 10.63v.134c5.256.133 8.355 2.062 8.355 8.8v9.763c0 1.783.333 4.577 1.643 6.48h-10.959c-1.317-1.903-1.57-4.69-1.57-6.48v-9.904c0-3.286-1.969-4.902-3.965-4.902h-1.736V460.6zm10.866-27.95c4.902 0 5.7-1.71 5.7-6.081 0-4.364-.724-5.987-5.7-5.987zM449.113 443.382l-9.247-29.5h10.608l3.991 18.587h.133l3.992-18.587h10.607l-9.223 29.5v17.202h-10.866zM469.554 468.962l2.488-19.432h10.42l-6.148 19.432zM496.026 413.882h10.89v46.702h-10.89zM512.477 413.882h15.067l6.97 33.959h.133v-33.959h8.495v46.702h-13.917l-8.096-39.005h-.133v39.005h-8.519zM576.475 442.42v6.173c0 8.66-4.65 12.955-13.846 12.955-7.205 0-13.705-2.954-13.705-13.706v-21.239c0-10.608 6.5-13.565 13.705-13.565 7.932 0 13.846 2.256 13.846 12.415v5.116h-10.912v-6.48c0-1.902-.599-3.658-2.934-3.658-2.228 0-2.794 1.763-2.794 3.658v26.191c0 1.996.532 3.752 2.794 3.752 2.348 0 2.934-1.763 2.934-3.752l.066-7.862zM583.657 449.53h10.161v11.054h-10.161z"/></svg>