<?xml version="1.0" encoding="UTF-8"?>
<svg id="Layer_2" data-name="Layer 2" xmlns="http://www.w3.org/2000/svg" viewBox="0 0 300.45 264.81">
  <defs>
    <style>
      .cls-1, .cls-2 {
        fill: #fff;
      }

      .cls-2 {
        stroke: #000;
        stroke-miterlimit: 10;
        stroke-width: 4px;
      }

      .cls-3 {
        fill: #383838;
      }
    </style>
  </defs>
  <g id="Layer_1-2" data-name="Layer 1">
    <polygon class="cls-3" points="225.34 197.46 225.34 67.36 112.67 2.31 0 67.36 0 197.46 112.67 262.5 225.34 197.46"/>
    <polygon points="300.45 197.46 300.45 67.36 187.78 2.31 75.11 67.36 75.11 197.46 187.78 262.5 300.45 197.46"/>
    <polygon class="cls-2" points="262.89 197.46 262.89 67.36 150.22 2.31 37.56 67.36 37.56 197.46 150.22 262.5 262.89 197.46"/>
    <polygon class="cls-3" points="150.22 23.99 56.33 78.2 150.22 132.41 150.22 23.99"/>
    <polygon points="244.11 78.2 150.22 23.99 150.22 132.41 244.11 78.2"/>
    <polygon class="cls-3" points="150.22 132.41 244.11 186.61 244.11 78.2 150.22 132.41"/>
    <polygon class="cls-3" points="56.33 186.61 150.22 240.82 150.22 132.41 56.33 186.61"/>
    <polygon points="150.22 240.82 244.11 186.61 150.22 132.41 150.22 240.82"/>
    <polygon class="cls-1" points="56.33 78.2 56.33 186.61 150.22 132.41 56.33 78.2"/>
  </g>
</svg>