<?xml version="1.0" encoding="UTF-8"?>
<svg xmlns="http://www.w3.org/2000/svg" viewBox="0 0 300.45 264.81">
  <defs>
    <style>
      .cls-1 {
        fill: #fff;
      }

      .cls-2 {
        isolation: isolate;
      }

      .cls-3 {
        fill: #d073a4;
      }

      .cls-4 {
        mix-blend-mode: multiply;
      }

      .cls-5 {
        fill: #f0047f;
      }
    </style>
  </defs>
  <g class="cls-2">
    <g id="Layer_1" data-name="Layer 1">
      <g class="cls-4">
        <g>
          <polygon class="cls-1" points="262.89 197.46 262.89 67.36 150.22 2.31 37.56 67.36 37.56 197.46 150.22 262.5 262.89 197.46"/>
          <path class="cls-5" d="M150.22,264.81L35.56,198.61V66.2L150.22,0l114.67,66.2V198.61l-1,.58-113.67,65.63ZM39.56,196.3l110.67,63.89,110.67-63.89V68.51L150.22,4.62,39.56,68.51v127.79Z"/>
        </g>
        <g>
          <polygon class="cls-3" points="150.22 23.99 56.33 78.2 150.22 132.41 150.22 23.99"/>
          <polygon class="cls-5" points="244.11 78.2 150.22 23.99 150.22 132.41 244.11 78.2"/>
          <polygon class="cls-3" points="150.22 132.41 244.11 186.61 244.11 78.2 150.22 132.41"/>
          <polygon class="cls-3" points="56.33 186.61 150.22 240.82 150.22 132.41 56.33 186.61"/>
          <polygon class="cls-5" points="150.22 240.82 244.11 186.61 150.22 132.41 150.22 240.82"/>
          <polygon class="cls-1" points="56.33 78.2 56.33 186.61 150.22 132.41 56.33 78.2"/>
        </g>
      </g>
    </g>
  </g>
</svg>